G04 MADE WITH FRITZING*
G04 WWW.FRITZING.ORG*
G04 DOUBLE SIDED*
G04 HOLES PLATED*
G04 CONTOUR ON CENTER OF CONTOUR VECTOR*
%ASAXBY*%
%FSLAX23Y23*%
%MOIN*%
%OFA0B0*%
%SFA1.0B1.0*%
%ADD10C,0.005000*%
%ADD11C,0.010000*%
%ADD12R,0.001000X0.001000*%
%LNSILK1*%
G90*
G70*
G54D10*
X346Y657D02*
X126Y657D01*
D02*
X346Y357D02*
X126Y357D01*
D02*
X346Y357D02*
X346Y657D01*
D02*
X126Y357D02*
X126Y407D01*
D02*
X126Y407D02*
X126Y607D01*
D02*
X126Y607D02*
X126Y657D01*
D02*
X126Y607D02*
X176Y607D01*
D02*
X176Y607D02*
X176Y407D01*
D02*
X176Y407D02*
X126Y407D01*
G54D11*
D02*
X1121Y274D02*
X921Y274D01*
D02*
X921Y274D02*
X921Y340D01*
D02*
X921Y340D02*
X1121Y340D01*
D02*
X1121Y340D02*
X1121Y274D01*
D02*
X1481Y757D02*
X1481Y157D01*
D02*
X1481Y157D02*
X1581Y157D01*
D02*
X1581Y157D02*
X1581Y757D01*
D02*
X1581Y757D02*
X1481Y757D01*
G54D12*
X0Y903D02*
X1605Y903D01*
X0Y902D02*
X1605Y902D01*
X0Y901D02*
X1605Y901D01*
X0Y900D02*
X1605Y900D01*
X0Y899D02*
X1605Y899D01*
X0Y898D02*
X1605Y898D01*
X0Y897D02*
X1605Y897D01*
X0Y896D02*
X1605Y896D01*
X0Y895D02*
X7Y895D01*
X1598Y895D02*
X1605Y895D01*
X0Y894D02*
X7Y894D01*
X1598Y894D02*
X1605Y894D01*
X0Y893D02*
X7Y893D01*
X1598Y893D02*
X1605Y893D01*
X0Y892D02*
X7Y892D01*
X1598Y892D02*
X1605Y892D01*
X0Y891D02*
X7Y891D01*
X1598Y891D02*
X1605Y891D01*
X0Y890D02*
X7Y890D01*
X1598Y890D02*
X1605Y890D01*
X0Y889D02*
X7Y889D01*
X1598Y889D02*
X1605Y889D01*
X0Y888D02*
X7Y888D01*
X1598Y888D02*
X1605Y888D01*
X0Y887D02*
X7Y887D01*
X1598Y887D02*
X1605Y887D01*
X0Y886D02*
X7Y886D01*
X1598Y886D02*
X1605Y886D01*
X0Y885D02*
X7Y885D01*
X1598Y885D02*
X1605Y885D01*
X0Y884D02*
X7Y884D01*
X1598Y884D02*
X1605Y884D01*
X0Y883D02*
X7Y883D01*
X1598Y883D02*
X1605Y883D01*
X0Y882D02*
X7Y882D01*
X1598Y882D02*
X1605Y882D01*
X0Y881D02*
X7Y881D01*
X1598Y881D02*
X1605Y881D01*
X0Y880D02*
X7Y880D01*
X1598Y880D02*
X1605Y880D01*
X0Y879D02*
X7Y879D01*
X1598Y879D02*
X1605Y879D01*
X0Y878D02*
X7Y878D01*
X1598Y878D02*
X1605Y878D01*
X0Y877D02*
X7Y877D01*
X1598Y877D02*
X1605Y877D01*
X0Y876D02*
X7Y876D01*
X1598Y876D02*
X1605Y876D01*
X0Y875D02*
X7Y875D01*
X1598Y875D02*
X1605Y875D01*
X0Y874D02*
X7Y874D01*
X1598Y874D02*
X1605Y874D01*
X0Y873D02*
X7Y873D01*
X1598Y873D02*
X1605Y873D01*
X0Y872D02*
X7Y872D01*
X1598Y872D02*
X1605Y872D01*
X0Y871D02*
X7Y871D01*
X1598Y871D02*
X1605Y871D01*
X0Y870D02*
X7Y870D01*
X1598Y870D02*
X1605Y870D01*
X0Y869D02*
X7Y869D01*
X1598Y869D02*
X1605Y869D01*
X0Y868D02*
X7Y868D01*
X1598Y868D02*
X1605Y868D01*
X0Y867D02*
X7Y867D01*
X1598Y867D02*
X1605Y867D01*
X0Y866D02*
X7Y866D01*
X1598Y866D02*
X1605Y866D01*
X0Y865D02*
X7Y865D01*
X1598Y865D02*
X1605Y865D01*
X0Y864D02*
X7Y864D01*
X1598Y864D02*
X1605Y864D01*
X0Y863D02*
X7Y863D01*
X1598Y863D02*
X1605Y863D01*
X0Y862D02*
X7Y862D01*
X1598Y862D02*
X1605Y862D01*
X0Y861D02*
X7Y861D01*
X1598Y861D02*
X1605Y861D01*
X0Y860D02*
X7Y860D01*
X1598Y860D02*
X1605Y860D01*
X0Y859D02*
X7Y859D01*
X1598Y859D02*
X1605Y859D01*
X0Y858D02*
X7Y858D01*
X1598Y858D02*
X1605Y858D01*
X0Y857D02*
X7Y857D01*
X1514Y857D02*
X1517Y857D01*
X1540Y857D02*
X1558Y857D01*
X1598Y857D02*
X1605Y857D01*
X0Y856D02*
X7Y856D01*
X1513Y856D02*
X1518Y856D01*
X1539Y856D02*
X1558Y856D01*
X1598Y856D02*
X1605Y856D01*
X0Y855D02*
X7Y855D01*
X1513Y855D02*
X1518Y855D01*
X1539Y855D02*
X1558Y855D01*
X1598Y855D02*
X1605Y855D01*
X0Y854D02*
X7Y854D01*
X1512Y854D02*
X1518Y854D01*
X1539Y854D02*
X1558Y854D01*
X1598Y854D02*
X1605Y854D01*
X0Y853D02*
X7Y853D01*
X1512Y853D02*
X1518Y853D01*
X1539Y853D02*
X1558Y853D01*
X1598Y853D02*
X1605Y853D01*
X0Y852D02*
X7Y852D01*
X1512Y852D02*
X1518Y852D01*
X1539Y852D02*
X1558Y852D01*
X1598Y852D02*
X1605Y852D01*
X0Y851D02*
X7Y851D01*
X1512Y851D02*
X1518Y851D01*
X1540Y851D02*
X1558Y851D01*
X1598Y851D02*
X1605Y851D01*
X0Y850D02*
X7Y850D01*
X1512Y850D02*
X1518Y850D01*
X1552Y850D02*
X1558Y850D01*
X1598Y850D02*
X1605Y850D01*
X0Y849D02*
X7Y849D01*
X1512Y849D02*
X1518Y849D01*
X1552Y849D02*
X1558Y849D01*
X1598Y849D02*
X1605Y849D01*
X0Y848D02*
X7Y848D01*
X1512Y848D02*
X1518Y848D01*
X1552Y848D02*
X1558Y848D01*
X1598Y848D02*
X1605Y848D01*
X0Y847D02*
X7Y847D01*
X1512Y847D02*
X1518Y847D01*
X1552Y847D02*
X1558Y847D01*
X1598Y847D02*
X1605Y847D01*
X0Y846D02*
X7Y846D01*
X1512Y846D02*
X1518Y846D01*
X1552Y846D02*
X1558Y846D01*
X1598Y846D02*
X1605Y846D01*
X0Y845D02*
X7Y845D01*
X1512Y845D02*
X1518Y845D01*
X1552Y845D02*
X1558Y845D01*
X1598Y845D02*
X1605Y845D01*
X0Y844D02*
X7Y844D01*
X1512Y844D02*
X1518Y844D01*
X1552Y844D02*
X1558Y844D01*
X1598Y844D02*
X1605Y844D01*
X0Y843D02*
X7Y843D01*
X1512Y843D02*
X1518Y843D01*
X1552Y843D02*
X1558Y843D01*
X1598Y843D02*
X1605Y843D01*
X0Y842D02*
X7Y842D01*
X1512Y842D02*
X1518Y842D01*
X1552Y842D02*
X1558Y842D01*
X1598Y842D02*
X1605Y842D01*
X0Y841D02*
X7Y841D01*
X1512Y841D02*
X1518Y841D01*
X1552Y841D02*
X1558Y841D01*
X1598Y841D02*
X1605Y841D01*
X0Y840D02*
X7Y840D01*
X1512Y840D02*
X1518Y840D01*
X1552Y840D02*
X1558Y840D01*
X1598Y840D02*
X1605Y840D01*
X0Y839D02*
X7Y839D01*
X1512Y839D02*
X1518Y839D01*
X1552Y839D02*
X1558Y839D01*
X1598Y839D02*
X1605Y839D01*
X0Y838D02*
X7Y838D01*
X1512Y838D02*
X1518Y838D01*
X1552Y838D02*
X1558Y838D01*
X1598Y838D02*
X1605Y838D01*
X0Y837D02*
X7Y837D01*
X1512Y837D02*
X1518Y837D01*
X1552Y837D02*
X1558Y837D01*
X1598Y837D02*
X1605Y837D01*
X0Y836D02*
X7Y836D01*
X1512Y836D02*
X1518Y836D01*
X1552Y836D02*
X1558Y836D01*
X1598Y836D02*
X1605Y836D01*
X0Y835D02*
X7Y835D01*
X1512Y835D02*
X1518Y835D01*
X1552Y835D02*
X1558Y835D01*
X1598Y835D02*
X1605Y835D01*
X0Y834D02*
X7Y834D01*
X1512Y834D02*
X1518Y834D01*
X1552Y834D02*
X1558Y834D01*
X1598Y834D02*
X1605Y834D01*
X0Y833D02*
X7Y833D01*
X1512Y833D02*
X1518Y833D01*
X1552Y833D02*
X1558Y833D01*
X1598Y833D02*
X1605Y833D01*
X0Y832D02*
X7Y832D01*
X1512Y832D02*
X1518Y832D01*
X1552Y832D02*
X1558Y832D01*
X1598Y832D02*
X1605Y832D01*
X0Y831D02*
X7Y831D01*
X1512Y831D02*
X1518Y831D01*
X1552Y831D02*
X1558Y831D01*
X1598Y831D02*
X1605Y831D01*
X0Y830D02*
X7Y830D01*
X1512Y830D02*
X1518Y830D01*
X1552Y830D02*
X1558Y830D01*
X1598Y830D02*
X1605Y830D01*
X0Y829D02*
X7Y829D01*
X1512Y829D02*
X1518Y829D01*
X1552Y829D02*
X1558Y829D01*
X1598Y829D02*
X1605Y829D01*
X0Y828D02*
X7Y828D01*
X1494Y828D02*
X1495Y828D01*
X1512Y828D02*
X1518Y828D01*
X1552Y828D02*
X1558Y828D01*
X1569Y828D02*
X1569Y828D01*
X1598Y828D02*
X1605Y828D01*
X0Y827D02*
X7Y827D01*
X1493Y827D02*
X1497Y827D01*
X1512Y827D02*
X1518Y827D01*
X1552Y827D02*
X1558Y827D01*
X1567Y827D02*
X1571Y827D01*
X1598Y827D02*
X1605Y827D01*
X0Y826D02*
X7Y826D01*
X1492Y826D02*
X1497Y826D01*
X1512Y826D02*
X1518Y826D01*
X1552Y826D02*
X1558Y826D01*
X1566Y826D02*
X1572Y826D01*
X1598Y826D02*
X1605Y826D01*
X0Y825D02*
X7Y825D01*
X1492Y825D02*
X1498Y825D01*
X1512Y825D02*
X1518Y825D01*
X1552Y825D02*
X1558Y825D01*
X1566Y825D02*
X1572Y825D01*
X1598Y825D02*
X1605Y825D01*
X0Y824D02*
X7Y824D01*
X1492Y824D02*
X1498Y824D01*
X1512Y824D02*
X1518Y824D01*
X1552Y824D02*
X1558Y824D01*
X1566Y824D02*
X1572Y824D01*
X1598Y824D02*
X1605Y824D01*
X0Y823D02*
X7Y823D01*
X1492Y823D02*
X1498Y823D01*
X1512Y823D02*
X1518Y823D01*
X1552Y823D02*
X1558Y823D01*
X1566Y823D02*
X1572Y823D01*
X1598Y823D02*
X1605Y823D01*
X0Y822D02*
X7Y822D01*
X1492Y822D02*
X1498Y822D01*
X1512Y822D02*
X1518Y822D01*
X1552Y822D02*
X1558Y822D01*
X1566Y822D02*
X1572Y822D01*
X1598Y822D02*
X1605Y822D01*
X0Y821D02*
X7Y821D01*
X1492Y821D02*
X1498Y821D01*
X1512Y821D02*
X1518Y821D01*
X1552Y821D02*
X1558Y821D01*
X1566Y821D02*
X1572Y821D01*
X1598Y821D02*
X1605Y821D01*
X0Y820D02*
X7Y820D01*
X1492Y820D02*
X1498Y820D01*
X1512Y820D02*
X1518Y820D01*
X1552Y820D02*
X1558Y820D01*
X1566Y820D02*
X1572Y820D01*
X1598Y820D02*
X1605Y820D01*
X0Y819D02*
X7Y819D01*
X1492Y819D02*
X1498Y819D01*
X1512Y819D02*
X1518Y819D01*
X1552Y819D02*
X1558Y819D01*
X1566Y819D02*
X1572Y819D01*
X1598Y819D02*
X1605Y819D01*
X0Y818D02*
X7Y818D01*
X1492Y818D02*
X1498Y818D01*
X1512Y818D02*
X1518Y818D01*
X1552Y818D02*
X1558Y818D01*
X1566Y818D02*
X1572Y818D01*
X1598Y818D02*
X1605Y818D01*
X0Y817D02*
X7Y817D01*
X1492Y817D02*
X1498Y817D01*
X1512Y817D02*
X1518Y817D01*
X1552Y817D02*
X1558Y817D01*
X1566Y817D02*
X1572Y817D01*
X1598Y817D02*
X1605Y817D01*
X0Y816D02*
X7Y816D01*
X1492Y816D02*
X1498Y816D01*
X1512Y816D02*
X1518Y816D01*
X1552Y816D02*
X1558Y816D01*
X1566Y816D02*
X1572Y816D01*
X1598Y816D02*
X1605Y816D01*
X0Y815D02*
X7Y815D01*
X1492Y815D02*
X1498Y815D01*
X1512Y815D02*
X1518Y815D01*
X1552Y815D02*
X1558Y815D01*
X1566Y815D02*
X1572Y815D01*
X1598Y815D02*
X1605Y815D01*
X0Y814D02*
X7Y814D01*
X1492Y814D02*
X1498Y814D01*
X1512Y814D02*
X1518Y814D01*
X1552Y814D02*
X1558Y814D01*
X1566Y814D02*
X1572Y814D01*
X1598Y814D02*
X1605Y814D01*
X0Y813D02*
X7Y813D01*
X1492Y813D02*
X1498Y813D01*
X1512Y813D02*
X1518Y813D01*
X1552Y813D02*
X1558Y813D01*
X1566Y813D02*
X1572Y813D01*
X1598Y813D02*
X1605Y813D01*
X0Y812D02*
X7Y812D01*
X1492Y812D02*
X1498Y812D01*
X1512Y812D02*
X1518Y812D01*
X1552Y812D02*
X1558Y812D01*
X1566Y812D02*
X1572Y812D01*
X1598Y812D02*
X1605Y812D01*
X0Y811D02*
X7Y811D01*
X1492Y811D02*
X1499Y811D01*
X1511Y811D02*
X1518Y811D01*
X1552Y811D02*
X1558Y811D01*
X1566Y811D02*
X1572Y811D01*
X1598Y811D02*
X1605Y811D01*
X0Y810D02*
X7Y810D01*
X1492Y810D02*
X1518Y810D01*
X1540Y810D02*
X1572Y810D01*
X1598Y810D02*
X1605Y810D01*
X0Y809D02*
X7Y809D01*
X1493Y809D02*
X1517Y809D01*
X1539Y809D02*
X1572Y809D01*
X1598Y809D02*
X1605Y809D01*
X0Y808D02*
X7Y808D01*
X1494Y808D02*
X1516Y808D01*
X1539Y808D02*
X1572Y808D01*
X1598Y808D02*
X1605Y808D01*
X0Y807D02*
X7Y807D01*
X1494Y807D02*
X1516Y807D01*
X1539Y807D02*
X1572Y807D01*
X1598Y807D02*
X1605Y807D01*
X0Y806D02*
X7Y806D01*
X1495Y806D02*
X1515Y806D01*
X1539Y806D02*
X1572Y806D01*
X1598Y806D02*
X1605Y806D01*
X0Y805D02*
X7Y805D01*
X1497Y805D02*
X1513Y805D01*
X1539Y805D02*
X1571Y805D01*
X1598Y805D02*
X1605Y805D01*
X0Y804D02*
X7Y804D01*
X1499Y804D02*
X1511Y804D01*
X1540Y804D02*
X1570Y804D01*
X1598Y804D02*
X1605Y804D01*
X0Y803D02*
X7Y803D01*
X1598Y803D02*
X1605Y803D01*
X0Y802D02*
X7Y802D01*
X1598Y802D02*
X1605Y802D01*
X0Y801D02*
X7Y801D01*
X1598Y801D02*
X1605Y801D01*
X0Y800D02*
X7Y800D01*
X1598Y800D02*
X1605Y800D01*
X0Y799D02*
X7Y799D01*
X1598Y799D02*
X1605Y799D01*
X0Y798D02*
X7Y798D01*
X1598Y798D02*
X1605Y798D01*
X0Y797D02*
X7Y797D01*
X1598Y797D02*
X1605Y797D01*
X0Y796D02*
X7Y796D01*
X1598Y796D02*
X1605Y796D01*
X0Y795D02*
X7Y795D01*
X1598Y795D02*
X1605Y795D01*
X0Y794D02*
X7Y794D01*
X1598Y794D02*
X1605Y794D01*
X0Y793D02*
X7Y793D01*
X1598Y793D02*
X1605Y793D01*
X0Y792D02*
X7Y792D01*
X1598Y792D02*
X1605Y792D01*
X0Y791D02*
X7Y791D01*
X1598Y791D02*
X1605Y791D01*
X0Y790D02*
X7Y790D01*
X1598Y790D02*
X1605Y790D01*
X0Y789D02*
X7Y789D01*
X1598Y789D02*
X1605Y789D01*
X0Y788D02*
X7Y788D01*
X1598Y788D02*
X1605Y788D01*
X0Y787D02*
X7Y787D01*
X1598Y787D02*
X1605Y787D01*
X0Y786D02*
X7Y786D01*
X1598Y786D02*
X1605Y786D01*
X0Y785D02*
X7Y785D01*
X1598Y785D02*
X1605Y785D01*
X0Y784D02*
X7Y784D01*
X1598Y784D02*
X1605Y784D01*
X0Y783D02*
X7Y783D01*
X1598Y783D02*
X1605Y783D01*
X0Y782D02*
X7Y782D01*
X1598Y782D02*
X1605Y782D01*
X0Y781D02*
X7Y781D01*
X1598Y781D02*
X1605Y781D01*
X0Y780D02*
X7Y780D01*
X1598Y780D02*
X1605Y780D01*
X0Y779D02*
X7Y779D01*
X1598Y779D02*
X1605Y779D01*
X0Y778D02*
X7Y778D01*
X1598Y778D02*
X1605Y778D01*
X0Y777D02*
X7Y777D01*
X1598Y777D02*
X1605Y777D01*
X0Y776D02*
X7Y776D01*
X1598Y776D02*
X1605Y776D01*
X0Y775D02*
X7Y775D01*
X1598Y775D02*
X1605Y775D01*
X0Y774D02*
X7Y774D01*
X1598Y774D02*
X1605Y774D01*
X0Y773D02*
X7Y773D01*
X1598Y773D02*
X1605Y773D01*
X0Y772D02*
X7Y772D01*
X1598Y772D02*
X1605Y772D01*
X0Y771D02*
X7Y771D01*
X1598Y771D02*
X1605Y771D01*
X0Y770D02*
X7Y770D01*
X1598Y770D02*
X1605Y770D01*
X0Y769D02*
X7Y769D01*
X1598Y769D02*
X1605Y769D01*
X0Y768D02*
X7Y768D01*
X1598Y768D02*
X1605Y768D01*
X0Y767D02*
X7Y767D01*
X1598Y767D02*
X1605Y767D01*
X0Y766D02*
X7Y766D01*
X1598Y766D02*
X1605Y766D01*
X0Y765D02*
X7Y765D01*
X1598Y765D02*
X1605Y765D01*
X0Y764D02*
X7Y764D01*
X1598Y764D02*
X1605Y764D01*
X0Y763D02*
X7Y763D01*
X1598Y763D02*
X1605Y763D01*
X0Y762D02*
X7Y762D01*
X1598Y762D02*
X1605Y762D01*
X0Y761D02*
X7Y761D01*
X1598Y761D02*
X1605Y761D01*
X0Y760D02*
X7Y760D01*
X1598Y760D02*
X1605Y760D01*
X0Y759D02*
X7Y759D01*
X1513Y759D02*
X1513Y759D01*
X1598Y759D02*
X1605Y759D01*
X0Y758D02*
X7Y758D01*
X1512Y758D02*
X1514Y758D01*
X1598Y758D02*
X1605Y758D01*
X0Y757D02*
X7Y757D01*
X1511Y757D02*
X1515Y757D01*
X1598Y757D02*
X1605Y757D01*
X0Y756D02*
X7Y756D01*
X1510Y756D02*
X1516Y756D01*
X1598Y756D02*
X1605Y756D01*
X0Y755D02*
X7Y755D01*
X1509Y755D02*
X1515Y755D01*
X1598Y755D02*
X1605Y755D01*
X0Y754D02*
X7Y754D01*
X1508Y754D02*
X1514Y754D01*
X1598Y754D02*
X1605Y754D01*
X0Y753D02*
X7Y753D01*
X1507Y753D02*
X1513Y753D01*
X1598Y753D02*
X1605Y753D01*
X0Y752D02*
X7Y752D01*
X1506Y752D02*
X1512Y752D01*
X1598Y752D02*
X1605Y752D01*
X0Y751D02*
X7Y751D01*
X1505Y751D02*
X1511Y751D01*
X1598Y751D02*
X1605Y751D01*
X0Y750D02*
X7Y750D01*
X1504Y750D02*
X1510Y750D01*
X1598Y750D02*
X1605Y750D01*
X0Y749D02*
X7Y749D01*
X1503Y749D02*
X1509Y749D01*
X1598Y749D02*
X1605Y749D01*
X0Y748D02*
X7Y748D01*
X1502Y748D02*
X1508Y748D01*
X1598Y748D02*
X1605Y748D01*
X0Y747D02*
X7Y747D01*
X1501Y747D02*
X1507Y747D01*
X1598Y747D02*
X1605Y747D01*
X0Y746D02*
X7Y746D01*
X1500Y746D02*
X1506Y746D01*
X1598Y746D02*
X1605Y746D01*
X0Y745D02*
X7Y745D01*
X1499Y745D02*
X1505Y745D01*
X1598Y745D02*
X1605Y745D01*
X0Y744D02*
X7Y744D01*
X1498Y744D02*
X1504Y744D01*
X1598Y744D02*
X1605Y744D01*
X0Y743D02*
X7Y743D01*
X1497Y743D02*
X1502Y743D01*
X1598Y743D02*
X1605Y743D01*
X0Y742D02*
X7Y742D01*
X1496Y742D02*
X1501Y742D01*
X1598Y742D02*
X1605Y742D01*
X0Y741D02*
X7Y741D01*
X1495Y741D02*
X1500Y741D01*
X1598Y741D02*
X1605Y741D01*
X0Y740D02*
X7Y740D01*
X1494Y740D02*
X1499Y740D01*
X1598Y740D02*
X1605Y740D01*
X0Y739D02*
X7Y739D01*
X1493Y739D02*
X1498Y739D01*
X1598Y739D02*
X1605Y739D01*
X0Y738D02*
X7Y738D01*
X1492Y738D02*
X1497Y738D01*
X1598Y738D02*
X1605Y738D01*
X0Y737D02*
X7Y737D01*
X1491Y737D02*
X1496Y737D01*
X1598Y737D02*
X1605Y737D01*
X0Y736D02*
X7Y736D01*
X1490Y736D02*
X1495Y736D01*
X1598Y736D02*
X1605Y736D01*
X0Y735D02*
X7Y735D01*
X1489Y735D02*
X1494Y735D01*
X1598Y735D02*
X1605Y735D01*
X0Y734D02*
X7Y734D01*
X1488Y734D02*
X1494Y734D01*
X1598Y734D02*
X1605Y734D01*
X0Y733D02*
X7Y733D01*
X1487Y733D02*
X1493Y733D01*
X1598Y733D02*
X1605Y733D01*
X0Y732D02*
X7Y732D01*
X1486Y732D02*
X1492Y732D01*
X1598Y732D02*
X1605Y732D01*
X0Y731D02*
X7Y731D01*
X1485Y731D02*
X1491Y731D01*
X1598Y731D02*
X1605Y731D01*
X0Y730D02*
X7Y730D01*
X1484Y730D02*
X1490Y730D01*
X1598Y730D02*
X1605Y730D01*
X0Y729D02*
X7Y729D01*
X1483Y729D02*
X1489Y729D01*
X1598Y729D02*
X1605Y729D01*
X0Y728D02*
X7Y728D01*
X1482Y728D02*
X1488Y728D01*
X1598Y728D02*
X1605Y728D01*
X0Y727D02*
X7Y727D01*
X1481Y727D02*
X1487Y727D01*
X1598Y727D02*
X1605Y727D01*
X0Y726D02*
X7Y726D01*
X1480Y726D02*
X1486Y726D01*
X1598Y726D02*
X1605Y726D01*
X0Y725D02*
X7Y725D01*
X1479Y725D02*
X1485Y725D01*
X1598Y725D02*
X1605Y725D01*
X0Y724D02*
X7Y724D01*
X1479Y724D02*
X1484Y724D01*
X1598Y724D02*
X1605Y724D01*
X0Y723D02*
X7Y723D01*
X1480Y723D02*
X1483Y723D01*
X1598Y723D02*
X1605Y723D01*
X0Y722D02*
X7Y722D01*
X1481Y722D02*
X1482Y722D01*
X1598Y722D02*
X1605Y722D01*
X0Y721D02*
X7Y721D01*
X1598Y721D02*
X1605Y721D01*
X0Y720D02*
X7Y720D01*
X1598Y720D02*
X1605Y720D01*
X0Y719D02*
X7Y719D01*
X1598Y719D02*
X1605Y719D01*
X0Y718D02*
X7Y718D01*
X1598Y718D02*
X1605Y718D01*
X0Y717D02*
X7Y717D01*
X1598Y717D02*
X1605Y717D01*
X0Y716D02*
X7Y716D01*
X1598Y716D02*
X1605Y716D01*
X0Y715D02*
X7Y715D01*
X1598Y715D02*
X1605Y715D01*
X0Y714D02*
X7Y714D01*
X1598Y714D02*
X1605Y714D01*
X0Y713D02*
X7Y713D01*
X1598Y713D02*
X1605Y713D01*
X0Y712D02*
X7Y712D01*
X1598Y712D02*
X1605Y712D01*
X0Y711D02*
X7Y711D01*
X1598Y711D02*
X1605Y711D01*
X0Y710D02*
X7Y710D01*
X1598Y710D02*
X1605Y710D01*
X0Y709D02*
X7Y709D01*
X1598Y709D02*
X1605Y709D01*
X0Y708D02*
X7Y708D01*
X1598Y708D02*
X1605Y708D01*
X0Y707D02*
X7Y707D01*
X1598Y707D02*
X1605Y707D01*
X0Y706D02*
X7Y706D01*
X1598Y706D02*
X1605Y706D01*
X0Y705D02*
X7Y705D01*
X1598Y705D02*
X1605Y705D01*
X0Y704D02*
X7Y704D01*
X1598Y704D02*
X1605Y704D01*
X0Y703D02*
X7Y703D01*
X1598Y703D02*
X1605Y703D01*
X0Y702D02*
X7Y702D01*
X1598Y702D02*
X1605Y702D01*
X0Y701D02*
X7Y701D01*
X1598Y701D02*
X1605Y701D01*
X0Y700D02*
X7Y700D01*
X1598Y700D02*
X1605Y700D01*
X0Y699D02*
X7Y699D01*
X1598Y699D02*
X1605Y699D01*
X0Y698D02*
X7Y698D01*
X1598Y698D02*
X1605Y698D01*
X0Y697D02*
X7Y697D01*
X1598Y697D02*
X1605Y697D01*
X0Y696D02*
X7Y696D01*
X1598Y696D02*
X1605Y696D01*
X0Y695D02*
X7Y695D01*
X1598Y695D02*
X1605Y695D01*
X0Y694D02*
X7Y694D01*
X1598Y694D02*
X1605Y694D01*
X0Y693D02*
X7Y693D01*
X1598Y693D02*
X1605Y693D01*
X0Y692D02*
X7Y692D01*
X1598Y692D02*
X1605Y692D01*
X0Y691D02*
X7Y691D01*
X1598Y691D02*
X1605Y691D01*
X0Y690D02*
X7Y690D01*
X1598Y690D02*
X1605Y690D01*
X0Y689D02*
X7Y689D01*
X1598Y689D02*
X1605Y689D01*
X0Y688D02*
X7Y688D01*
X1598Y688D02*
X1605Y688D01*
X0Y687D02*
X7Y687D01*
X1598Y687D02*
X1605Y687D01*
X0Y686D02*
X7Y686D01*
X1598Y686D02*
X1605Y686D01*
X0Y685D02*
X7Y685D01*
X1598Y685D02*
X1605Y685D01*
X0Y684D02*
X7Y684D01*
X1598Y684D02*
X1605Y684D01*
X0Y683D02*
X7Y683D01*
X1598Y683D02*
X1605Y683D01*
X0Y682D02*
X7Y682D01*
X1598Y682D02*
X1605Y682D01*
X0Y681D02*
X7Y681D01*
X1598Y681D02*
X1605Y681D01*
X0Y680D02*
X7Y680D01*
X1598Y680D02*
X1605Y680D01*
X0Y679D02*
X7Y679D01*
X1598Y679D02*
X1605Y679D01*
X0Y678D02*
X7Y678D01*
X1598Y678D02*
X1605Y678D01*
X0Y677D02*
X7Y677D01*
X1598Y677D02*
X1605Y677D01*
X0Y676D02*
X7Y676D01*
X50Y676D02*
X98Y676D01*
X1598Y676D02*
X1605Y676D01*
X0Y675D02*
X7Y675D01*
X48Y675D02*
X100Y675D01*
X1598Y675D02*
X1605Y675D01*
X0Y674D02*
X7Y674D01*
X48Y674D02*
X100Y674D01*
X1598Y674D02*
X1605Y674D01*
X0Y673D02*
X7Y673D01*
X47Y673D02*
X101Y673D01*
X1598Y673D02*
X1605Y673D01*
X0Y672D02*
X7Y672D01*
X48Y672D02*
X100Y672D01*
X1598Y672D02*
X1605Y672D01*
X0Y671D02*
X7Y671D01*
X48Y671D02*
X100Y671D01*
X1598Y671D02*
X1605Y671D01*
X0Y670D02*
X7Y670D01*
X49Y670D02*
X99Y670D01*
X1598Y670D02*
X1605Y670D01*
X0Y669D02*
X7Y669D01*
X71Y669D02*
X77Y669D01*
X1598Y669D02*
X1605Y669D01*
X0Y668D02*
X7Y668D01*
X71Y668D02*
X77Y668D01*
X1598Y668D02*
X1605Y668D01*
X0Y667D02*
X7Y667D01*
X71Y667D02*
X77Y667D01*
X1598Y667D02*
X1605Y667D01*
X0Y666D02*
X7Y666D01*
X71Y666D02*
X77Y666D01*
X1598Y666D02*
X1605Y666D01*
X0Y665D02*
X7Y665D01*
X71Y665D02*
X77Y665D01*
X1598Y665D02*
X1605Y665D01*
X0Y664D02*
X7Y664D01*
X71Y664D02*
X77Y664D01*
X1598Y664D02*
X1605Y664D01*
X0Y663D02*
X7Y663D01*
X71Y663D02*
X77Y663D01*
X1598Y663D02*
X1605Y663D01*
X0Y662D02*
X7Y662D01*
X71Y662D02*
X77Y662D01*
X1598Y662D02*
X1605Y662D01*
X0Y661D02*
X7Y661D01*
X71Y661D02*
X77Y661D01*
X1598Y661D02*
X1605Y661D01*
X0Y660D02*
X7Y660D01*
X71Y660D02*
X77Y660D01*
X1598Y660D02*
X1605Y660D01*
X0Y659D02*
X7Y659D01*
X71Y659D02*
X77Y659D01*
X1598Y659D02*
X1605Y659D01*
X0Y658D02*
X7Y658D01*
X71Y658D02*
X77Y658D01*
X1598Y658D02*
X1605Y658D01*
X0Y657D02*
X7Y657D01*
X71Y657D02*
X77Y657D01*
X1598Y657D02*
X1605Y657D01*
X0Y656D02*
X7Y656D01*
X71Y656D02*
X77Y656D01*
X1598Y656D02*
X1605Y656D01*
X0Y655D02*
X7Y655D01*
X71Y655D02*
X77Y655D01*
X1598Y655D02*
X1605Y655D01*
X0Y654D02*
X7Y654D01*
X71Y654D02*
X77Y654D01*
X1598Y654D02*
X1605Y654D01*
X0Y653D02*
X7Y653D01*
X71Y653D02*
X77Y653D01*
X1598Y653D02*
X1605Y653D01*
X0Y652D02*
X7Y652D01*
X71Y652D02*
X77Y652D01*
X1598Y652D02*
X1605Y652D01*
X0Y651D02*
X7Y651D01*
X71Y651D02*
X77Y651D01*
X1598Y651D02*
X1605Y651D01*
X0Y650D02*
X7Y650D01*
X71Y650D02*
X77Y650D01*
X1598Y650D02*
X1605Y650D01*
X0Y649D02*
X7Y649D01*
X71Y649D02*
X77Y649D01*
X1598Y649D02*
X1605Y649D01*
X0Y648D02*
X7Y648D01*
X49Y648D02*
X99Y648D01*
X1598Y648D02*
X1605Y648D01*
X0Y647D02*
X7Y647D01*
X48Y647D02*
X100Y647D01*
X1598Y647D02*
X1605Y647D01*
X0Y646D02*
X7Y646D01*
X48Y646D02*
X100Y646D01*
X1598Y646D02*
X1605Y646D01*
X0Y645D02*
X7Y645D01*
X47Y645D02*
X101Y645D01*
X1598Y645D02*
X1605Y645D01*
X0Y644D02*
X7Y644D01*
X48Y644D02*
X100Y644D01*
X1598Y644D02*
X1605Y644D01*
X0Y643D02*
X7Y643D01*
X48Y643D02*
X100Y643D01*
X1598Y643D02*
X1605Y643D01*
X0Y642D02*
X7Y642D01*
X50Y642D02*
X98Y642D01*
X1598Y642D02*
X1605Y642D01*
X0Y641D02*
X7Y641D01*
X1598Y641D02*
X1605Y641D01*
X0Y640D02*
X7Y640D01*
X1598Y640D02*
X1605Y640D01*
X0Y639D02*
X7Y639D01*
X1598Y639D02*
X1605Y639D01*
X0Y638D02*
X7Y638D01*
X1598Y638D02*
X1605Y638D01*
X0Y637D02*
X7Y637D01*
X1598Y637D02*
X1605Y637D01*
X0Y636D02*
X7Y636D01*
X1598Y636D02*
X1605Y636D01*
X0Y635D02*
X7Y635D01*
X1598Y635D02*
X1605Y635D01*
X0Y634D02*
X7Y634D01*
X1598Y634D02*
X1605Y634D01*
X0Y633D02*
X7Y633D01*
X1598Y633D02*
X1605Y633D01*
X0Y632D02*
X7Y632D01*
X1598Y632D02*
X1605Y632D01*
X0Y631D02*
X7Y631D01*
X1598Y631D02*
X1605Y631D01*
X0Y630D02*
X7Y630D01*
X1598Y630D02*
X1605Y630D01*
X0Y629D02*
X7Y629D01*
X1598Y629D02*
X1605Y629D01*
X0Y628D02*
X7Y628D01*
X1598Y628D02*
X1605Y628D01*
X0Y627D02*
X7Y627D01*
X1598Y627D02*
X1605Y627D01*
X0Y626D02*
X7Y626D01*
X59Y626D02*
X74Y626D01*
X1598Y626D02*
X1605Y626D01*
X0Y625D02*
X7Y625D01*
X55Y625D02*
X78Y625D01*
X1598Y625D02*
X1605Y625D01*
X0Y624D02*
X7Y624D01*
X54Y624D02*
X79Y624D01*
X1598Y624D02*
X1605Y624D01*
X0Y623D02*
X7Y623D01*
X53Y623D02*
X81Y623D01*
X1598Y623D02*
X1605Y623D01*
X0Y622D02*
X7Y622D01*
X52Y622D02*
X82Y622D01*
X1598Y622D02*
X1605Y622D01*
X0Y621D02*
X7Y621D01*
X51Y621D02*
X82Y621D01*
X1598Y621D02*
X1605Y621D01*
X0Y620D02*
X7Y620D01*
X50Y620D02*
X83Y620D01*
X1598Y620D02*
X1605Y620D01*
X0Y619D02*
X7Y619D01*
X49Y619D02*
X59Y619D01*
X62Y619D02*
X69Y619D01*
X75Y619D02*
X84Y619D01*
X1598Y619D02*
X1605Y619D01*
X0Y618D02*
X7Y618D01*
X49Y618D02*
X56Y618D01*
X62Y618D02*
X68Y618D01*
X77Y618D02*
X85Y618D01*
X1598Y618D02*
X1605Y618D01*
X0Y617D02*
X7Y617D01*
X48Y617D02*
X56Y617D01*
X62Y617D02*
X68Y617D01*
X78Y617D02*
X85Y617D01*
X1598Y617D02*
X1605Y617D01*
X0Y616D02*
X7Y616D01*
X48Y616D02*
X55Y616D01*
X62Y616D02*
X68Y616D01*
X79Y616D02*
X85Y616D01*
X1598Y616D02*
X1605Y616D01*
X0Y615D02*
X7Y615D01*
X48Y615D02*
X54Y615D01*
X62Y615D02*
X68Y615D01*
X79Y615D02*
X86Y615D01*
X1598Y615D02*
X1605Y615D01*
X0Y614D02*
X7Y614D01*
X47Y614D02*
X54Y614D01*
X62Y614D02*
X68Y614D01*
X80Y614D02*
X86Y614D01*
X1598Y614D02*
X1605Y614D01*
X0Y613D02*
X7Y613D01*
X47Y613D02*
X53Y613D01*
X62Y613D02*
X68Y613D01*
X80Y613D02*
X86Y613D01*
X1598Y613D02*
X1605Y613D01*
X0Y612D02*
X7Y612D01*
X47Y612D02*
X53Y612D01*
X62Y612D02*
X68Y612D01*
X80Y612D02*
X86Y612D01*
X1598Y612D02*
X1605Y612D01*
X0Y611D02*
X7Y611D01*
X47Y611D02*
X53Y611D01*
X62Y611D02*
X68Y611D01*
X80Y611D02*
X86Y611D01*
X1598Y611D02*
X1605Y611D01*
X0Y610D02*
X7Y610D01*
X47Y610D02*
X53Y610D01*
X62Y610D02*
X68Y610D01*
X80Y610D02*
X86Y610D01*
X1598Y610D02*
X1605Y610D01*
X0Y609D02*
X7Y609D01*
X47Y609D02*
X53Y609D01*
X62Y609D02*
X68Y609D01*
X80Y609D02*
X86Y609D01*
X1598Y609D02*
X1605Y609D01*
X0Y608D02*
X7Y608D01*
X47Y608D02*
X53Y608D01*
X62Y608D02*
X68Y608D01*
X80Y608D02*
X86Y608D01*
X1598Y608D02*
X1605Y608D01*
X0Y607D02*
X7Y607D01*
X47Y607D02*
X53Y607D01*
X62Y607D02*
X68Y607D01*
X80Y607D02*
X86Y607D01*
X1598Y607D02*
X1605Y607D01*
X0Y606D02*
X7Y606D01*
X47Y606D02*
X53Y606D01*
X62Y606D02*
X68Y606D01*
X80Y606D02*
X86Y606D01*
X1598Y606D02*
X1605Y606D01*
X0Y605D02*
X7Y605D01*
X47Y605D02*
X53Y605D01*
X62Y605D02*
X68Y605D01*
X80Y605D02*
X86Y605D01*
X1598Y605D02*
X1605Y605D01*
X0Y604D02*
X7Y604D01*
X47Y604D02*
X53Y604D01*
X62Y604D02*
X68Y604D01*
X80Y604D02*
X86Y604D01*
X1598Y604D02*
X1605Y604D01*
X0Y603D02*
X7Y603D01*
X47Y603D02*
X53Y603D01*
X62Y603D02*
X68Y603D01*
X79Y603D02*
X86Y603D01*
X1598Y603D02*
X1605Y603D01*
X0Y602D02*
X7Y602D01*
X47Y602D02*
X53Y602D01*
X62Y602D02*
X68Y602D01*
X79Y602D02*
X86Y602D01*
X1598Y602D02*
X1605Y602D01*
X0Y601D02*
X7Y601D01*
X47Y601D02*
X53Y601D01*
X62Y601D02*
X68Y601D01*
X78Y601D02*
X85Y601D01*
X1598Y601D02*
X1605Y601D01*
X0Y600D02*
X7Y600D01*
X47Y600D02*
X53Y600D01*
X62Y600D02*
X68Y600D01*
X77Y600D02*
X85Y600D01*
X1598Y600D02*
X1605Y600D01*
X0Y599D02*
X7Y599D01*
X47Y599D02*
X53Y599D01*
X62Y599D02*
X68Y599D01*
X76Y599D02*
X84Y599D01*
X1598Y599D02*
X1605Y599D01*
X0Y598D02*
X7Y598D01*
X47Y598D02*
X53Y598D01*
X62Y598D02*
X84Y598D01*
X1598Y598D02*
X1605Y598D01*
X0Y597D02*
X7Y597D01*
X47Y597D02*
X53Y597D01*
X62Y597D02*
X83Y597D01*
X1598Y597D02*
X1605Y597D01*
X0Y596D02*
X7Y596D01*
X47Y596D02*
X53Y596D01*
X62Y596D02*
X82Y596D01*
X1598Y596D02*
X1605Y596D01*
X0Y595D02*
X7Y595D01*
X47Y595D02*
X53Y595D01*
X62Y595D02*
X81Y595D01*
X1598Y595D02*
X1605Y595D01*
X0Y594D02*
X7Y594D01*
X48Y594D02*
X53Y594D01*
X62Y594D02*
X80Y594D01*
X1598Y594D02*
X1605Y594D01*
X0Y593D02*
X7Y593D01*
X48Y593D02*
X53Y593D01*
X63Y593D02*
X79Y593D01*
X1598Y593D02*
X1605Y593D01*
X0Y592D02*
X7Y592D01*
X49Y592D02*
X52Y592D01*
X64Y592D02*
X76Y592D01*
X1598Y592D02*
X1605Y592D01*
X0Y591D02*
X7Y591D01*
X1598Y591D02*
X1605Y591D01*
X0Y590D02*
X7Y590D01*
X1598Y590D02*
X1605Y590D01*
X0Y589D02*
X7Y589D01*
X1598Y589D02*
X1605Y589D01*
X0Y588D02*
X7Y588D01*
X1598Y588D02*
X1605Y588D01*
X0Y587D02*
X7Y587D01*
X1598Y587D02*
X1605Y587D01*
X0Y586D02*
X7Y586D01*
X1598Y586D02*
X1605Y586D01*
X0Y585D02*
X7Y585D01*
X1598Y585D02*
X1605Y585D01*
X0Y584D02*
X7Y584D01*
X1598Y584D02*
X1605Y584D01*
X0Y583D02*
X7Y583D01*
X1598Y583D02*
X1605Y583D01*
X0Y582D02*
X7Y582D01*
X1598Y582D02*
X1605Y582D01*
X0Y581D02*
X7Y581D01*
X1598Y581D02*
X1605Y581D01*
X0Y580D02*
X7Y580D01*
X1598Y580D02*
X1605Y580D01*
X0Y579D02*
X7Y579D01*
X1598Y579D02*
X1605Y579D01*
X0Y578D02*
X7Y578D01*
X1598Y578D02*
X1605Y578D01*
X0Y577D02*
X7Y577D01*
X1598Y577D02*
X1605Y577D01*
X0Y576D02*
X7Y576D01*
X1598Y576D02*
X1605Y576D01*
X0Y575D02*
X7Y575D01*
X54Y575D02*
X65Y575D01*
X1598Y575D02*
X1605Y575D01*
X0Y574D02*
X7Y574D01*
X52Y574D02*
X67Y574D01*
X1598Y574D02*
X1605Y574D01*
X0Y573D02*
X7Y573D01*
X51Y573D02*
X68Y573D01*
X1598Y573D02*
X1605Y573D01*
X0Y572D02*
X7Y572D01*
X50Y572D02*
X69Y572D01*
X1598Y572D02*
X1605Y572D01*
X0Y571D02*
X7Y571D01*
X49Y571D02*
X70Y571D01*
X1598Y571D02*
X1605Y571D01*
X0Y570D02*
X7Y570D01*
X48Y570D02*
X70Y570D01*
X1598Y570D02*
X1605Y570D01*
X0Y569D02*
X7Y569D01*
X48Y569D02*
X71Y569D01*
X1598Y569D02*
X1605Y569D01*
X0Y568D02*
X7Y568D01*
X48Y568D02*
X55Y568D01*
X64Y568D02*
X71Y568D01*
X81Y568D02*
X85Y568D01*
X1598Y568D02*
X1605Y568D01*
X0Y567D02*
X7Y567D01*
X48Y567D02*
X54Y567D01*
X65Y567D02*
X71Y567D01*
X80Y567D02*
X85Y567D01*
X1598Y567D02*
X1605Y567D01*
X0Y566D02*
X7Y566D01*
X47Y566D02*
X54Y566D01*
X65Y566D02*
X71Y566D01*
X80Y566D02*
X86Y566D01*
X1598Y566D02*
X1605Y566D01*
X0Y565D02*
X7Y565D01*
X47Y565D02*
X53Y565D01*
X65Y565D02*
X71Y565D01*
X80Y565D02*
X86Y565D01*
X1598Y565D02*
X1605Y565D01*
X0Y564D02*
X7Y564D01*
X47Y564D02*
X53Y564D01*
X65Y564D02*
X71Y564D01*
X80Y564D02*
X86Y564D01*
X1598Y564D02*
X1605Y564D01*
X0Y563D02*
X7Y563D01*
X47Y563D02*
X53Y563D01*
X65Y563D02*
X71Y563D01*
X80Y563D02*
X86Y563D01*
X1598Y563D02*
X1605Y563D01*
X0Y562D02*
X7Y562D01*
X47Y562D02*
X53Y562D01*
X65Y562D02*
X71Y562D01*
X80Y562D02*
X86Y562D01*
X1598Y562D02*
X1605Y562D01*
X0Y561D02*
X7Y561D01*
X47Y561D02*
X53Y561D01*
X65Y561D02*
X71Y561D01*
X80Y561D02*
X86Y561D01*
X1598Y561D02*
X1605Y561D01*
X0Y560D02*
X7Y560D01*
X47Y560D02*
X53Y560D01*
X65Y560D02*
X71Y560D01*
X80Y560D02*
X86Y560D01*
X1598Y560D02*
X1605Y560D01*
X0Y559D02*
X7Y559D01*
X47Y559D02*
X53Y559D01*
X65Y559D02*
X71Y559D01*
X80Y559D02*
X86Y559D01*
X1598Y559D02*
X1605Y559D01*
X0Y558D02*
X7Y558D01*
X47Y558D02*
X53Y558D01*
X65Y558D02*
X71Y558D01*
X80Y558D02*
X86Y558D01*
X1598Y558D02*
X1605Y558D01*
X0Y557D02*
X7Y557D01*
X47Y557D02*
X53Y557D01*
X65Y557D02*
X71Y557D01*
X80Y557D02*
X86Y557D01*
X1598Y557D02*
X1605Y557D01*
X0Y556D02*
X7Y556D01*
X47Y556D02*
X54Y556D01*
X65Y556D02*
X71Y556D01*
X80Y556D02*
X86Y556D01*
X1598Y556D02*
X1605Y556D01*
X0Y555D02*
X7Y555D01*
X47Y555D02*
X54Y555D01*
X65Y555D02*
X71Y555D01*
X80Y555D02*
X86Y555D01*
X1598Y555D02*
X1605Y555D01*
X0Y554D02*
X7Y554D01*
X48Y554D02*
X55Y554D01*
X65Y554D02*
X71Y554D01*
X80Y554D02*
X86Y554D01*
X1598Y554D02*
X1605Y554D01*
X0Y553D02*
X7Y553D01*
X48Y553D02*
X55Y553D01*
X65Y553D02*
X71Y553D01*
X80Y553D02*
X86Y553D01*
X1598Y553D02*
X1605Y553D01*
X0Y552D02*
X7Y552D01*
X49Y552D02*
X56Y552D01*
X65Y552D02*
X71Y552D01*
X80Y552D02*
X86Y552D01*
X1598Y552D02*
X1605Y552D01*
X0Y551D02*
X7Y551D01*
X49Y551D02*
X56Y551D01*
X65Y551D02*
X71Y551D01*
X79Y551D02*
X86Y551D01*
X1598Y551D02*
X1605Y551D01*
X0Y550D02*
X7Y550D01*
X50Y550D02*
X57Y550D01*
X64Y550D02*
X71Y550D01*
X78Y550D02*
X85Y550D01*
X1598Y550D02*
X1605Y550D01*
X0Y549D02*
X7Y549D01*
X50Y549D02*
X58Y549D01*
X63Y549D02*
X85Y549D01*
X1598Y549D02*
X1605Y549D01*
X0Y548D02*
X7Y548D01*
X50Y548D02*
X85Y548D01*
X1598Y548D02*
X1605Y548D01*
X0Y547D02*
X7Y547D01*
X48Y547D02*
X84Y547D01*
X1598Y547D02*
X1605Y547D01*
X0Y546D02*
X7Y546D01*
X48Y546D02*
X83Y546D01*
X1598Y546D02*
X1605Y546D01*
X0Y545D02*
X7Y545D01*
X47Y545D02*
X82Y545D01*
X1598Y545D02*
X1605Y545D01*
X0Y544D02*
X7Y544D01*
X48Y544D02*
X81Y544D01*
X1598Y544D02*
X1605Y544D01*
X0Y543D02*
X7Y543D01*
X48Y543D02*
X79Y543D01*
X1598Y543D02*
X1605Y543D01*
X0Y542D02*
X7Y542D01*
X49Y542D02*
X70Y542D01*
X1598Y542D02*
X1605Y542D01*
X0Y541D02*
X7Y541D01*
X1598Y541D02*
X1605Y541D01*
X0Y540D02*
X7Y540D01*
X1598Y540D02*
X1605Y540D01*
X0Y539D02*
X7Y539D01*
X1598Y539D02*
X1605Y539D01*
X0Y538D02*
X7Y538D01*
X1598Y538D02*
X1605Y538D01*
X0Y537D02*
X7Y537D01*
X1598Y537D02*
X1605Y537D01*
X0Y536D02*
X7Y536D01*
X1598Y536D02*
X1605Y536D01*
X0Y535D02*
X7Y535D01*
X1598Y535D02*
X1605Y535D01*
X0Y534D02*
X7Y534D01*
X1598Y534D02*
X1605Y534D01*
X0Y533D02*
X7Y533D01*
X1598Y533D02*
X1605Y533D01*
X0Y532D02*
X7Y532D01*
X1598Y532D02*
X1605Y532D01*
X0Y531D02*
X7Y531D01*
X1598Y531D02*
X1605Y531D01*
X0Y530D02*
X7Y530D01*
X1598Y530D02*
X1605Y530D01*
X0Y529D02*
X7Y529D01*
X1598Y529D02*
X1605Y529D01*
X0Y528D02*
X7Y528D01*
X1598Y528D02*
X1605Y528D01*
X0Y527D02*
X7Y527D01*
X1598Y527D02*
X1605Y527D01*
X0Y526D02*
X7Y526D01*
X1598Y526D02*
X1605Y526D01*
X0Y525D02*
X7Y525D01*
X56Y525D02*
X77Y525D01*
X1598Y525D02*
X1605Y525D01*
X0Y524D02*
X7Y524D01*
X54Y524D02*
X79Y524D01*
X1598Y524D02*
X1605Y524D01*
X0Y523D02*
X7Y523D01*
X53Y523D02*
X80Y523D01*
X1598Y523D02*
X1605Y523D01*
X0Y522D02*
X7Y522D01*
X52Y522D02*
X81Y522D01*
X1598Y522D02*
X1605Y522D01*
X0Y521D02*
X7Y521D01*
X51Y521D02*
X82Y521D01*
X1598Y521D02*
X1605Y521D01*
X0Y520D02*
X7Y520D01*
X50Y520D02*
X83Y520D01*
X1598Y520D02*
X1605Y520D01*
X0Y519D02*
X7Y519D01*
X49Y519D02*
X84Y519D01*
X1598Y519D02*
X1605Y519D01*
X0Y518D02*
X7Y518D01*
X49Y518D02*
X57Y518D01*
X76Y518D02*
X84Y518D01*
X1598Y518D02*
X1605Y518D01*
X0Y517D02*
X7Y517D01*
X48Y517D02*
X56Y517D01*
X77Y517D02*
X85Y517D01*
X1598Y517D02*
X1605Y517D01*
X0Y516D02*
X7Y516D01*
X48Y516D02*
X55Y516D01*
X78Y516D02*
X85Y516D01*
X1598Y516D02*
X1605Y516D01*
X0Y515D02*
X7Y515D01*
X48Y515D02*
X54Y515D01*
X79Y515D02*
X86Y515D01*
X1598Y515D02*
X1605Y515D01*
X0Y514D02*
X7Y514D01*
X47Y514D02*
X54Y514D01*
X80Y514D02*
X86Y514D01*
X1598Y514D02*
X1605Y514D01*
X0Y513D02*
X7Y513D01*
X47Y513D02*
X53Y513D01*
X80Y513D02*
X86Y513D01*
X1598Y513D02*
X1605Y513D01*
X0Y512D02*
X7Y512D01*
X47Y512D02*
X53Y512D01*
X80Y512D02*
X86Y512D01*
X1598Y512D02*
X1605Y512D01*
X0Y511D02*
X7Y511D01*
X47Y511D02*
X53Y511D01*
X80Y511D02*
X86Y511D01*
X1598Y511D02*
X1605Y511D01*
X0Y510D02*
X7Y510D01*
X47Y510D02*
X53Y510D01*
X80Y510D02*
X86Y510D01*
X1598Y510D02*
X1605Y510D01*
X0Y509D02*
X7Y509D01*
X47Y509D02*
X53Y509D01*
X80Y509D02*
X86Y509D01*
X1598Y509D02*
X1605Y509D01*
X0Y508D02*
X7Y508D01*
X47Y508D02*
X53Y508D01*
X80Y508D02*
X86Y508D01*
X1598Y508D02*
X1605Y508D01*
X0Y507D02*
X7Y507D01*
X47Y507D02*
X54Y507D01*
X80Y507D02*
X86Y507D01*
X1598Y507D02*
X1605Y507D01*
X0Y506D02*
X7Y506D01*
X48Y506D02*
X54Y506D01*
X79Y506D02*
X86Y506D01*
X1598Y506D02*
X1605Y506D01*
X0Y505D02*
X7Y505D01*
X48Y505D02*
X55Y505D01*
X79Y505D02*
X85Y505D01*
X1598Y505D02*
X1605Y505D01*
X0Y504D02*
X7Y504D01*
X48Y504D02*
X55Y504D01*
X78Y504D02*
X85Y504D01*
X1598Y504D02*
X1605Y504D01*
X0Y503D02*
X7Y503D01*
X48Y503D02*
X56Y503D01*
X77Y503D02*
X85Y503D01*
X1598Y503D02*
X1605Y503D01*
X0Y502D02*
X7Y502D01*
X49Y502D02*
X57Y502D01*
X76Y502D02*
X84Y502D01*
X1598Y502D02*
X1605Y502D01*
X0Y501D02*
X7Y501D01*
X50Y501D02*
X58Y501D01*
X75Y501D02*
X83Y501D01*
X1598Y501D02*
X1605Y501D01*
X0Y500D02*
X7Y500D01*
X50Y500D02*
X59Y500D01*
X74Y500D02*
X83Y500D01*
X1598Y500D02*
X1605Y500D01*
X0Y499D02*
X7Y499D01*
X51Y499D02*
X60Y499D01*
X73Y499D02*
X82Y499D01*
X1598Y499D02*
X1605Y499D01*
X0Y498D02*
X7Y498D01*
X50Y498D02*
X98Y498D01*
X1598Y498D02*
X1605Y498D01*
X0Y497D02*
X7Y497D01*
X48Y497D02*
X100Y497D01*
X1598Y497D02*
X1605Y497D01*
X0Y496D02*
X7Y496D01*
X48Y496D02*
X100Y496D01*
X1598Y496D02*
X1605Y496D01*
X0Y495D02*
X7Y495D01*
X47Y495D02*
X100Y495D01*
X1598Y495D02*
X1605Y495D01*
X0Y494D02*
X7Y494D01*
X48Y494D02*
X100Y494D01*
X1598Y494D02*
X1605Y494D01*
X0Y493D02*
X7Y493D01*
X48Y493D02*
X100Y493D01*
X1598Y493D02*
X1605Y493D01*
X0Y492D02*
X7Y492D01*
X49Y492D02*
X99Y492D01*
X1598Y492D02*
X1605Y492D01*
X0Y491D02*
X7Y491D01*
X1598Y491D02*
X1605Y491D01*
X0Y490D02*
X7Y490D01*
X1598Y490D02*
X1605Y490D01*
X0Y489D02*
X7Y489D01*
X1598Y489D02*
X1605Y489D01*
X0Y488D02*
X7Y488D01*
X1598Y488D02*
X1605Y488D01*
X0Y487D02*
X7Y487D01*
X1598Y487D02*
X1605Y487D01*
X0Y486D02*
X7Y486D01*
X1598Y486D02*
X1605Y486D01*
X0Y485D02*
X7Y485D01*
X1598Y485D02*
X1605Y485D01*
X0Y484D02*
X7Y484D01*
X1598Y484D02*
X1605Y484D01*
X0Y483D02*
X7Y483D01*
X1598Y483D02*
X1605Y483D01*
X0Y482D02*
X7Y482D01*
X1598Y482D02*
X1605Y482D01*
X0Y481D02*
X7Y481D01*
X1598Y481D02*
X1605Y481D01*
X0Y480D02*
X7Y480D01*
X1598Y480D02*
X1605Y480D01*
X0Y479D02*
X7Y479D01*
X1598Y479D02*
X1605Y479D01*
X0Y478D02*
X7Y478D01*
X1598Y478D02*
X1605Y478D01*
X0Y477D02*
X7Y477D01*
X1598Y477D02*
X1605Y477D01*
X0Y476D02*
X7Y476D01*
X1598Y476D02*
X1605Y476D01*
X0Y475D02*
X7Y475D01*
X57Y475D02*
X76Y475D01*
X1598Y475D02*
X1605Y475D01*
X0Y474D02*
X7Y474D01*
X55Y474D02*
X78Y474D01*
X1598Y474D02*
X1605Y474D01*
X0Y473D02*
X7Y473D01*
X53Y473D02*
X80Y473D01*
X1598Y473D02*
X1605Y473D01*
X0Y472D02*
X7Y472D01*
X52Y472D02*
X81Y472D01*
X1598Y472D02*
X1605Y472D01*
X0Y471D02*
X7Y471D01*
X51Y471D02*
X82Y471D01*
X1598Y471D02*
X1605Y471D01*
X0Y470D02*
X7Y470D01*
X50Y470D02*
X83Y470D01*
X1598Y470D02*
X1605Y470D01*
X0Y469D02*
X7Y469D01*
X50Y469D02*
X84Y469D01*
X1598Y469D02*
X1605Y469D01*
X0Y468D02*
X7Y468D01*
X49Y468D02*
X57Y468D01*
X62Y468D02*
X68Y468D01*
X76Y468D02*
X84Y468D01*
X1598Y468D02*
X1605Y468D01*
X0Y467D02*
X7Y467D01*
X48Y467D02*
X56Y467D01*
X62Y467D02*
X68Y467D01*
X77Y467D02*
X85Y467D01*
X1598Y467D02*
X1605Y467D01*
X0Y466D02*
X7Y466D01*
X48Y466D02*
X55Y466D01*
X62Y466D02*
X68Y466D01*
X78Y466D02*
X85Y466D01*
X1598Y466D02*
X1605Y466D01*
X0Y465D02*
X7Y465D01*
X48Y465D02*
X54Y465D01*
X62Y465D02*
X68Y465D01*
X79Y465D02*
X86Y465D01*
X1598Y465D02*
X1605Y465D01*
X0Y464D02*
X7Y464D01*
X47Y464D02*
X54Y464D01*
X62Y464D02*
X68Y464D01*
X80Y464D02*
X86Y464D01*
X1598Y464D02*
X1605Y464D01*
X0Y463D02*
X7Y463D01*
X47Y463D02*
X54Y463D01*
X62Y463D02*
X68Y463D01*
X80Y463D02*
X86Y463D01*
X1598Y463D02*
X1605Y463D01*
X0Y462D02*
X7Y462D01*
X47Y462D02*
X53Y462D01*
X62Y462D02*
X68Y462D01*
X80Y462D02*
X86Y462D01*
X1598Y462D02*
X1605Y462D01*
X0Y461D02*
X7Y461D01*
X47Y461D02*
X53Y461D01*
X62Y461D02*
X68Y461D01*
X80Y461D02*
X86Y461D01*
X1598Y461D02*
X1605Y461D01*
X0Y460D02*
X7Y460D01*
X47Y460D02*
X53Y460D01*
X62Y460D02*
X68Y460D01*
X80Y460D02*
X86Y460D01*
X1598Y460D02*
X1605Y460D01*
X0Y459D02*
X7Y459D01*
X47Y459D02*
X53Y459D01*
X62Y459D02*
X68Y459D01*
X80Y459D02*
X86Y459D01*
X1598Y459D02*
X1605Y459D01*
X0Y458D02*
X7Y458D01*
X47Y458D02*
X53Y458D01*
X62Y458D02*
X68Y458D01*
X80Y458D02*
X86Y458D01*
X1598Y458D02*
X1605Y458D01*
X0Y457D02*
X7Y457D01*
X47Y457D02*
X53Y457D01*
X62Y457D02*
X68Y457D01*
X80Y457D02*
X86Y457D01*
X1598Y457D02*
X1605Y457D01*
X0Y456D02*
X7Y456D01*
X47Y456D02*
X53Y456D01*
X62Y456D02*
X68Y456D01*
X80Y456D02*
X86Y456D01*
X1598Y456D02*
X1605Y456D01*
X0Y455D02*
X7Y455D01*
X47Y455D02*
X53Y455D01*
X62Y455D02*
X68Y455D01*
X80Y455D02*
X86Y455D01*
X1598Y455D02*
X1605Y455D01*
X0Y454D02*
X7Y454D01*
X47Y454D02*
X53Y454D01*
X62Y454D02*
X68Y454D01*
X80Y454D02*
X86Y454D01*
X1598Y454D02*
X1605Y454D01*
X0Y453D02*
X7Y453D01*
X47Y453D02*
X53Y453D01*
X62Y453D02*
X68Y453D01*
X80Y453D02*
X86Y453D01*
X1598Y453D02*
X1605Y453D01*
X0Y452D02*
X7Y452D01*
X47Y452D02*
X53Y452D01*
X62Y452D02*
X68Y452D01*
X79Y452D02*
X86Y452D01*
X1598Y452D02*
X1605Y452D01*
X0Y451D02*
X7Y451D01*
X47Y451D02*
X53Y451D01*
X62Y451D02*
X68Y451D01*
X79Y451D02*
X85Y451D01*
X1598Y451D02*
X1605Y451D01*
X0Y450D02*
X7Y450D01*
X47Y450D02*
X53Y450D01*
X62Y450D02*
X68Y450D01*
X78Y450D02*
X85Y450D01*
X1598Y450D02*
X1605Y450D01*
X0Y449D02*
X7Y449D01*
X47Y449D02*
X53Y449D01*
X62Y449D02*
X68Y449D01*
X77Y449D02*
X85Y449D01*
X1598Y449D02*
X1605Y449D01*
X0Y448D02*
X7Y448D01*
X47Y448D02*
X53Y448D01*
X62Y448D02*
X69Y448D01*
X75Y448D02*
X84Y448D01*
X1598Y448D02*
X1605Y448D01*
X0Y447D02*
X7Y447D01*
X47Y447D02*
X53Y447D01*
X62Y447D02*
X83Y447D01*
X1598Y447D02*
X1605Y447D01*
X0Y446D02*
X7Y446D01*
X47Y446D02*
X53Y446D01*
X62Y446D02*
X82Y446D01*
X1598Y446D02*
X1605Y446D01*
X0Y445D02*
X7Y445D01*
X47Y445D02*
X53Y445D01*
X62Y445D02*
X82Y445D01*
X1598Y445D02*
X1605Y445D01*
X0Y444D02*
X7Y444D01*
X47Y444D02*
X53Y444D01*
X62Y444D02*
X81Y444D01*
X1598Y444D02*
X1605Y444D01*
X0Y443D02*
X7Y443D01*
X48Y443D02*
X53Y443D01*
X62Y443D02*
X79Y443D01*
X1598Y443D02*
X1605Y443D01*
X0Y442D02*
X7Y442D01*
X48Y442D02*
X52Y442D01*
X63Y442D02*
X78Y442D01*
X1598Y442D02*
X1605Y442D01*
X0Y441D02*
X7Y441D01*
X50Y441D02*
X50Y441D01*
X65Y441D02*
X74Y441D01*
X1598Y441D02*
X1605Y441D01*
X0Y440D02*
X7Y440D01*
X1598Y440D02*
X1605Y440D01*
X0Y439D02*
X7Y439D01*
X1598Y439D02*
X1605Y439D01*
X0Y438D02*
X7Y438D01*
X1598Y438D02*
X1605Y438D01*
X0Y437D02*
X7Y437D01*
X1598Y437D02*
X1605Y437D01*
X0Y436D02*
X7Y436D01*
X1598Y436D02*
X1605Y436D01*
X0Y435D02*
X7Y435D01*
X1598Y435D02*
X1605Y435D01*
X0Y434D02*
X7Y434D01*
X1598Y434D02*
X1605Y434D01*
X0Y433D02*
X7Y433D01*
X1598Y433D02*
X1605Y433D01*
X0Y432D02*
X7Y432D01*
X1598Y432D02*
X1605Y432D01*
X0Y431D02*
X7Y431D01*
X1598Y431D02*
X1605Y431D01*
X0Y430D02*
X7Y430D01*
X1598Y430D02*
X1605Y430D01*
X0Y429D02*
X7Y429D01*
X1598Y429D02*
X1605Y429D01*
X0Y428D02*
X7Y428D01*
X1598Y428D02*
X1605Y428D01*
X0Y427D02*
X7Y427D01*
X1598Y427D02*
X1605Y427D01*
X0Y426D02*
X7Y426D01*
X1598Y426D02*
X1605Y426D01*
X0Y425D02*
X7Y425D01*
X50Y425D02*
X84Y425D01*
X1598Y425D02*
X1605Y425D01*
X0Y424D02*
X7Y424D01*
X48Y424D02*
X85Y424D01*
X1598Y424D02*
X1605Y424D01*
X0Y423D02*
X7Y423D01*
X48Y423D02*
X86Y423D01*
X1598Y423D02*
X1605Y423D01*
X0Y422D02*
X7Y422D01*
X47Y422D02*
X86Y422D01*
X1598Y422D02*
X1605Y422D01*
X0Y421D02*
X7Y421D01*
X48Y421D02*
X86Y421D01*
X1598Y421D02*
X1605Y421D01*
X0Y420D02*
X7Y420D01*
X48Y420D02*
X85Y420D01*
X1598Y420D02*
X1605Y420D01*
X0Y419D02*
X7Y419D01*
X49Y419D02*
X84Y419D01*
X1598Y419D02*
X1605Y419D01*
X0Y418D02*
X7Y418D01*
X70Y418D02*
X79Y418D01*
X1598Y418D02*
X1605Y418D01*
X0Y417D02*
X7Y417D01*
X71Y417D02*
X79Y417D01*
X1598Y417D02*
X1605Y417D01*
X0Y416D02*
X7Y416D01*
X72Y416D02*
X80Y416D01*
X1598Y416D02*
X1605Y416D01*
X0Y415D02*
X7Y415D01*
X73Y415D02*
X81Y415D01*
X1598Y415D02*
X1605Y415D01*
X0Y414D02*
X7Y414D01*
X74Y414D02*
X82Y414D01*
X1598Y414D02*
X1605Y414D01*
X0Y413D02*
X7Y413D01*
X74Y413D02*
X83Y413D01*
X1598Y413D02*
X1605Y413D01*
X0Y412D02*
X7Y412D01*
X75Y412D02*
X84Y412D01*
X1598Y412D02*
X1605Y412D01*
X0Y411D02*
X7Y411D01*
X76Y411D02*
X84Y411D01*
X1598Y411D02*
X1605Y411D01*
X0Y410D02*
X7Y410D01*
X77Y410D02*
X85Y410D01*
X1598Y410D02*
X1605Y410D01*
X0Y409D02*
X7Y409D01*
X78Y409D02*
X86Y409D01*
X1598Y409D02*
X1605Y409D01*
X0Y408D02*
X7Y408D01*
X79Y408D02*
X86Y408D01*
X1598Y408D02*
X1605Y408D01*
X0Y407D02*
X7Y407D01*
X80Y407D02*
X86Y407D01*
X1598Y407D02*
X1605Y407D01*
X0Y406D02*
X7Y406D01*
X80Y406D02*
X86Y406D01*
X1598Y406D02*
X1605Y406D01*
X0Y405D02*
X7Y405D01*
X80Y405D02*
X86Y405D01*
X1598Y405D02*
X1605Y405D01*
X0Y404D02*
X7Y404D01*
X80Y404D02*
X86Y404D01*
X1598Y404D02*
X1605Y404D01*
X0Y403D02*
X7Y403D01*
X80Y403D02*
X86Y403D01*
X1598Y403D02*
X1605Y403D01*
X0Y402D02*
X7Y402D01*
X80Y402D02*
X86Y402D01*
X1598Y402D02*
X1605Y402D01*
X0Y401D02*
X7Y401D01*
X80Y401D02*
X86Y401D01*
X1598Y401D02*
X1605Y401D01*
X0Y400D02*
X7Y400D01*
X80Y400D02*
X86Y400D01*
X1598Y400D02*
X1605Y400D01*
X0Y399D02*
X7Y399D01*
X79Y399D02*
X86Y399D01*
X1598Y399D02*
X1605Y399D01*
X0Y398D02*
X7Y398D01*
X78Y398D02*
X85Y398D01*
X1598Y398D02*
X1605Y398D01*
X0Y397D02*
X7Y397D01*
X72Y397D02*
X85Y397D01*
X1598Y397D02*
X1605Y397D01*
X0Y396D02*
X7Y396D01*
X72Y396D02*
X84Y396D01*
X1598Y396D02*
X1605Y396D01*
X0Y395D02*
X7Y395D01*
X71Y395D02*
X84Y395D01*
X1598Y395D02*
X1605Y395D01*
X0Y394D02*
X7Y394D01*
X71Y394D02*
X83Y394D01*
X1598Y394D02*
X1605Y394D01*
X0Y393D02*
X7Y393D01*
X71Y393D02*
X82Y393D01*
X1598Y393D02*
X1605Y393D01*
X0Y392D02*
X7Y392D01*
X72Y392D02*
X80Y392D01*
X1598Y392D02*
X1605Y392D01*
X0Y391D02*
X7Y391D01*
X73Y391D02*
X78Y391D01*
X1598Y391D02*
X1605Y391D01*
X0Y390D02*
X7Y390D01*
X1598Y390D02*
X1605Y390D01*
X0Y389D02*
X7Y389D01*
X1598Y389D02*
X1605Y389D01*
X0Y388D02*
X7Y388D01*
X1598Y388D02*
X1605Y388D01*
X0Y387D02*
X7Y387D01*
X1598Y387D02*
X1605Y387D01*
X0Y386D02*
X7Y386D01*
X1598Y386D02*
X1605Y386D01*
X0Y385D02*
X7Y385D01*
X1598Y385D02*
X1605Y385D01*
X0Y384D02*
X7Y384D01*
X1598Y384D02*
X1605Y384D01*
X0Y383D02*
X7Y383D01*
X1598Y383D02*
X1605Y383D01*
X0Y382D02*
X7Y382D01*
X1598Y382D02*
X1605Y382D01*
X0Y381D02*
X7Y381D01*
X1598Y381D02*
X1605Y381D01*
X0Y380D02*
X7Y380D01*
X1598Y380D02*
X1605Y380D01*
X0Y379D02*
X7Y379D01*
X1598Y379D02*
X1605Y379D01*
X0Y378D02*
X7Y378D01*
X1598Y378D02*
X1605Y378D01*
X0Y377D02*
X7Y377D01*
X1598Y377D02*
X1605Y377D01*
X0Y376D02*
X7Y376D01*
X1598Y376D02*
X1605Y376D01*
X0Y375D02*
X7Y375D01*
X1598Y375D02*
X1605Y375D01*
X0Y374D02*
X7Y374D01*
X1598Y374D02*
X1605Y374D01*
X0Y373D02*
X7Y373D01*
X1598Y373D02*
X1605Y373D01*
X0Y372D02*
X7Y372D01*
X1598Y372D02*
X1605Y372D01*
X0Y371D02*
X7Y371D01*
X1598Y371D02*
X1605Y371D01*
X0Y370D02*
X7Y370D01*
X1598Y370D02*
X1605Y370D01*
X0Y369D02*
X7Y369D01*
X1598Y369D02*
X1605Y369D01*
X0Y368D02*
X7Y368D01*
X1598Y368D02*
X1605Y368D01*
X0Y367D02*
X7Y367D01*
X1598Y367D02*
X1605Y367D01*
X0Y366D02*
X7Y366D01*
X1598Y366D02*
X1605Y366D01*
X0Y365D02*
X7Y365D01*
X1598Y365D02*
X1605Y365D01*
X0Y364D02*
X7Y364D01*
X1598Y364D02*
X1605Y364D01*
X0Y363D02*
X7Y363D01*
X1598Y363D02*
X1605Y363D01*
X0Y362D02*
X7Y362D01*
X1598Y362D02*
X1605Y362D01*
X0Y361D02*
X7Y361D01*
X1598Y361D02*
X1605Y361D01*
X0Y360D02*
X7Y360D01*
X1598Y360D02*
X1605Y360D01*
X0Y359D02*
X7Y359D01*
X1598Y359D02*
X1605Y359D01*
X0Y358D02*
X7Y358D01*
X1598Y358D02*
X1605Y358D01*
X0Y357D02*
X7Y357D01*
X1598Y357D02*
X1605Y357D01*
X0Y356D02*
X7Y356D01*
X1598Y356D02*
X1605Y356D01*
X0Y355D02*
X7Y355D01*
X1598Y355D02*
X1605Y355D01*
X0Y354D02*
X7Y354D01*
X1598Y354D02*
X1605Y354D01*
X0Y353D02*
X7Y353D01*
X1598Y353D02*
X1605Y353D01*
X0Y352D02*
X7Y352D01*
X1598Y352D02*
X1605Y352D01*
X0Y351D02*
X7Y351D01*
X1598Y351D02*
X1605Y351D01*
X0Y350D02*
X7Y350D01*
X1598Y350D02*
X1605Y350D01*
X0Y349D02*
X7Y349D01*
X1598Y349D02*
X1605Y349D01*
X0Y348D02*
X7Y348D01*
X1598Y348D02*
X1605Y348D01*
X0Y347D02*
X7Y347D01*
X1598Y347D02*
X1605Y347D01*
X0Y346D02*
X7Y346D01*
X1598Y346D02*
X1605Y346D01*
X0Y345D02*
X7Y345D01*
X1598Y345D02*
X1605Y345D01*
X0Y344D02*
X7Y344D01*
X1598Y344D02*
X1605Y344D01*
X0Y343D02*
X7Y343D01*
X1598Y343D02*
X1605Y343D01*
X0Y342D02*
X7Y342D01*
X1598Y342D02*
X1605Y342D01*
X0Y341D02*
X7Y341D01*
X1598Y341D02*
X1605Y341D01*
X0Y340D02*
X7Y340D01*
X1598Y340D02*
X1605Y340D01*
X0Y339D02*
X7Y339D01*
X1598Y339D02*
X1605Y339D01*
X0Y338D02*
X7Y338D01*
X1598Y338D02*
X1605Y338D01*
X0Y337D02*
X7Y337D01*
X1598Y337D02*
X1605Y337D01*
X0Y336D02*
X7Y336D01*
X1598Y336D02*
X1605Y336D01*
X0Y335D02*
X7Y335D01*
X1598Y335D02*
X1605Y335D01*
X0Y334D02*
X7Y334D01*
X1598Y334D02*
X1605Y334D01*
X0Y333D02*
X7Y333D01*
X1598Y333D02*
X1605Y333D01*
X0Y332D02*
X7Y332D01*
X1598Y332D02*
X1605Y332D01*
X0Y331D02*
X7Y331D01*
X1598Y331D02*
X1605Y331D01*
X0Y330D02*
X7Y330D01*
X1598Y330D02*
X1605Y330D01*
X0Y329D02*
X7Y329D01*
X1598Y329D02*
X1605Y329D01*
X0Y328D02*
X7Y328D01*
X1598Y328D02*
X1605Y328D01*
X0Y327D02*
X7Y327D01*
X1598Y327D02*
X1605Y327D01*
X0Y326D02*
X7Y326D01*
X1598Y326D02*
X1605Y326D01*
X0Y325D02*
X7Y325D01*
X1598Y325D02*
X1605Y325D01*
X0Y324D02*
X7Y324D01*
X1598Y324D02*
X1605Y324D01*
X0Y323D02*
X7Y323D01*
X1598Y323D02*
X1605Y323D01*
X0Y322D02*
X7Y322D01*
X1598Y322D02*
X1605Y322D01*
X0Y321D02*
X7Y321D01*
X1598Y321D02*
X1605Y321D01*
X0Y320D02*
X7Y320D01*
X1598Y320D02*
X1605Y320D01*
X0Y319D02*
X7Y319D01*
X1598Y319D02*
X1605Y319D01*
X0Y318D02*
X7Y318D01*
X1598Y318D02*
X1605Y318D01*
X0Y317D02*
X7Y317D01*
X1598Y317D02*
X1605Y317D01*
X0Y316D02*
X7Y316D01*
X1598Y316D02*
X1605Y316D01*
X0Y315D02*
X7Y315D01*
X1598Y315D02*
X1605Y315D01*
X0Y314D02*
X7Y314D01*
X1598Y314D02*
X1605Y314D01*
X0Y313D02*
X7Y313D01*
X1598Y313D02*
X1605Y313D01*
X0Y312D02*
X7Y312D01*
X873Y312D02*
X920Y312D01*
X1121Y312D02*
X1187Y312D01*
X1598Y312D02*
X1605Y312D01*
X0Y311D02*
X7Y311D01*
X873Y311D02*
X920Y311D01*
X1121Y311D02*
X1187Y311D01*
X1598Y311D02*
X1605Y311D01*
X0Y310D02*
X7Y310D01*
X873Y310D02*
X920Y310D01*
X1121Y310D02*
X1187Y310D01*
X1598Y310D02*
X1605Y310D01*
X0Y309D02*
X7Y309D01*
X873Y309D02*
X920Y309D01*
X1121Y309D02*
X1187Y309D01*
X1598Y309D02*
X1605Y309D01*
X0Y308D02*
X7Y308D01*
X873Y308D02*
X920Y308D01*
X1121Y308D02*
X1187Y308D01*
X1598Y308D02*
X1605Y308D01*
X0Y307D02*
X7Y307D01*
X873Y307D02*
X920Y307D01*
X1121Y307D02*
X1187Y307D01*
X1598Y307D02*
X1605Y307D01*
X0Y306D02*
X7Y306D01*
X873Y306D02*
X920Y306D01*
X1121Y306D02*
X1187Y306D01*
X1598Y306D02*
X1605Y306D01*
X0Y305D02*
X7Y305D01*
X873Y305D02*
X920Y305D01*
X1121Y305D02*
X1187Y305D01*
X1598Y305D02*
X1605Y305D01*
X0Y304D02*
X7Y304D01*
X873Y304D02*
X920Y304D01*
X1121Y304D02*
X1187Y304D01*
X1598Y304D02*
X1605Y304D01*
X0Y303D02*
X7Y303D01*
X873Y303D02*
X920Y303D01*
X1121Y303D02*
X1187Y303D01*
X1598Y303D02*
X1605Y303D01*
X0Y302D02*
X7Y302D01*
X1598Y302D02*
X1605Y302D01*
X0Y301D02*
X7Y301D01*
X1598Y301D02*
X1605Y301D01*
X0Y300D02*
X7Y300D01*
X1598Y300D02*
X1605Y300D01*
X0Y299D02*
X7Y299D01*
X1598Y299D02*
X1605Y299D01*
X0Y298D02*
X7Y298D01*
X1598Y298D02*
X1605Y298D01*
X0Y297D02*
X7Y297D01*
X1598Y297D02*
X1605Y297D01*
X0Y296D02*
X7Y296D01*
X1598Y296D02*
X1605Y296D01*
X0Y295D02*
X7Y295D01*
X1598Y295D02*
X1605Y295D01*
X0Y294D02*
X7Y294D01*
X1598Y294D02*
X1605Y294D01*
X0Y293D02*
X7Y293D01*
X1598Y293D02*
X1605Y293D01*
X0Y292D02*
X7Y292D01*
X1598Y292D02*
X1605Y292D01*
X0Y291D02*
X7Y291D01*
X1598Y291D02*
X1605Y291D01*
X0Y290D02*
X7Y290D01*
X1598Y290D02*
X1605Y290D01*
X0Y289D02*
X7Y289D01*
X1598Y289D02*
X1605Y289D01*
X0Y288D02*
X7Y288D01*
X1598Y288D02*
X1605Y288D01*
X0Y287D02*
X7Y287D01*
X1598Y287D02*
X1605Y287D01*
X0Y286D02*
X7Y286D01*
X1598Y286D02*
X1605Y286D01*
X0Y285D02*
X7Y285D01*
X1598Y285D02*
X1605Y285D01*
X0Y284D02*
X7Y284D01*
X1598Y284D02*
X1605Y284D01*
X0Y283D02*
X7Y283D01*
X1598Y283D02*
X1605Y283D01*
X0Y282D02*
X7Y282D01*
X1598Y282D02*
X1605Y282D01*
X0Y281D02*
X7Y281D01*
X1598Y281D02*
X1605Y281D01*
X0Y280D02*
X7Y280D01*
X1598Y280D02*
X1605Y280D01*
X0Y279D02*
X7Y279D01*
X1598Y279D02*
X1605Y279D01*
X0Y278D02*
X7Y278D01*
X1598Y278D02*
X1605Y278D01*
X0Y277D02*
X7Y277D01*
X1598Y277D02*
X1605Y277D01*
X0Y276D02*
X7Y276D01*
X1598Y276D02*
X1605Y276D01*
X0Y275D02*
X7Y275D01*
X1598Y275D02*
X1605Y275D01*
X0Y274D02*
X7Y274D01*
X1598Y274D02*
X1605Y274D01*
X0Y273D02*
X7Y273D01*
X1598Y273D02*
X1605Y273D01*
X0Y272D02*
X7Y272D01*
X1598Y272D02*
X1605Y272D01*
X0Y271D02*
X7Y271D01*
X1598Y271D02*
X1605Y271D01*
X0Y270D02*
X7Y270D01*
X1598Y270D02*
X1605Y270D01*
X0Y269D02*
X7Y269D01*
X1598Y269D02*
X1605Y269D01*
X0Y268D02*
X7Y268D01*
X1598Y268D02*
X1605Y268D01*
X0Y267D02*
X7Y267D01*
X1598Y267D02*
X1605Y267D01*
X0Y266D02*
X7Y266D01*
X1598Y266D02*
X1605Y266D01*
X0Y265D02*
X7Y265D01*
X1598Y265D02*
X1605Y265D01*
X0Y264D02*
X7Y264D01*
X1598Y264D02*
X1605Y264D01*
X0Y263D02*
X7Y263D01*
X1598Y263D02*
X1605Y263D01*
X0Y262D02*
X7Y262D01*
X1598Y262D02*
X1605Y262D01*
X0Y261D02*
X7Y261D01*
X1598Y261D02*
X1605Y261D01*
X0Y260D02*
X7Y260D01*
X1598Y260D02*
X1605Y260D01*
X0Y259D02*
X7Y259D01*
X1598Y259D02*
X1605Y259D01*
X0Y258D02*
X7Y258D01*
X1598Y258D02*
X1605Y258D01*
X0Y257D02*
X7Y257D01*
X1598Y257D02*
X1605Y257D01*
X0Y256D02*
X7Y256D01*
X1598Y256D02*
X1605Y256D01*
X0Y255D02*
X7Y255D01*
X1598Y255D02*
X1605Y255D01*
X0Y254D02*
X7Y254D01*
X1598Y254D02*
X1605Y254D01*
X0Y253D02*
X7Y253D01*
X1598Y253D02*
X1605Y253D01*
X0Y252D02*
X7Y252D01*
X1598Y252D02*
X1605Y252D01*
X0Y251D02*
X7Y251D01*
X1598Y251D02*
X1605Y251D01*
X0Y250D02*
X7Y250D01*
X1598Y250D02*
X1605Y250D01*
X0Y249D02*
X7Y249D01*
X1598Y249D02*
X1605Y249D01*
X0Y248D02*
X7Y248D01*
X1598Y248D02*
X1605Y248D01*
X0Y247D02*
X7Y247D01*
X1598Y247D02*
X1605Y247D01*
X0Y246D02*
X7Y246D01*
X1598Y246D02*
X1605Y246D01*
X0Y245D02*
X7Y245D01*
X1598Y245D02*
X1605Y245D01*
X0Y244D02*
X7Y244D01*
X1598Y244D02*
X1605Y244D01*
X0Y243D02*
X7Y243D01*
X1598Y243D02*
X1605Y243D01*
X0Y242D02*
X7Y242D01*
X1598Y242D02*
X1605Y242D01*
X0Y241D02*
X7Y241D01*
X1598Y241D02*
X1605Y241D01*
X0Y240D02*
X7Y240D01*
X1598Y240D02*
X1605Y240D01*
X0Y239D02*
X7Y239D01*
X1598Y239D02*
X1605Y239D01*
X0Y238D02*
X7Y238D01*
X1598Y238D02*
X1605Y238D01*
X0Y237D02*
X7Y237D01*
X1598Y237D02*
X1605Y237D01*
X0Y236D02*
X7Y236D01*
X953Y236D02*
X984Y236D01*
X1003Y236D02*
X1007Y236D01*
X1031Y236D02*
X1034Y236D01*
X1598Y236D02*
X1605Y236D01*
X0Y235D02*
X7Y235D01*
X952Y235D02*
X985Y235D01*
X1002Y235D02*
X1007Y235D01*
X1030Y235D02*
X1035Y235D01*
X1598Y235D02*
X1605Y235D01*
X0Y234D02*
X7Y234D01*
X952Y234D02*
X985Y234D01*
X1002Y234D02*
X1008Y234D01*
X1029Y234D02*
X1035Y234D01*
X1598Y234D02*
X1605Y234D01*
X0Y233D02*
X7Y233D01*
X952Y233D02*
X985Y233D01*
X1002Y233D02*
X1009Y233D01*
X1029Y233D02*
X1035Y233D01*
X1598Y233D02*
X1605Y233D01*
X0Y232D02*
X7Y232D01*
X952Y232D02*
X985Y232D01*
X1002Y232D02*
X1009Y232D01*
X1029Y232D02*
X1035Y232D01*
X1598Y232D02*
X1605Y232D01*
X0Y231D02*
X7Y231D01*
X952Y231D02*
X984Y231D01*
X1003Y231D02*
X1010Y231D01*
X1029Y231D02*
X1035Y231D01*
X1598Y231D02*
X1605Y231D01*
X0Y230D02*
X7Y230D01*
X952Y230D02*
X982Y230D01*
X1003Y230D02*
X1010Y230D01*
X1029Y230D02*
X1035Y230D01*
X1598Y230D02*
X1605Y230D01*
X0Y229D02*
X7Y229D01*
X952Y229D02*
X958Y229D01*
X965Y229D02*
X971Y229D01*
X1004Y229D02*
X1011Y229D01*
X1029Y229D02*
X1035Y229D01*
X1598Y229D02*
X1605Y229D01*
X0Y228D02*
X7Y228D01*
X952Y228D02*
X958Y228D01*
X965Y228D02*
X971Y228D01*
X1004Y228D02*
X1012Y228D01*
X1029Y228D02*
X1035Y228D01*
X1598Y228D02*
X1605Y228D01*
X0Y227D02*
X7Y227D01*
X952Y227D02*
X958Y227D01*
X965Y227D02*
X971Y227D01*
X1005Y227D02*
X1012Y227D01*
X1029Y227D02*
X1035Y227D01*
X1598Y227D02*
X1605Y227D01*
X0Y226D02*
X7Y226D01*
X383Y226D02*
X398Y226D01*
X463Y226D02*
X477Y226D01*
X952Y226D02*
X958Y226D01*
X965Y226D02*
X971Y226D01*
X1006Y226D02*
X1013Y226D01*
X1029Y226D02*
X1035Y226D01*
X1598Y226D02*
X1605Y226D01*
X0Y225D02*
X7Y225D01*
X382Y225D02*
X398Y225D01*
X463Y225D02*
X479Y225D01*
X952Y225D02*
X958Y225D01*
X965Y225D02*
X971Y225D01*
X1006Y225D02*
X1013Y225D01*
X1029Y225D02*
X1035Y225D01*
X1598Y225D02*
X1605Y225D01*
X0Y224D02*
X7Y224D01*
X381Y224D02*
X397Y224D01*
X463Y224D02*
X480Y224D01*
X952Y224D02*
X958Y224D01*
X965Y224D02*
X971Y224D01*
X1007Y224D02*
X1014Y224D01*
X1029Y224D02*
X1035Y224D01*
X1598Y224D02*
X1605Y224D01*
X0Y223D02*
X7Y223D01*
X379Y223D02*
X397Y223D01*
X464Y223D02*
X481Y223D01*
X952Y223D02*
X958Y223D01*
X965Y223D02*
X971Y223D01*
X1007Y223D02*
X1014Y223D01*
X1029Y223D02*
X1035Y223D01*
X1598Y223D02*
X1605Y223D01*
X0Y222D02*
X7Y222D01*
X378Y222D02*
X396Y222D01*
X464Y222D02*
X482Y222D01*
X952Y222D02*
X958Y222D01*
X965Y222D02*
X971Y222D01*
X1008Y222D02*
X1015Y222D01*
X1029Y222D02*
X1035Y222D01*
X1598Y222D02*
X1605Y222D01*
X0Y221D02*
X7Y221D01*
X377Y221D02*
X384Y221D01*
X476Y221D02*
X483Y221D01*
X952Y221D02*
X958Y221D01*
X965Y221D02*
X971Y221D01*
X1008Y221D02*
X1016Y221D01*
X1029Y221D02*
X1035Y221D01*
X1598Y221D02*
X1605Y221D01*
X0Y220D02*
X7Y220D01*
X376Y220D02*
X383Y220D01*
X478Y220D02*
X484Y220D01*
X952Y220D02*
X958Y220D01*
X965Y220D02*
X971Y220D01*
X1009Y220D02*
X1016Y220D01*
X1029Y220D02*
X1035Y220D01*
X1598Y220D02*
X1605Y220D01*
X0Y219D02*
X7Y219D01*
X375Y219D02*
X382Y219D01*
X479Y219D02*
X485Y219D01*
X952Y219D02*
X958Y219D01*
X965Y219D02*
X971Y219D01*
X1010Y219D02*
X1017Y219D01*
X1029Y219D02*
X1035Y219D01*
X1598Y219D02*
X1605Y219D01*
X0Y218D02*
X7Y218D01*
X374Y218D02*
X381Y218D01*
X480Y218D02*
X486Y218D01*
X952Y218D02*
X958Y218D01*
X965Y218D02*
X971Y218D01*
X1010Y218D02*
X1017Y218D01*
X1029Y218D02*
X1035Y218D01*
X1598Y218D02*
X1605Y218D01*
X0Y217D02*
X7Y217D01*
X373Y217D02*
X379Y217D01*
X481Y217D02*
X487Y217D01*
X952Y217D02*
X958Y217D01*
X965Y217D02*
X971Y217D01*
X1011Y217D02*
X1018Y217D01*
X1029Y217D02*
X1035Y217D01*
X1598Y217D02*
X1605Y217D01*
X0Y216D02*
X7Y216D01*
X372Y216D02*
X378Y216D01*
X482Y216D02*
X488Y216D01*
X952Y216D02*
X958Y216D01*
X965Y216D02*
X971Y216D01*
X1011Y216D02*
X1019Y216D01*
X1029Y216D02*
X1035Y216D01*
X1598Y216D02*
X1605Y216D01*
X0Y215D02*
X7Y215D01*
X371Y215D02*
X377Y215D01*
X483Y215D02*
X489Y215D01*
X952Y215D02*
X957Y215D01*
X965Y215D02*
X971Y215D01*
X1012Y215D02*
X1019Y215D01*
X1029Y215D02*
X1035Y215D01*
X1598Y215D02*
X1605Y215D01*
X0Y214D02*
X7Y214D01*
X370Y214D02*
X376Y214D01*
X484Y214D02*
X490Y214D01*
X952Y214D02*
X957Y214D01*
X965Y214D02*
X971Y214D01*
X1013Y214D02*
X1020Y214D01*
X1029Y214D02*
X1035Y214D01*
X1598Y214D02*
X1605Y214D01*
X0Y213D02*
X7Y213D01*
X370Y213D02*
X375Y213D01*
X485Y213D02*
X491Y213D01*
X953Y213D02*
X956Y213D01*
X965Y213D02*
X971Y213D01*
X1013Y213D02*
X1020Y213D01*
X1029Y213D02*
X1035Y213D01*
X1598Y213D02*
X1605Y213D01*
X0Y212D02*
X7Y212D01*
X369Y212D02*
X375Y212D01*
X486Y212D02*
X492Y212D01*
X965Y212D02*
X971Y212D01*
X1014Y212D02*
X1021Y212D01*
X1029Y212D02*
X1035Y212D01*
X1598Y212D02*
X1605Y212D01*
X0Y211D02*
X7Y211D01*
X368Y211D02*
X374Y211D01*
X487Y211D02*
X492Y211D01*
X965Y211D02*
X971Y211D01*
X1014Y211D02*
X1021Y211D01*
X1029Y211D02*
X1035Y211D01*
X1598Y211D02*
X1605Y211D01*
X0Y210D02*
X7Y210D01*
X367Y210D02*
X373Y210D01*
X488Y210D02*
X493Y210D01*
X965Y210D02*
X971Y210D01*
X1015Y210D02*
X1022Y210D01*
X1029Y210D02*
X1035Y210D01*
X1598Y210D02*
X1605Y210D01*
X0Y209D02*
X7Y209D01*
X367Y209D02*
X372Y209D01*
X489Y209D02*
X494Y209D01*
X965Y209D02*
X971Y209D01*
X1015Y209D02*
X1023Y209D01*
X1029Y209D02*
X1035Y209D01*
X1598Y209D02*
X1605Y209D01*
X0Y208D02*
X7Y208D01*
X366Y208D02*
X371Y208D01*
X489Y208D02*
X495Y208D01*
X965Y208D02*
X971Y208D01*
X1016Y208D02*
X1023Y208D01*
X1029Y208D02*
X1035Y208D01*
X1598Y208D02*
X1605Y208D01*
X0Y207D02*
X7Y207D01*
X365Y207D02*
X370Y207D01*
X490Y207D02*
X495Y207D01*
X965Y207D02*
X971Y207D01*
X1009Y207D02*
X1035Y207D01*
X1598Y207D02*
X1605Y207D01*
X0Y206D02*
X7Y206D01*
X365Y206D02*
X370Y206D01*
X491Y206D02*
X496Y206D01*
X965Y206D02*
X971Y206D01*
X1007Y206D02*
X1035Y206D01*
X1598Y206D02*
X1605Y206D01*
X0Y205D02*
X7Y205D01*
X364Y205D02*
X369Y205D01*
X492Y205D02*
X497Y205D01*
X965Y205D02*
X971Y205D01*
X1006Y205D02*
X1035Y205D01*
X1598Y205D02*
X1605Y205D01*
X0Y204D02*
X7Y204D01*
X363Y204D02*
X368Y204D01*
X492Y204D02*
X497Y204D01*
X965Y204D02*
X971Y204D01*
X1005Y204D02*
X1035Y204D01*
X1598Y204D02*
X1605Y204D01*
X0Y203D02*
X7Y203D01*
X363Y203D02*
X368Y203D01*
X493Y203D02*
X498Y203D01*
X965Y203D02*
X971Y203D01*
X1004Y203D02*
X1035Y203D01*
X1598Y203D02*
X1605Y203D01*
X0Y202D02*
X7Y202D01*
X362Y202D02*
X367Y202D01*
X494Y202D02*
X498Y202D01*
X965Y202D02*
X971Y202D01*
X1003Y202D02*
X1035Y202D01*
X1598Y202D02*
X1605Y202D01*
X0Y201D02*
X7Y201D01*
X362Y201D02*
X366Y201D01*
X494Y201D02*
X499Y201D01*
X965Y201D02*
X971Y201D01*
X1003Y201D02*
X1035Y201D01*
X1598Y201D02*
X1605Y201D01*
X0Y200D02*
X7Y200D01*
X361Y200D02*
X366Y200D01*
X495Y200D02*
X499Y200D01*
X965Y200D02*
X971Y200D01*
X1002Y200D02*
X1010Y200D01*
X1029Y200D02*
X1035Y200D01*
X1598Y200D02*
X1605Y200D01*
X0Y199D02*
X7Y199D01*
X360Y199D02*
X365Y199D01*
X495Y199D02*
X500Y199D01*
X965Y199D02*
X971Y199D01*
X1002Y199D02*
X1009Y199D01*
X1029Y199D02*
X1035Y199D01*
X1598Y199D02*
X1605Y199D01*
X0Y198D02*
X7Y198D01*
X360Y198D02*
X365Y198D01*
X496Y198D02*
X500Y198D01*
X965Y198D02*
X971Y198D01*
X1002Y198D02*
X1008Y198D01*
X1029Y198D02*
X1035Y198D01*
X1598Y198D02*
X1605Y198D01*
X0Y197D02*
X7Y197D01*
X359Y197D02*
X364Y197D01*
X497Y197D02*
X501Y197D01*
X965Y197D02*
X971Y197D01*
X1002Y197D02*
X1008Y197D01*
X1029Y197D02*
X1035Y197D01*
X1598Y197D02*
X1605Y197D01*
X0Y196D02*
X7Y196D01*
X359Y196D02*
X364Y196D01*
X497Y196D02*
X502Y196D01*
X965Y196D02*
X971Y196D01*
X1002Y196D02*
X1008Y196D01*
X1029Y196D02*
X1035Y196D01*
X1598Y196D02*
X1605Y196D01*
X0Y195D02*
X7Y195D01*
X358Y195D02*
X363Y195D01*
X498Y195D02*
X502Y195D01*
X965Y195D02*
X971Y195D01*
X1002Y195D02*
X1008Y195D01*
X1029Y195D02*
X1035Y195D01*
X1598Y195D02*
X1605Y195D01*
X0Y194D02*
X7Y194D01*
X358Y194D02*
X363Y194D01*
X498Y194D02*
X502Y194D01*
X965Y194D02*
X971Y194D01*
X1002Y194D02*
X1008Y194D01*
X1029Y194D02*
X1035Y194D01*
X1598Y194D02*
X1605Y194D01*
X0Y193D02*
X7Y193D01*
X358Y193D02*
X362Y193D01*
X499Y193D02*
X503Y193D01*
X965Y193D02*
X971Y193D01*
X1002Y193D02*
X1008Y193D01*
X1029Y193D02*
X1035Y193D01*
X1598Y193D02*
X1605Y193D01*
X0Y192D02*
X7Y192D01*
X357Y192D02*
X362Y192D01*
X499Y192D02*
X503Y192D01*
X965Y192D02*
X971Y192D01*
X1002Y192D02*
X1008Y192D01*
X1029Y192D02*
X1035Y192D01*
X1598Y192D02*
X1605Y192D01*
X0Y191D02*
X7Y191D01*
X357Y191D02*
X361Y191D01*
X499Y191D02*
X504Y191D01*
X965Y191D02*
X971Y191D01*
X1002Y191D02*
X1009Y191D01*
X1029Y191D02*
X1035Y191D01*
X1598Y191D02*
X1605Y191D01*
X0Y190D02*
X7Y190D01*
X356Y190D02*
X361Y190D01*
X500Y190D02*
X504Y190D01*
X965Y190D02*
X972Y190D01*
X1002Y190D02*
X1010Y190D01*
X1029Y190D02*
X1035Y190D01*
X1598Y190D02*
X1605Y190D01*
X0Y189D02*
X7Y189D01*
X356Y189D02*
X360Y189D01*
X500Y189D02*
X504Y189D01*
X965Y189D02*
X984Y189D01*
X1003Y189D02*
X1035Y189D01*
X1598Y189D02*
X1605Y189D01*
X0Y188D02*
X7Y188D01*
X356Y188D02*
X360Y188D01*
X501Y188D02*
X505Y188D01*
X965Y188D02*
X985Y188D01*
X1003Y188D02*
X1035Y188D01*
X1598Y188D02*
X1605Y188D01*
X0Y187D02*
X7Y187D01*
X355Y187D02*
X360Y187D01*
X501Y187D02*
X505Y187D01*
X965Y187D02*
X985Y187D01*
X1004Y187D02*
X1035Y187D01*
X1598Y187D02*
X1605Y187D01*
X0Y186D02*
X7Y186D01*
X355Y186D02*
X359Y186D01*
X501Y186D02*
X505Y186D01*
X965Y186D02*
X985Y186D01*
X1005Y186D02*
X1035Y186D01*
X1598Y186D02*
X1605Y186D01*
X0Y185D02*
X7Y185D01*
X355Y185D02*
X359Y185D01*
X502Y185D02*
X506Y185D01*
X965Y185D02*
X985Y185D01*
X1006Y185D02*
X1035Y185D01*
X1598Y185D02*
X1605Y185D01*
X0Y184D02*
X7Y184D01*
X355Y184D02*
X359Y184D01*
X502Y184D02*
X506Y184D01*
X965Y184D02*
X984Y184D01*
X1007Y184D02*
X1035Y184D01*
X1598Y184D02*
X1605Y184D01*
X0Y183D02*
X7Y183D01*
X354Y183D02*
X358Y183D01*
X502Y183D02*
X506Y183D01*
X966Y183D02*
X983Y183D01*
X1010Y183D02*
X1035Y183D01*
X1598Y183D02*
X1605Y183D01*
X0Y182D02*
X7Y182D01*
X354Y182D02*
X358Y182D01*
X502Y182D02*
X506Y182D01*
X1598Y182D02*
X1605Y182D01*
X0Y181D02*
X7Y181D01*
X354Y181D02*
X358Y181D01*
X503Y181D02*
X507Y181D01*
X1598Y181D02*
X1605Y181D01*
X0Y180D02*
X7Y180D01*
X354Y180D02*
X358Y180D01*
X503Y180D02*
X507Y180D01*
X1598Y180D02*
X1605Y180D01*
X0Y179D02*
X7Y179D01*
X353Y179D02*
X357Y179D01*
X503Y179D02*
X507Y179D01*
X1598Y179D02*
X1605Y179D01*
X0Y178D02*
X7Y178D01*
X353Y178D02*
X357Y178D01*
X503Y178D02*
X507Y178D01*
X1598Y178D02*
X1605Y178D01*
X0Y177D02*
X7Y177D01*
X353Y177D02*
X357Y177D01*
X504Y177D02*
X507Y177D01*
X1598Y177D02*
X1605Y177D01*
X0Y176D02*
X7Y176D01*
X353Y176D02*
X357Y176D01*
X504Y176D02*
X508Y176D01*
X1598Y176D02*
X1605Y176D01*
X0Y175D02*
X7Y175D01*
X353Y175D02*
X357Y175D01*
X504Y175D02*
X508Y175D01*
X1598Y175D02*
X1605Y175D01*
X0Y174D02*
X7Y174D01*
X352Y174D02*
X356Y174D01*
X504Y174D02*
X508Y174D01*
X1598Y174D02*
X1605Y174D01*
X0Y173D02*
X7Y173D01*
X352Y173D02*
X356Y173D01*
X504Y173D02*
X508Y173D01*
X1598Y173D02*
X1605Y173D01*
X0Y172D02*
X7Y172D01*
X352Y172D02*
X356Y172D01*
X505Y172D02*
X508Y172D01*
X1598Y172D02*
X1605Y172D01*
X0Y171D02*
X7Y171D01*
X352Y171D02*
X356Y171D01*
X505Y171D02*
X508Y171D01*
X1598Y171D02*
X1605Y171D01*
X0Y170D02*
X7Y170D01*
X352Y170D02*
X356Y170D01*
X505Y170D02*
X508Y170D01*
X1598Y170D02*
X1605Y170D01*
X0Y169D02*
X7Y169D01*
X352Y169D02*
X356Y169D01*
X505Y169D02*
X509Y169D01*
X1598Y169D02*
X1605Y169D01*
X0Y168D02*
X7Y168D01*
X352Y168D02*
X356Y168D01*
X505Y168D02*
X509Y168D01*
X1598Y168D02*
X1605Y168D01*
X0Y167D02*
X7Y167D01*
X352Y167D02*
X356Y167D01*
X505Y167D02*
X509Y167D01*
X1598Y167D02*
X1605Y167D01*
X0Y166D02*
X7Y166D01*
X352Y166D02*
X355Y166D01*
X505Y166D02*
X509Y166D01*
X1598Y166D02*
X1605Y166D01*
X0Y165D02*
X7Y165D01*
X352Y165D02*
X355Y165D01*
X505Y165D02*
X509Y165D01*
X1598Y165D02*
X1605Y165D01*
X0Y164D02*
X7Y164D01*
X352Y164D02*
X355Y164D01*
X505Y164D02*
X509Y164D01*
X1598Y164D02*
X1605Y164D01*
X0Y163D02*
X7Y163D01*
X118Y163D02*
X148Y163D01*
X181Y163D02*
X198Y163D01*
X218Y163D02*
X250Y163D01*
X268Y163D02*
X300Y163D01*
X352Y163D02*
X355Y163D01*
X505Y163D02*
X509Y163D01*
X1598Y163D02*
X1605Y163D01*
X0Y162D02*
X7Y162D01*
X117Y162D02*
X149Y162D01*
X179Y162D02*
X199Y162D01*
X217Y162D02*
X250Y162D01*
X267Y162D02*
X300Y162D01*
X352Y162D02*
X355Y162D01*
X505Y162D02*
X509Y162D01*
X1598Y162D02*
X1605Y162D01*
X0Y161D02*
X7Y161D01*
X116Y161D02*
X149Y161D01*
X178Y161D02*
X199Y161D01*
X216Y161D02*
X250Y161D01*
X267Y161D02*
X300Y161D01*
X352Y161D02*
X355Y161D01*
X505Y161D02*
X509Y161D01*
X1598Y161D02*
X1605Y161D01*
X0Y160D02*
X7Y160D01*
X116Y160D02*
X149Y160D01*
X176Y160D02*
X200Y160D01*
X216Y160D02*
X250Y160D01*
X266Y160D02*
X300Y160D01*
X352Y160D02*
X355Y160D01*
X505Y160D02*
X509Y160D01*
X1598Y160D02*
X1605Y160D01*
X0Y159D02*
X7Y159D01*
X116Y159D02*
X149Y159D01*
X176Y159D02*
X199Y159D01*
X216Y159D02*
X250Y159D01*
X267Y159D02*
X300Y159D01*
X352Y159D02*
X355Y159D01*
X505Y159D02*
X509Y159D01*
X1598Y159D02*
X1605Y159D01*
X0Y158D02*
X7Y158D01*
X116Y158D02*
X149Y158D01*
X175Y158D02*
X199Y158D01*
X217Y158D02*
X250Y158D01*
X267Y158D02*
X300Y158D01*
X352Y158D02*
X356Y158D01*
X505Y158D02*
X509Y158D01*
X1598Y158D02*
X1605Y158D01*
X0Y157D02*
X7Y157D01*
X116Y157D02*
X148Y157D01*
X174Y157D02*
X198Y157D01*
X218Y157D02*
X250Y157D01*
X268Y157D02*
X300Y157D01*
X352Y157D02*
X356Y157D01*
X505Y157D02*
X509Y157D01*
X1598Y157D02*
X1605Y157D01*
X0Y156D02*
X7Y156D01*
X116Y156D02*
X122Y156D01*
X130Y156D02*
X136Y156D01*
X174Y156D02*
X182Y156D01*
X187Y156D02*
X193Y156D01*
X244Y156D02*
X250Y156D01*
X294Y156D02*
X300Y156D01*
X352Y156D02*
X356Y156D01*
X505Y156D02*
X509Y156D01*
X1598Y156D02*
X1605Y156D01*
X0Y155D02*
X7Y155D01*
X116Y155D02*
X122Y155D01*
X130Y155D02*
X136Y155D01*
X173Y155D02*
X181Y155D01*
X187Y155D02*
X193Y155D01*
X244Y155D02*
X250Y155D01*
X294Y155D02*
X300Y155D01*
X352Y155D02*
X356Y155D01*
X505Y155D02*
X509Y155D01*
X1598Y155D02*
X1605Y155D01*
X0Y154D02*
X7Y154D01*
X116Y154D02*
X122Y154D01*
X130Y154D02*
X136Y154D01*
X173Y154D02*
X180Y154D01*
X187Y154D02*
X193Y154D01*
X244Y154D02*
X250Y154D01*
X294Y154D02*
X300Y154D01*
X352Y154D02*
X356Y154D01*
X505Y154D02*
X508Y154D01*
X1598Y154D02*
X1605Y154D01*
X0Y153D02*
X7Y153D01*
X116Y153D02*
X122Y153D01*
X130Y153D02*
X136Y153D01*
X173Y153D02*
X179Y153D01*
X187Y153D02*
X193Y153D01*
X244Y153D02*
X250Y153D01*
X294Y153D02*
X300Y153D01*
X352Y153D02*
X356Y153D01*
X504Y153D02*
X508Y153D01*
X1598Y153D02*
X1605Y153D01*
X0Y152D02*
X7Y152D01*
X116Y152D02*
X122Y152D01*
X130Y152D02*
X136Y152D01*
X172Y152D02*
X179Y152D01*
X187Y152D02*
X193Y152D01*
X244Y152D02*
X250Y152D01*
X294Y152D02*
X300Y152D01*
X352Y152D02*
X356Y152D01*
X504Y152D02*
X508Y152D01*
X1598Y152D02*
X1605Y152D01*
X0Y151D02*
X7Y151D01*
X116Y151D02*
X122Y151D01*
X130Y151D02*
X136Y151D01*
X172Y151D02*
X178Y151D01*
X187Y151D02*
X193Y151D01*
X244Y151D02*
X250Y151D01*
X294Y151D02*
X300Y151D01*
X352Y151D02*
X356Y151D01*
X504Y151D02*
X508Y151D01*
X1598Y151D02*
X1605Y151D01*
X0Y150D02*
X7Y150D01*
X116Y150D02*
X122Y150D01*
X130Y150D02*
X136Y150D01*
X171Y150D02*
X178Y150D01*
X187Y150D02*
X193Y150D01*
X244Y150D02*
X250Y150D01*
X294Y150D02*
X300Y150D01*
X353Y150D02*
X356Y150D01*
X504Y150D02*
X508Y150D01*
X1598Y150D02*
X1605Y150D01*
X0Y149D02*
X7Y149D01*
X116Y149D02*
X122Y149D01*
X130Y149D02*
X136Y149D01*
X171Y149D02*
X177Y149D01*
X187Y149D02*
X193Y149D01*
X244Y149D02*
X250Y149D01*
X294Y149D02*
X300Y149D01*
X353Y149D02*
X357Y149D01*
X504Y149D02*
X508Y149D01*
X1598Y149D02*
X1605Y149D01*
X0Y148D02*
X7Y148D01*
X116Y148D02*
X122Y148D01*
X130Y148D02*
X136Y148D01*
X170Y148D02*
X177Y148D01*
X187Y148D02*
X193Y148D01*
X244Y148D02*
X250Y148D01*
X294Y148D02*
X300Y148D01*
X353Y148D02*
X357Y148D01*
X504Y148D02*
X508Y148D01*
X1598Y148D02*
X1605Y148D01*
X0Y147D02*
X7Y147D01*
X116Y147D02*
X122Y147D01*
X130Y147D02*
X136Y147D01*
X170Y147D02*
X176Y147D01*
X187Y147D02*
X193Y147D01*
X244Y147D02*
X250Y147D01*
X294Y147D02*
X300Y147D01*
X353Y147D02*
X357Y147D01*
X503Y147D02*
X507Y147D01*
X1598Y147D02*
X1605Y147D01*
X0Y146D02*
X7Y146D01*
X116Y146D02*
X122Y146D01*
X130Y146D02*
X136Y146D01*
X169Y146D02*
X176Y146D01*
X187Y146D02*
X193Y146D01*
X244Y146D02*
X250Y146D01*
X294Y146D02*
X300Y146D01*
X353Y146D02*
X357Y146D01*
X503Y146D02*
X507Y146D01*
X1598Y146D02*
X1605Y146D01*
X0Y145D02*
X7Y145D01*
X116Y145D02*
X122Y145D01*
X130Y145D02*
X136Y145D01*
X169Y145D02*
X175Y145D01*
X187Y145D02*
X193Y145D01*
X244Y145D02*
X250Y145D01*
X294Y145D02*
X300Y145D01*
X354Y145D02*
X357Y145D01*
X503Y145D02*
X507Y145D01*
X1598Y145D02*
X1605Y145D01*
X0Y144D02*
X7Y144D01*
X116Y144D02*
X122Y144D01*
X130Y144D02*
X136Y144D01*
X168Y144D02*
X175Y144D01*
X187Y144D02*
X193Y144D01*
X244Y144D02*
X250Y144D01*
X294Y144D02*
X300Y144D01*
X354Y144D02*
X358Y144D01*
X503Y144D02*
X507Y144D01*
X1598Y144D02*
X1605Y144D01*
X0Y143D02*
X7Y143D01*
X116Y143D02*
X122Y143D01*
X130Y143D02*
X136Y143D01*
X168Y143D02*
X174Y143D01*
X187Y143D02*
X193Y143D01*
X244Y143D02*
X250Y143D01*
X294Y143D02*
X300Y143D01*
X354Y143D02*
X358Y143D01*
X502Y143D02*
X507Y143D01*
X1598Y143D02*
X1605Y143D01*
X0Y142D02*
X7Y142D01*
X116Y142D02*
X122Y142D01*
X130Y142D02*
X136Y142D01*
X167Y142D02*
X174Y142D01*
X187Y142D02*
X193Y142D01*
X244Y142D02*
X250Y142D01*
X294Y142D02*
X300Y142D01*
X354Y142D02*
X358Y142D01*
X502Y142D02*
X506Y142D01*
X1598Y142D02*
X1605Y142D01*
X0Y141D02*
X7Y141D01*
X116Y141D02*
X122Y141D01*
X130Y141D02*
X136Y141D01*
X167Y141D02*
X173Y141D01*
X187Y141D02*
X193Y141D01*
X244Y141D02*
X250Y141D01*
X294Y141D02*
X300Y141D01*
X355Y141D02*
X359Y141D01*
X502Y141D02*
X506Y141D01*
X1598Y141D02*
X1605Y141D01*
X0Y140D02*
X7Y140D01*
X117Y140D02*
X121Y140D01*
X130Y140D02*
X136Y140D01*
X167Y140D02*
X173Y140D01*
X187Y140D02*
X193Y140D01*
X244Y140D02*
X250Y140D01*
X294Y140D02*
X300Y140D01*
X355Y140D02*
X359Y140D01*
X502Y140D02*
X506Y140D01*
X1598Y140D02*
X1605Y140D01*
X0Y139D02*
X7Y139D01*
X118Y139D02*
X120Y139D01*
X130Y139D02*
X136Y139D01*
X166Y139D02*
X173Y139D01*
X187Y139D02*
X193Y139D01*
X231Y139D02*
X250Y139D01*
X294Y139D02*
X300Y139D01*
X355Y139D02*
X359Y139D01*
X501Y139D02*
X505Y139D01*
X1598Y139D02*
X1605Y139D01*
X0Y138D02*
X7Y138D01*
X130Y138D02*
X136Y138D01*
X166Y138D02*
X172Y138D01*
X187Y138D02*
X193Y138D01*
X231Y138D02*
X250Y138D01*
X294Y138D02*
X300Y138D01*
X356Y138D02*
X360Y138D01*
X501Y138D02*
X505Y138D01*
X1598Y138D02*
X1605Y138D01*
X0Y137D02*
X7Y137D01*
X130Y137D02*
X136Y137D01*
X166Y137D02*
X172Y137D01*
X187Y137D02*
X193Y137D01*
X230Y137D02*
X250Y137D01*
X294Y137D02*
X300Y137D01*
X356Y137D02*
X360Y137D01*
X501Y137D02*
X505Y137D01*
X1598Y137D02*
X1605Y137D01*
X0Y136D02*
X7Y136D01*
X130Y136D02*
X136Y136D01*
X166Y136D02*
X172Y136D01*
X187Y136D02*
X193Y136D01*
X230Y136D02*
X250Y136D01*
X294Y136D02*
X300Y136D01*
X356Y136D02*
X360Y136D01*
X500Y136D02*
X504Y136D01*
X1598Y136D02*
X1605Y136D01*
X0Y135D02*
X7Y135D01*
X130Y135D02*
X136Y135D01*
X166Y135D02*
X172Y135D01*
X187Y135D02*
X193Y135D01*
X230Y135D02*
X250Y135D01*
X294Y135D02*
X300Y135D01*
X357Y135D02*
X361Y135D01*
X500Y135D02*
X504Y135D01*
X1598Y135D02*
X1605Y135D01*
X0Y134D02*
X7Y134D01*
X130Y134D02*
X136Y134D01*
X166Y134D02*
X172Y134D01*
X187Y134D02*
X193Y134D01*
X231Y134D02*
X250Y134D01*
X294Y134D02*
X300Y134D01*
X357Y134D02*
X361Y134D01*
X499Y134D02*
X504Y134D01*
X1598Y134D02*
X1605Y134D01*
X0Y133D02*
X7Y133D01*
X130Y133D02*
X136Y133D01*
X166Y133D02*
X173Y133D01*
X187Y133D02*
X193Y133D01*
X233Y133D02*
X250Y133D01*
X294Y133D02*
X300Y133D01*
X357Y133D02*
X362Y133D01*
X499Y133D02*
X503Y133D01*
X1598Y133D02*
X1605Y133D01*
X0Y132D02*
X7Y132D01*
X130Y132D02*
X136Y132D01*
X167Y132D02*
X173Y132D01*
X187Y132D02*
X193Y132D01*
X244Y132D02*
X250Y132D01*
X294Y132D02*
X300Y132D01*
X358Y132D02*
X362Y132D01*
X498Y132D02*
X503Y132D01*
X1598Y132D02*
X1605Y132D01*
X0Y131D02*
X7Y131D01*
X130Y131D02*
X136Y131D01*
X167Y131D02*
X174Y131D01*
X187Y131D02*
X193Y131D01*
X244Y131D02*
X250Y131D01*
X294Y131D02*
X300Y131D01*
X358Y131D02*
X362Y131D01*
X498Y131D02*
X502Y131D01*
X1598Y131D02*
X1605Y131D01*
X0Y130D02*
X7Y130D01*
X130Y130D02*
X136Y130D01*
X167Y130D02*
X174Y130D01*
X187Y130D02*
X193Y130D01*
X244Y130D02*
X250Y130D01*
X294Y130D02*
X300Y130D01*
X359Y130D02*
X363Y130D01*
X498Y130D02*
X502Y130D01*
X1598Y130D02*
X1605Y130D01*
X0Y129D02*
X7Y129D01*
X130Y129D02*
X136Y129D01*
X168Y129D02*
X175Y129D01*
X187Y129D02*
X193Y129D01*
X244Y129D02*
X250Y129D01*
X294Y129D02*
X300Y129D01*
X359Y129D02*
X363Y129D01*
X497Y129D02*
X502Y129D01*
X1598Y129D02*
X1605Y129D01*
X0Y128D02*
X7Y128D01*
X130Y128D02*
X136Y128D01*
X168Y128D02*
X175Y128D01*
X187Y128D02*
X193Y128D01*
X244Y128D02*
X250Y128D01*
X294Y128D02*
X300Y128D01*
X359Y128D02*
X364Y128D01*
X496Y128D02*
X501Y128D01*
X1598Y128D02*
X1605Y128D01*
X0Y127D02*
X7Y127D01*
X130Y127D02*
X136Y127D01*
X169Y127D02*
X176Y127D01*
X187Y127D02*
X193Y127D01*
X244Y127D02*
X250Y127D01*
X294Y127D02*
X300Y127D01*
X360Y127D02*
X364Y127D01*
X496Y127D02*
X501Y127D01*
X1598Y127D02*
X1605Y127D01*
X0Y126D02*
X7Y126D01*
X130Y126D02*
X136Y126D01*
X169Y126D02*
X176Y126D01*
X187Y126D02*
X193Y126D01*
X244Y126D02*
X250Y126D01*
X294Y126D02*
X300Y126D01*
X361Y126D02*
X365Y126D01*
X495Y126D02*
X500Y126D01*
X1598Y126D02*
X1605Y126D01*
X0Y125D02*
X7Y125D01*
X130Y125D02*
X136Y125D01*
X170Y125D02*
X177Y125D01*
X187Y125D02*
X193Y125D01*
X244Y125D02*
X250Y125D01*
X294Y125D02*
X300Y125D01*
X361Y125D02*
X366Y125D01*
X495Y125D02*
X500Y125D01*
X1598Y125D02*
X1605Y125D01*
X0Y124D02*
X7Y124D01*
X130Y124D02*
X136Y124D01*
X170Y124D02*
X177Y124D01*
X187Y124D02*
X193Y124D01*
X244Y124D02*
X250Y124D01*
X294Y124D02*
X300Y124D01*
X362Y124D02*
X366Y124D01*
X494Y124D02*
X499Y124D01*
X1598Y124D02*
X1605Y124D01*
X0Y123D02*
X7Y123D01*
X130Y123D02*
X136Y123D01*
X171Y123D02*
X178Y123D01*
X187Y123D02*
X193Y123D01*
X244Y123D02*
X250Y123D01*
X294Y123D02*
X300Y123D01*
X362Y123D02*
X367Y123D01*
X494Y123D02*
X499Y123D01*
X1598Y123D02*
X1605Y123D01*
X0Y122D02*
X7Y122D01*
X130Y122D02*
X136Y122D01*
X171Y122D02*
X178Y122D01*
X187Y122D02*
X193Y122D01*
X244Y122D02*
X250Y122D01*
X294Y122D02*
X300Y122D01*
X363Y122D02*
X368Y122D01*
X493Y122D02*
X498Y122D01*
X1598Y122D02*
X1605Y122D01*
X0Y121D02*
X7Y121D01*
X130Y121D02*
X136Y121D01*
X172Y121D02*
X179Y121D01*
X187Y121D02*
X193Y121D01*
X244Y121D02*
X250Y121D01*
X294Y121D02*
X300Y121D01*
X363Y121D02*
X368Y121D01*
X492Y121D02*
X497Y121D01*
X1598Y121D02*
X1605Y121D01*
X0Y120D02*
X7Y120D01*
X130Y120D02*
X136Y120D01*
X172Y120D02*
X179Y120D01*
X187Y120D02*
X193Y120D01*
X244Y120D02*
X250Y120D01*
X294Y120D02*
X300Y120D01*
X364Y120D02*
X369Y120D01*
X492Y120D02*
X497Y120D01*
X1598Y120D02*
X1605Y120D01*
X0Y119D02*
X7Y119D01*
X130Y119D02*
X136Y119D01*
X173Y119D02*
X180Y119D01*
X187Y119D02*
X193Y119D01*
X244Y119D02*
X250Y119D01*
X294Y119D02*
X300Y119D01*
X365Y119D02*
X370Y119D01*
X491Y119D02*
X496Y119D01*
X1598Y119D02*
X1605Y119D01*
X0Y118D02*
X7Y118D01*
X130Y118D02*
X136Y118D01*
X173Y118D02*
X180Y118D01*
X187Y118D02*
X193Y118D01*
X244Y118D02*
X250Y118D01*
X294Y118D02*
X300Y118D01*
X365Y118D02*
X370Y118D01*
X490Y118D02*
X495Y118D01*
X1598Y118D02*
X1605Y118D01*
X0Y117D02*
X7Y117D01*
X130Y117D02*
X136Y117D01*
X174Y117D02*
X181Y117D01*
X187Y117D02*
X193Y117D01*
X244Y117D02*
X250Y117D01*
X294Y117D02*
X300Y117D01*
X366Y117D02*
X371Y117D01*
X489Y117D02*
X495Y117D01*
X1598Y117D02*
X1605Y117D01*
X0Y116D02*
X7Y116D01*
X130Y116D02*
X147Y116D01*
X174Y116D02*
X197Y116D01*
X219Y116D02*
X250Y116D01*
X294Y116D02*
X300Y116D01*
X367Y116D02*
X372Y116D01*
X489Y116D02*
X494Y116D01*
X1598Y116D02*
X1605Y116D01*
X0Y115D02*
X7Y115D01*
X130Y115D02*
X149Y115D01*
X175Y115D02*
X199Y115D01*
X217Y115D02*
X250Y115D01*
X294Y115D02*
X300Y115D01*
X367Y115D02*
X373Y115D01*
X488Y115D02*
X493Y115D01*
X1598Y115D02*
X1605Y115D01*
X0Y114D02*
X7Y114D01*
X130Y114D02*
X149Y114D01*
X176Y114D02*
X199Y114D01*
X217Y114D02*
X250Y114D01*
X294Y114D02*
X300Y114D01*
X368Y114D02*
X374Y114D01*
X487Y114D02*
X493Y114D01*
X1598Y114D02*
X1605Y114D01*
X0Y113D02*
X7Y113D01*
X130Y113D02*
X149Y113D01*
X176Y113D02*
X200Y113D01*
X216Y113D02*
X250Y113D01*
X294Y113D02*
X300Y113D01*
X369Y113D02*
X374Y113D01*
X486Y113D02*
X492Y113D01*
X1598Y113D02*
X1605Y113D01*
X0Y112D02*
X7Y112D01*
X130Y112D02*
X149Y112D01*
X177Y112D02*
X199Y112D01*
X216Y112D02*
X250Y112D01*
X294Y112D02*
X300Y112D01*
X370Y112D02*
X375Y112D01*
X485Y112D02*
X491Y112D01*
X1598Y112D02*
X1605Y112D01*
X0Y111D02*
X7Y111D01*
X130Y111D02*
X149Y111D01*
X179Y111D02*
X199Y111D01*
X217Y111D02*
X250Y111D01*
X295Y111D02*
X299Y111D01*
X370Y111D02*
X376Y111D01*
X484Y111D02*
X490Y111D01*
X1598Y111D02*
X1605Y111D01*
X0Y110D02*
X7Y110D01*
X130Y110D02*
X148Y110D01*
X181Y110D02*
X198Y110D01*
X218Y110D02*
X250Y110D01*
X295Y110D02*
X299Y110D01*
X371Y110D02*
X377Y110D01*
X483Y110D02*
X489Y110D01*
X1598Y110D02*
X1605Y110D01*
X0Y109D02*
X7Y109D01*
X372Y109D02*
X378Y109D01*
X482Y109D02*
X488Y109D01*
X1598Y109D02*
X1605Y109D01*
X0Y108D02*
X7Y108D01*
X373Y108D02*
X379Y108D01*
X481Y108D02*
X487Y108D01*
X1598Y108D02*
X1605Y108D01*
X0Y107D02*
X7Y107D01*
X374Y107D02*
X381Y107D01*
X480Y107D02*
X486Y107D01*
X1598Y107D02*
X1605Y107D01*
X0Y106D02*
X7Y106D01*
X375Y106D02*
X382Y106D01*
X479Y106D02*
X485Y106D01*
X1598Y106D02*
X1605Y106D01*
X0Y105D02*
X7Y105D01*
X376Y105D02*
X383Y105D01*
X478Y105D02*
X484Y105D01*
X1598Y105D02*
X1605Y105D01*
X0Y104D02*
X7Y104D01*
X377Y104D02*
X384Y104D01*
X476Y104D02*
X483Y104D01*
X1598Y104D02*
X1605Y104D01*
X0Y103D02*
X7Y103D01*
X378Y103D02*
X385Y103D01*
X475Y103D02*
X482Y103D01*
X1598Y103D02*
X1605Y103D01*
X0Y102D02*
X7Y102D01*
X380Y102D02*
X387Y102D01*
X474Y102D02*
X481Y102D01*
X1598Y102D02*
X1605Y102D01*
X0Y101D02*
X7Y101D01*
X381Y101D02*
X388Y101D01*
X472Y101D02*
X480Y101D01*
X1598Y101D02*
X1605Y101D01*
X0Y100D02*
X7Y100D01*
X382Y100D02*
X390Y100D01*
X471Y100D02*
X479Y100D01*
X1598Y100D02*
X1605Y100D01*
X0Y99D02*
X7Y99D01*
X383Y99D02*
X391Y99D01*
X469Y99D02*
X477Y99D01*
X1598Y99D02*
X1605Y99D01*
X0Y98D02*
X7Y98D01*
X385Y98D02*
X393Y98D01*
X468Y98D02*
X476Y98D01*
X1598Y98D02*
X1605Y98D01*
X0Y97D02*
X7Y97D01*
X386Y97D02*
X393Y97D01*
X468Y97D02*
X474Y97D01*
X1598Y97D02*
X1605Y97D01*
X0Y96D02*
X7Y96D01*
X387Y96D02*
X393Y96D01*
X468Y96D02*
X473Y96D01*
X1598Y96D02*
X1605Y96D01*
X0Y95D02*
X7Y95D01*
X389Y95D02*
X393Y95D01*
X468Y95D02*
X471Y95D01*
X1598Y95D02*
X1605Y95D01*
X0Y94D02*
X7Y94D01*
X391Y94D02*
X393Y94D01*
X1598Y94D02*
X1605Y94D01*
X0Y93D02*
X7Y93D01*
X1598Y93D02*
X1605Y93D01*
X0Y92D02*
X7Y92D01*
X1598Y92D02*
X1605Y92D01*
X0Y91D02*
X7Y91D01*
X1598Y91D02*
X1605Y91D01*
X0Y90D02*
X7Y90D01*
X1598Y90D02*
X1605Y90D01*
X0Y89D02*
X7Y89D01*
X1598Y89D02*
X1605Y89D01*
X0Y88D02*
X7Y88D01*
X1598Y88D02*
X1605Y88D01*
X0Y87D02*
X7Y87D01*
X1598Y87D02*
X1605Y87D01*
X0Y86D02*
X7Y86D01*
X1598Y86D02*
X1605Y86D01*
X0Y85D02*
X7Y85D01*
X1598Y85D02*
X1605Y85D01*
X0Y84D02*
X7Y84D01*
X1598Y84D02*
X1605Y84D01*
X0Y83D02*
X7Y83D01*
X1598Y83D02*
X1605Y83D01*
X0Y82D02*
X7Y82D01*
X1598Y82D02*
X1605Y82D01*
X0Y81D02*
X7Y81D01*
X1598Y81D02*
X1605Y81D01*
X0Y80D02*
X7Y80D01*
X1598Y80D02*
X1605Y80D01*
X0Y79D02*
X7Y79D01*
X1598Y79D02*
X1605Y79D01*
X0Y78D02*
X7Y78D01*
X1598Y78D02*
X1605Y78D01*
X0Y77D02*
X7Y77D01*
X1598Y77D02*
X1605Y77D01*
X0Y76D02*
X7Y76D01*
X1598Y76D02*
X1605Y76D01*
X0Y75D02*
X7Y75D01*
X1598Y75D02*
X1605Y75D01*
X0Y74D02*
X7Y74D01*
X1598Y74D02*
X1605Y74D01*
X0Y73D02*
X7Y73D01*
X1598Y73D02*
X1605Y73D01*
X0Y72D02*
X7Y72D01*
X1598Y72D02*
X1605Y72D01*
X0Y71D02*
X7Y71D01*
X1598Y71D02*
X1605Y71D01*
X0Y70D02*
X7Y70D01*
X1598Y70D02*
X1605Y70D01*
X0Y69D02*
X7Y69D01*
X1598Y69D02*
X1605Y69D01*
X0Y68D02*
X7Y68D01*
X1598Y68D02*
X1605Y68D01*
X0Y67D02*
X7Y67D01*
X1598Y67D02*
X1605Y67D01*
X0Y66D02*
X7Y66D01*
X1598Y66D02*
X1605Y66D01*
X0Y65D02*
X7Y65D01*
X1598Y65D02*
X1605Y65D01*
X0Y64D02*
X7Y64D01*
X1598Y64D02*
X1605Y64D01*
X0Y63D02*
X7Y63D01*
X1598Y63D02*
X1605Y63D01*
X0Y62D02*
X7Y62D01*
X1598Y62D02*
X1605Y62D01*
X0Y61D02*
X7Y61D01*
X1598Y61D02*
X1605Y61D01*
X0Y60D02*
X7Y60D01*
X1598Y60D02*
X1605Y60D01*
X0Y59D02*
X7Y59D01*
X1598Y59D02*
X1605Y59D01*
X0Y58D02*
X7Y58D01*
X1598Y58D02*
X1605Y58D01*
X0Y57D02*
X7Y57D01*
X1598Y57D02*
X1605Y57D01*
X0Y56D02*
X7Y56D01*
X1598Y56D02*
X1605Y56D01*
X0Y55D02*
X7Y55D01*
X1598Y55D02*
X1605Y55D01*
X0Y54D02*
X7Y54D01*
X1598Y54D02*
X1605Y54D01*
X0Y53D02*
X7Y53D01*
X1598Y53D02*
X1605Y53D01*
X0Y52D02*
X7Y52D01*
X1598Y52D02*
X1605Y52D01*
X0Y51D02*
X7Y51D01*
X1598Y51D02*
X1605Y51D01*
X0Y50D02*
X7Y50D01*
X1598Y50D02*
X1605Y50D01*
X0Y49D02*
X7Y49D01*
X1598Y49D02*
X1605Y49D01*
X0Y48D02*
X7Y48D01*
X1598Y48D02*
X1605Y48D01*
X0Y47D02*
X7Y47D01*
X1598Y47D02*
X1605Y47D01*
X0Y46D02*
X7Y46D01*
X1598Y46D02*
X1605Y46D01*
X0Y45D02*
X7Y45D01*
X1598Y45D02*
X1605Y45D01*
X0Y44D02*
X7Y44D01*
X1598Y44D02*
X1605Y44D01*
X0Y43D02*
X7Y43D01*
X1598Y43D02*
X1605Y43D01*
X0Y42D02*
X7Y42D01*
X1598Y42D02*
X1605Y42D01*
X0Y41D02*
X7Y41D01*
X1598Y41D02*
X1605Y41D01*
X0Y40D02*
X7Y40D01*
X1598Y40D02*
X1605Y40D01*
X0Y39D02*
X7Y39D01*
X1598Y39D02*
X1605Y39D01*
X0Y38D02*
X7Y38D01*
X1598Y38D02*
X1605Y38D01*
X0Y37D02*
X7Y37D01*
X1598Y37D02*
X1605Y37D01*
X0Y36D02*
X7Y36D01*
X1598Y36D02*
X1605Y36D01*
X0Y35D02*
X7Y35D01*
X1598Y35D02*
X1605Y35D01*
X0Y34D02*
X7Y34D01*
X1598Y34D02*
X1605Y34D01*
X0Y33D02*
X7Y33D01*
X1598Y33D02*
X1605Y33D01*
X0Y32D02*
X7Y32D01*
X1598Y32D02*
X1605Y32D01*
X0Y31D02*
X7Y31D01*
X1598Y31D02*
X1605Y31D01*
X0Y30D02*
X7Y30D01*
X1598Y30D02*
X1605Y30D01*
X0Y29D02*
X7Y29D01*
X1598Y29D02*
X1605Y29D01*
X0Y28D02*
X7Y28D01*
X1598Y28D02*
X1605Y28D01*
X0Y27D02*
X7Y27D01*
X1598Y27D02*
X1605Y27D01*
X0Y26D02*
X7Y26D01*
X1598Y26D02*
X1605Y26D01*
X0Y25D02*
X7Y25D01*
X1598Y25D02*
X1605Y25D01*
X0Y24D02*
X7Y24D01*
X1598Y24D02*
X1605Y24D01*
X0Y23D02*
X7Y23D01*
X1598Y23D02*
X1605Y23D01*
X0Y22D02*
X7Y22D01*
X1598Y22D02*
X1605Y22D01*
X0Y21D02*
X7Y21D01*
X1598Y21D02*
X1605Y21D01*
X0Y20D02*
X7Y20D01*
X1598Y20D02*
X1605Y20D01*
X0Y19D02*
X7Y19D01*
X1598Y19D02*
X1605Y19D01*
X0Y18D02*
X7Y18D01*
X1598Y18D02*
X1605Y18D01*
X0Y17D02*
X7Y17D01*
X1598Y17D02*
X1605Y17D01*
X0Y16D02*
X7Y16D01*
X1598Y16D02*
X1605Y16D01*
X0Y15D02*
X7Y15D01*
X1598Y15D02*
X1605Y15D01*
X0Y14D02*
X7Y14D01*
X1598Y14D02*
X1605Y14D01*
X0Y13D02*
X7Y13D01*
X1598Y13D02*
X1605Y13D01*
X0Y12D02*
X7Y12D01*
X1598Y12D02*
X1605Y12D01*
X0Y11D02*
X7Y11D01*
X1598Y11D02*
X1605Y11D01*
X0Y10D02*
X7Y10D01*
X1598Y10D02*
X1605Y10D01*
X0Y9D02*
X7Y9D01*
X1598Y9D02*
X1605Y9D01*
X0Y8D02*
X1605Y8D01*
X0Y7D02*
X1605Y7D01*
X0Y6D02*
X1605Y6D01*
X0Y5D02*
X1605Y5D01*
X0Y4D02*
X1605Y4D01*
X0Y3D02*
X1605Y3D01*
X0Y2D02*
X1605Y2D01*
X0Y1D02*
X1605Y1D01*
D02*
G04 End of Silk1*
M02*