G04 MADE WITH FRITZING*
G04 WWW.FRITZING.ORG*
G04 DOUBLE SIDED*
G04 HOLES PLATED*
G04 CONTOUR ON CENTER OF CONTOUR VECTOR*
%ASAXBY*%
%FSLAX23Y23*%
%MOIN*%
%OFA0B0*%
%SFA1.0B1.0*%
%ADD10C,0.078740*%
%ADD11C,0.074000*%
%ADD12C,0.062992*%
%ADD13C,0.075000*%
%ADD14C,0.079134*%
%ADD15R,0.062992X0.062992*%
%ADD16C,0.024000*%
%ADD17R,0.001000X0.001000*%
%LNCOPPER1*%
G90*
G70*
G54D10*
X931Y107D03*
X431Y407D03*
X731Y707D03*
X631Y307D03*
X1031Y507D03*
G54D11*
X231Y607D03*
X221Y507D03*
X231Y407D03*
X231Y607D03*
X221Y507D03*
X231Y407D03*
G54D12*
X431Y109D03*
X431Y207D03*
G54D13*
X1231Y307D03*
X831Y307D03*
G54D14*
X1531Y707D03*
X1531Y607D03*
X1531Y507D03*
X1531Y407D03*
X1531Y307D03*
X1531Y207D03*
G54D15*
X431Y109D03*
G54D16*
X1500Y707D02*
X762Y707D01*
D02*
X431Y607D02*
X431Y438D01*
D02*
X1500Y507D02*
X1062Y507D01*
D02*
X831Y607D02*
X431Y607D01*
D02*
X1500Y607D02*
X831Y607D01*
D02*
X662Y307D02*
X802Y307D01*
D02*
X1531Y107D02*
X1531Y177D01*
D02*
X962Y107D02*
X1531Y107D01*
D02*
X1500Y307D02*
X1260Y307D01*
G54D17*
X454Y876D02*
X460Y876D01*
X453Y875D02*
X461Y875D01*
X453Y874D02*
X461Y874D01*
X60Y873D02*
X62Y873D01*
X173Y873D02*
X175Y873D01*
X394Y873D02*
X396Y873D01*
X452Y873D02*
X462Y873D01*
X593Y873D02*
X595Y873D01*
X59Y872D02*
X63Y872D01*
X172Y872D02*
X176Y872D01*
X393Y872D02*
X398Y872D01*
X452Y872D02*
X462Y872D01*
X592Y872D02*
X596Y872D01*
X58Y871D02*
X64Y871D01*
X171Y871D02*
X177Y871D01*
X393Y871D02*
X398Y871D01*
X452Y871D02*
X462Y871D01*
X591Y871D02*
X597Y871D01*
X1358Y871D02*
X1363Y871D01*
X58Y870D02*
X64Y870D01*
X171Y870D02*
X177Y870D01*
X392Y870D02*
X398Y870D01*
X452Y870D02*
X462Y870D01*
X591Y870D02*
X597Y870D01*
X1357Y870D02*
X1364Y870D01*
X58Y869D02*
X64Y869D01*
X171Y869D02*
X177Y869D01*
X392Y869D02*
X398Y869D01*
X453Y869D02*
X462Y869D01*
X591Y869D02*
X597Y869D01*
X776Y869D02*
X791Y869D01*
X1020Y869D02*
X1020Y869D01*
X1043Y869D02*
X1043Y869D01*
X1225Y869D02*
X1230Y869D01*
X1246Y869D02*
X1252Y869D01*
X1357Y869D02*
X1364Y869D01*
X57Y868D02*
X65Y868D01*
X171Y868D02*
X177Y868D01*
X392Y868D02*
X398Y868D01*
X453Y868D02*
X461Y868D01*
X591Y868D02*
X597Y868D01*
X773Y868D02*
X794Y868D01*
X1019Y868D02*
X1022Y868D01*
X1041Y868D02*
X1045Y868D01*
X1224Y868D02*
X1231Y868D01*
X1245Y868D02*
X1252Y868D01*
X1357Y868D02*
X1364Y868D01*
X57Y867D02*
X65Y867D01*
X171Y867D02*
X177Y867D01*
X392Y867D02*
X398Y867D01*
X454Y867D02*
X460Y867D01*
X591Y867D02*
X597Y867D01*
X772Y867D02*
X795Y867D01*
X1018Y867D02*
X1023Y867D01*
X1041Y867D02*
X1045Y867D01*
X1224Y867D02*
X1232Y867D01*
X1244Y867D02*
X1252Y867D01*
X1357Y867D02*
X1364Y867D01*
X57Y866D02*
X65Y866D01*
X171Y866D02*
X177Y866D01*
X392Y866D02*
X398Y866D01*
X591Y866D02*
X597Y866D01*
X771Y866D02*
X796Y866D01*
X942Y866D02*
X945Y866D01*
X1018Y866D02*
X1023Y866D01*
X1041Y866D02*
X1045Y866D01*
X1224Y866D02*
X1233Y866D01*
X1243Y866D02*
X1252Y866D01*
X1357Y866D02*
X1364Y866D01*
X1396Y866D02*
X1399Y866D01*
X56Y865D02*
X66Y865D01*
X171Y865D02*
X177Y865D01*
X392Y865D02*
X398Y865D01*
X591Y865D02*
X597Y865D01*
X771Y865D02*
X797Y865D01*
X941Y865D02*
X946Y865D01*
X1018Y865D02*
X1023Y865D01*
X1041Y865D02*
X1045Y865D01*
X1224Y865D02*
X1234Y865D01*
X1243Y865D02*
X1252Y865D01*
X1357Y865D02*
X1364Y865D01*
X1396Y865D02*
X1400Y865D01*
X56Y864D02*
X66Y864D01*
X171Y864D02*
X177Y864D01*
X392Y864D02*
X398Y864D01*
X591Y864D02*
X597Y864D01*
X770Y864D02*
X797Y864D01*
X941Y864D02*
X946Y864D01*
X1018Y864D02*
X1023Y864D01*
X1041Y864D02*
X1045Y864D01*
X1224Y864D02*
X1234Y864D01*
X1242Y864D02*
X1252Y864D01*
X1358Y864D02*
X1363Y864D01*
X1395Y864D02*
X1400Y864D01*
X56Y863D02*
X66Y863D01*
X171Y863D02*
X177Y863D01*
X392Y863D02*
X398Y863D01*
X591Y863D02*
X597Y863D01*
X770Y863D02*
X775Y863D01*
X792Y863D02*
X798Y863D01*
X941Y863D02*
X946Y863D01*
X1018Y863D02*
X1023Y863D01*
X1041Y863D02*
X1045Y863D01*
X1224Y863D02*
X1235Y863D01*
X1241Y863D02*
X1252Y863D01*
X1395Y863D02*
X1400Y863D01*
X56Y862D02*
X66Y862D01*
X171Y862D02*
X177Y862D01*
X392Y862D02*
X398Y862D01*
X591Y862D02*
X597Y862D01*
X770Y862D02*
X775Y862D01*
X793Y862D02*
X798Y862D01*
X941Y862D02*
X946Y862D01*
X1018Y862D02*
X1023Y862D01*
X1041Y862D02*
X1045Y862D01*
X1224Y862D02*
X1236Y862D01*
X1241Y862D02*
X1252Y862D01*
X1395Y862D02*
X1400Y862D01*
X55Y861D02*
X67Y861D01*
X171Y861D02*
X177Y861D01*
X392Y861D02*
X398Y861D01*
X591Y861D02*
X597Y861D01*
X771Y861D02*
X776Y861D01*
X793Y861D02*
X798Y861D01*
X941Y861D02*
X946Y861D01*
X1018Y861D02*
X1023Y861D01*
X1041Y861D02*
X1045Y861D01*
X1224Y861D02*
X1236Y861D01*
X1240Y861D02*
X1252Y861D01*
X1395Y861D02*
X1400Y861D01*
X55Y860D02*
X67Y860D01*
X171Y860D02*
X177Y860D01*
X392Y860D02*
X398Y860D01*
X591Y860D02*
X597Y860D01*
X771Y860D02*
X777Y860D01*
X793Y860D02*
X797Y860D01*
X941Y860D02*
X946Y860D01*
X1018Y860D02*
X1023Y860D01*
X1041Y860D02*
X1045Y860D01*
X1224Y860D02*
X1229Y860D01*
X1231Y860D02*
X1237Y860D01*
X1239Y860D02*
X1245Y860D01*
X1247Y860D02*
X1252Y860D01*
X1395Y860D02*
X1400Y860D01*
X55Y859D02*
X67Y859D01*
X171Y859D02*
X177Y859D01*
X392Y859D02*
X398Y859D01*
X591Y859D02*
X597Y859D01*
X771Y859D02*
X778Y859D01*
X794Y859D02*
X796Y859D01*
X941Y859D02*
X946Y859D01*
X1018Y859D02*
X1023Y859D01*
X1041Y859D02*
X1045Y859D01*
X1224Y859D02*
X1229Y859D01*
X1232Y859D02*
X1245Y859D01*
X1247Y859D02*
X1252Y859D01*
X1395Y859D02*
X1400Y859D01*
X54Y858D02*
X68Y858D01*
X95Y858D02*
X99Y858D01*
X109Y858D02*
X120Y858D01*
X153Y858D02*
X165Y858D01*
X171Y858D02*
X177Y858D01*
X195Y858D02*
X198Y858D01*
X208Y858D02*
X221Y858D01*
X252Y858D02*
X268Y858D01*
X294Y858D02*
X297Y858D01*
X322Y858D02*
X326Y858D01*
X392Y858D02*
X398Y858D01*
X447Y858D02*
X460Y858D01*
X500Y858D02*
X518Y858D01*
X543Y858D02*
X546Y858D01*
X570Y858D02*
X574Y858D01*
X591Y858D02*
X597Y858D01*
X604Y858D02*
X616Y858D01*
X649Y858D02*
X667Y858D01*
X772Y858D02*
X778Y858D01*
X941Y858D02*
X946Y858D01*
X1018Y858D02*
X1023Y858D01*
X1041Y858D02*
X1045Y858D01*
X1224Y858D02*
X1229Y858D01*
X1232Y858D02*
X1244Y858D01*
X1247Y858D02*
X1252Y858D01*
X1395Y858D02*
X1400Y858D01*
X54Y857D02*
X68Y857D01*
X95Y857D02*
X100Y857D01*
X107Y857D02*
X122Y857D01*
X151Y857D02*
X167Y857D01*
X171Y857D02*
X177Y857D01*
X194Y857D02*
X199Y857D01*
X207Y857D02*
X222Y857D01*
X250Y857D02*
X270Y857D01*
X293Y857D02*
X298Y857D01*
X321Y857D02*
X326Y857D01*
X392Y857D02*
X398Y857D01*
X446Y857D02*
X461Y857D01*
X499Y857D02*
X520Y857D01*
X542Y857D02*
X547Y857D01*
X569Y857D02*
X574Y857D01*
X591Y857D02*
X597Y857D01*
X602Y857D02*
X618Y857D01*
X648Y857D02*
X669Y857D01*
X773Y857D02*
X779Y857D01*
X941Y857D02*
X946Y857D01*
X1018Y857D02*
X1023Y857D01*
X1041Y857D02*
X1045Y857D01*
X1224Y857D02*
X1229Y857D01*
X1233Y857D02*
X1243Y857D01*
X1247Y857D02*
X1252Y857D01*
X1395Y857D02*
X1400Y857D01*
X54Y856D02*
X60Y856D01*
X62Y856D02*
X68Y856D01*
X94Y856D02*
X100Y856D01*
X106Y856D02*
X123Y856D01*
X149Y856D02*
X168Y856D01*
X171Y856D02*
X177Y856D01*
X194Y856D02*
X199Y856D01*
X206Y856D02*
X224Y856D01*
X249Y856D02*
X271Y856D01*
X292Y856D02*
X298Y856D01*
X321Y856D02*
X327Y856D01*
X392Y856D02*
X398Y856D01*
X446Y856D02*
X462Y856D01*
X499Y856D02*
X521Y856D01*
X542Y856D02*
X547Y856D01*
X569Y856D02*
X575Y856D01*
X591Y856D02*
X597Y856D01*
X600Y856D02*
X619Y856D01*
X648Y856D02*
X670Y856D01*
X774Y856D02*
X780Y856D01*
X812Y856D02*
X815Y856D01*
X818Y856D02*
X824Y856D01*
X830Y856D02*
X835Y856D01*
X859Y856D02*
X875Y856D01*
X895Y856D02*
X898Y856D01*
X906Y856D02*
X917Y856D01*
X936Y856D02*
X959Y856D01*
X1018Y856D02*
X1023Y856D01*
X1041Y856D02*
X1045Y856D01*
X1066Y856D02*
X1080Y856D01*
X1101Y856D02*
X1104Y856D01*
X1107Y856D02*
X1113Y856D01*
X1119Y856D02*
X1124Y856D01*
X1149Y856D02*
X1163Y856D01*
X1224Y856D02*
X1229Y856D01*
X1234Y856D02*
X1243Y856D01*
X1247Y856D02*
X1252Y856D01*
X1272Y856D02*
X1286Y856D01*
X1308Y856D02*
X1311Y856D01*
X1319Y856D02*
X1329Y856D01*
X1352Y856D02*
X1364Y856D01*
X1390Y856D02*
X1413Y856D01*
X1438Y856D02*
X1452Y856D01*
X1473Y856D02*
X1476Y856D01*
X1484Y856D02*
X1495Y856D01*
X54Y855D02*
X60Y855D01*
X62Y855D02*
X69Y855D01*
X94Y855D02*
X100Y855D01*
X104Y855D02*
X124Y855D01*
X148Y855D02*
X169Y855D01*
X171Y855D02*
X177Y855D01*
X194Y855D02*
X200Y855D01*
X205Y855D02*
X224Y855D01*
X248Y855D02*
X272Y855D01*
X292Y855D02*
X298Y855D01*
X321Y855D02*
X327Y855D01*
X392Y855D02*
X398Y855D01*
X446Y855D02*
X462Y855D01*
X499Y855D02*
X522Y855D01*
X542Y855D02*
X547Y855D01*
X569Y855D02*
X575Y855D01*
X591Y855D02*
X597Y855D01*
X599Y855D02*
X620Y855D01*
X648Y855D02*
X671Y855D01*
X774Y855D02*
X781Y855D01*
X811Y855D02*
X825Y855D01*
X828Y855D02*
X836Y855D01*
X859Y855D02*
X876Y855D01*
X894Y855D02*
X899Y855D01*
X905Y855D02*
X918Y855D01*
X936Y855D02*
X960Y855D01*
X1018Y855D02*
X1023Y855D01*
X1041Y855D02*
X1045Y855D01*
X1065Y855D02*
X1081Y855D01*
X1100Y855D02*
X1114Y855D01*
X1117Y855D02*
X1125Y855D01*
X1147Y855D02*
X1164Y855D01*
X1224Y855D02*
X1229Y855D01*
X1234Y855D02*
X1242Y855D01*
X1247Y855D02*
X1252Y855D01*
X1271Y855D02*
X1288Y855D01*
X1307Y855D02*
X1312Y855D01*
X1317Y855D02*
X1331Y855D01*
X1351Y855D02*
X1364Y855D01*
X1390Y855D02*
X1414Y855D01*
X1436Y855D02*
X1453Y855D01*
X1472Y855D02*
X1477Y855D01*
X1483Y855D02*
X1496Y855D01*
X53Y854D02*
X59Y854D01*
X63Y854D02*
X69Y854D01*
X94Y854D02*
X100Y854D01*
X103Y854D02*
X125Y854D01*
X147Y854D02*
X177Y854D01*
X194Y854D02*
X200Y854D01*
X204Y854D02*
X225Y854D01*
X247Y854D02*
X273Y854D01*
X292Y854D02*
X298Y854D01*
X321Y854D02*
X327Y854D01*
X392Y854D02*
X398Y854D01*
X446Y854D02*
X462Y854D01*
X499Y854D02*
X523Y854D01*
X542Y854D02*
X548Y854D01*
X569Y854D02*
X575Y854D01*
X591Y854D02*
X621Y854D01*
X648Y854D02*
X672Y854D01*
X775Y854D02*
X782Y854D01*
X811Y854D02*
X837Y854D01*
X859Y854D02*
X877Y854D01*
X894Y854D02*
X899Y854D01*
X904Y854D02*
X919Y854D01*
X935Y854D02*
X960Y854D01*
X1018Y854D02*
X1023Y854D01*
X1041Y854D02*
X1045Y854D01*
X1063Y854D02*
X1083Y854D01*
X1100Y854D02*
X1126Y854D01*
X1146Y854D02*
X1165Y854D01*
X1224Y854D02*
X1229Y854D01*
X1235Y854D02*
X1241Y854D01*
X1247Y854D02*
X1252Y854D01*
X1270Y854D02*
X1289Y854D01*
X1307Y854D02*
X1312Y854D01*
X1316Y854D02*
X1332Y854D01*
X1351Y854D02*
X1364Y854D01*
X1390Y854D02*
X1414Y854D01*
X1435Y854D02*
X1454Y854D01*
X1472Y854D02*
X1477Y854D01*
X1482Y854D02*
X1497Y854D01*
X53Y853D02*
X59Y853D01*
X63Y853D02*
X69Y853D01*
X94Y853D02*
X125Y853D01*
X146Y853D02*
X177Y853D01*
X194Y853D02*
X200Y853D01*
X203Y853D02*
X226Y853D01*
X246Y853D02*
X274Y853D01*
X292Y853D02*
X298Y853D01*
X321Y853D02*
X327Y853D01*
X392Y853D02*
X398Y853D01*
X447Y853D02*
X462Y853D01*
X500Y853D02*
X523Y853D01*
X542Y853D02*
X548Y853D01*
X569Y853D02*
X575Y853D01*
X591Y853D02*
X622Y853D01*
X649Y853D02*
X672Y853D01*
X776Y853D02*
X782Y853D01*
X811Y853D02*
X838Y853D01*
X859Y853D02*
X878Y853D01*
X894Y853D02*
X899Y853D01*
X903Y853D02*
X920Y853D01*
X936Y853D02*
X960Y853D01*
X1018Y853D02*
X1023Y853D01*
X1041Y853D02*
X1045Y853D01*
X1062Y853D02*
X1084Y853D01*
X1100Y853D02*
X1127Y853D01*
X1145Y853D02*
X1166Y853D01*
X1224Y853D02*
X1229Y853D01*
X1236Y853D02*
X1241Y853D01*
X1247Y853D02*
X1252Y853D01*
X1269Y853D02*
X1290Y853D01*
X1307Y853D02*
X1312Y853D01*
X1314Y853D02*
X1332Y853D01*
X1351Y853D02*
X1364Y853D01*
X1390Y853D02*
X1414Y853D01*
X1434Y853D02*
X1455Y853D01*
X1472Y853D02*
X1477Y853D01*
X1481Y853D02*
X1498Y853D01*
X53Y852D02*
X59Y852D01*
X63Y852D02*
X69Y852D01*
X94Y852D02*
X126Y852D01*
X146Y852D02*
X177Y852D01*
X194Y852D02*
X226Y852D01*
X245Y852D02*
X275Y852D01*
X292Y852D02*
X298Y852D01*
X321Y852D02*
X327Y852D01*
X392Y852D02*
X398Y852D01*
X449Y852D02*
X462Y852D01*
X502Y852D02*
X524Y852D01*
X542Y852D02*
X548Y852D01*
X569Y852D02*
X575Y852D01*
X591Y852D02*
X623Y852D01*
X651Y852D02*
X673Y852D01*
X777Y852D02*
X783Y852D01*
X811Y852D02*
X838Y852D01*
X859Y852D02*
X879Y852D01*
X894Y852D02*
X899Y852D01*
X901Y852D02*
X921Y852D01*
X936Y852D02*
X959Y852D01*
X1018Y852D02*
X1023Y852D01*
X1041Y852D02*
X1045Y852D01*
X1061Y852D02*
X1085Y852D01*
X1100Y852D02*
X1127Y852D01*
X1144Y852D02*
X1167Y852D01*
X1224Y852D02*
X1229Y852D01*
X1236Y852D02*
X1241Y852D01*
X1247Y852D02*
X1252Y852D01*
X1268Y852D02*
X1291Y852D01*
X1307Y852D02*
X1333Y852D01*
X1352Y852D02*
X1364Y852D01*
X1391Y852D02*
X1413Y852D01*
X1433Y852D02*
X1456Y852D01*
X1472Y852D02*
X1477Y852D01*
X1479Y852D02*
X1499Y852D01*
X52Y851D02*
X59Y851D01*
X63Y851D02*
X70Y851D01*
X94Y851D02*
X110Y851D01*
X119Y851D02*
X126Y851D01*
X145Y851D02*
X153Y851D01*
X164Y851D02*
X177Y851D01*
X194Y851D02*
X210Y851D01*
X220Y851D02*
X227Y851D01*
X244Y851D02*
X253Y851D01*
X267Y851D02*
X275Y851D01*
X292Y851D02*
X298Y851D01*
X321Y851D02*
X327Y851D01*
X392Y851D02*
X398Y851D01*
X456Y851D02*
X462Y851D01*
X517Y851D02*
X524Y851D01*
X542Y851D02*
X548Y851D01*
X569Y851D02*
X575Y851D01*
X591Y851D02*
X604Y851D01*
X615Y851D02*
X623Y851D01*
X666Y851D02*
X673Y851D01*
X777Y851D02*
X784Y851D01*
X811Y851D02*
X820Y851D01*
X822Y851D02*
X831Y851D01*
X833Y851D02*
X838Y851D01*
X873Y851D02*
X879Y851D01*
X894Y851D02*
X908Y851D01*
X915Y851D02*
X921Y851D01*
X941Y851D02*
X946Y851D01*
X1018Y851D02*
X1023Y851D01*
X1041Y851D02*
X1045Y851D01*
X1061Y851D02*
X1068Y851D01*
X1078Y851D02*
X1086Y851D01*
X1100Y851D02*
X1109Y851D01*
X1111Y851D02*
X1120Y851D01*
X1122Y851D02*
X1127Y851D01*
X1143Y851D02*
X1151Y851D01*
X1160Y851D02*
X1168Y851D01*
X1224Y851D02*
X1229Y851D01*
X1236Y851D02*
X1240Y851D01*
X1247Y851D02*
X1252Y851D01*
X1267Y851D02*
X1275Y851D01*
X1284Y851D02*
X1292Y851D01*
X1307Y851D02*
X1321Y851D01*
X1327Y851D02*
X1333Y851D01*
X1359Y851D02*
X1364Y851D01*
X1395Y851D02*
X1400Y851D01*
X1432Y851D02*
X1440Y851D01*
X1449Y851D02*
X1457Y851D01*
X1472Y851D02*
X1486Y851D01*
X1493Y851D02*
X1499Y851D01*
X52Y850D02*
X58Y850D01*
X64Y850D02*
X70Y850D01*
X94Y850D02*
X108Y850D01*
X120Y850D02*
X126Y850D01*
X145Y850D02*
X152Y850D01*
X165Y850D02*
X177Y850D01*
X194Y850D02*
X209Y850D01*
X220Y850D02*
X227Y850D01*
X244Y850D02*
X252Y850D01*
X269Y850D02*
X276Y850D01*
X292Y850D02*
X298Y850D01*
X321Y850D02*
X327Y850D01*
X392Y850D02*
X398Y850D01*
X456Y850D02*
X462Y850D01*
X518Y850D02*
X524Y850D01*
X542Y850D02*
X548Y850D01*
X569Y850D02*
X575Y850D01*
X591Y850D02*
X603Y850D01*
X616Y850D02*
X624Y850D01*
X667Y850D02*
X673Y850D01*
X778Y850D02*
X785Y850D01*
X811Y850D02*
X819Y850D01*
X823Y850D02*
X830Y850D01*
X834Y850D02*
X839Y850D01*
X874Y850D02*
X879Y850D01*
X894Y850D02*
X907Y850D01*
X916Y850D02*
X921Y850D01*
X941Y850D02*
X946Y850D01*
X1018Y850D02*
X1023Y850D01*
X1041Y850D02*
X1045Y850D01*
X1060Y850D02*
X1066Y850D01*
X1080Y850D02*
X1086Y850D01*
X1100Y850D02*
X1108Y850D01*
X1112Y850D02*
X1119Y850D01*
X1123Y850D02*
X1128Y850D01*
X1143Y850D02*
X1149Y850D01*
X1162Y850D02*
X1169Y850D01*
X1224Y850D02*
X1229Y850D01*
X1236Y850D02*
X1240Y850D01*
X1247Y850D02*
X1252Y850D01*
X1267Y850D02*
X1273Y850D01*
X1286Y850D02*
X1292Y850D01*
X1307Y850D02*
X1319Y850D01*
X1328Y850D02*
X1334Y850D01*
X1360Y850D02*
X1364Y850D01*
X1395Y850D02*
X1400Y850D01*
X1432Y850D02*
X1438Y850D01*
X1451Y850D02*
X1458Y850D01*
X1472Y850D02*
X1485Y850D01*
X1494Y850D02*
X1499Y850D01*
X52Y849D02*
X58Y849D01*
X64Y849D02*
X70Y849D01*
X94Y849D02*
X107Y849D01*
X120Y849D02*
X126Y849D01*
X144Y849D02*
X151Y849D01*
X166Y849D02*
X177Y849D01*
X194Y849D02*
X208Y849D01*
X221Y849D02*
X227Y849D01*
X244Y849D02*
X250Y849D01*
X269Y849D02*
X276Y849D01*
X292Y849D02*
X298Y849D01*
X321Y849D02*
X327Y849D01*
X392Y849D02*
X398Y849D01*
X456Y849D02*
X462Y849D01*
X518Y849D02*
X524Y849D01*
X542Y849D02*
X548Y849D01*
X569Y849D02*
X575Y849D01*
X591Y849D02*
X602Y849D01*
X617Y849D02*
X624Y849D01*
X667Y849D02*
X673Y849D01*
X779Y849D02*
X785Y849D01*
X811Y849D02*
X818Y849D01*
X823Y849D02*
X829Y849D01*
X834Y849D02*
X839Y849D01*
X875Y849D02*
X880Y849D01*
X894Y849D02*
X906Y849D01*
X917Y849D02*
X922Y849D01*
X941Y849D02*
X946Y849D01*
X1018Y849D02*
X1045Y849D01*
X1060Y849D02*
X1065Y849D01*
X1081Y849D02*
X1086Y849D01*
X1100Y849D02*
X1107Y849D01*
X1112Y849D02*
X1118Y849D01*
X1123Y849D02*
X1128Y849D01*
X1142Y849D02*
X1148Y849D01*
X1163Y849D02*
X1169Y849D01*
X1224Y849D02*
X1229Y849D01*
X1238Y849D02*
X1239Y849D01*
X1247Y849D02*
X1252Y849D01*
X1266Y849D02*
X1272Y849D01*
X1287Y849D02*
X1293Y849D01*
X1307Y849D02*
X1318Y849D01*
X1329Y849D02*
X1334Y849D01*
X1360Y849D02*
X1364Y849D01*
X1395Y849D02*
X1400Y849D01*
X1431Y849D02*
X1437Y849D01*
X1452Y849D02*
X1458Y849D01*
X1472Y849D02*
X1484Y849D01*
X1495Y849D02*
X1500Y849D01*
X51Y848D02*
X58Y848D01*
X64Y848D02*
X71Y848D01*
X94Y848D02*
X105Y848D01*
X121Y848D02*
X127Y848D01*
X144Y848D02*
X150Y848D01*
X168Y848D02*
X177Y848D01*
X194Y848D02*
X206Y848D01*
X221Y848D02*
X227Y848D01*
X243Y848D02*
X250Y848D01*
X270Y848D02*
X276Y848D01*
X292Y848D02*
X298Y848D01*
X321Y848D02*
X327Y848D01*
X392Y848D02*
X398Y848D01*
X456Y848D02*
X462Y848D01*
X518Y848D02*
X524Y848D01*
X542Y848D02*
X548Y848D01*
X569Y848D02*
X575Y848D01*
X591Y848D02*
X601Y848D01*
X618Y848D02*
X624Y848D01*
X667Y848D02*
X673Y848D01*
X780Y848D02*
X786Y848D01*
X811Y848D02*
X817Y848D01*
X823Y848D02*
X828Y848D01*
X834Y848D02*
X839Y848D01*
X875Y848D02*
X880Y848D01*
X894Y848D02*
X905Y848D01*
X917Y848D02*
X922Y848D01*
X941Y848D02*
X946Y848D01*
X1018Y848D02*
X1045Y848D01*
X1059Y848D02*
X1065Y848D01*
X1082Y848D02*
X1087Y848D01*
X1100Y848D02*
X1106Y848D01*
X1112Y848D02*
X1117Y848D01*
X1123Y848D02*
X1128Y848D01*
X1142Y848D02*
X1147Y848D01*
X1164Y848D02*
X1169Y848D01*
X1224Y848D02*
X1229Y848D01*
X1247Y848D02*
X1252Y848D01*
X1266Y848D02*
X1271Y848D01*
X1288Y848D02*
X1293Y848D01*
X1307Y848D02*
X1316Y848D01*
X1329Y848D02*
X1334Y848D01*
X1360Y848D02*
X1364Y848D01*
X1395Y848D02*
X1400Y848D01*
X1431Y848D02*
X1436Y848D01*
X1453Y848D02*
X1458Y848D01*
X1472Y848D02*
X1483Y848D01*
X1495Y848D02*
X1500Y848D01*
X51Y847D02*
X57Y847D01*
X65Y847D02*
X71Y847D01*
X94Y847D02*
X104Y847D01*
X121Y847D02*
X127Y847D01*
X144Y847D02*
X150Y847D01*
X169Y847D02*
X177Y847D01*
X194Y847D02*
X205Y847D01*
X221Y847D02*
X227Y847D01*
X243Y847D02*
X249Y847D01*
X271Y847D02*
X276Y847D01*
X293Y847D02*
X298Y847D01*
X309Y847D02*
X310Y847D01*
X321Y847D02*
X327Y847D01*
X392Y847D02*
X398Y847D01*
X456Y847D02*
X462Y847D01*
X518Y847D02*
X524Y847D01*
X542Y847D02*
X548Y847D01*
X569Y847D02*
X575Y847D01*
X591Y847D02*
X600Y847D01*
X619Y847D02*
X624Y847D01*
X667Y847D02*
X673Y847D01*
X781Y847D02*
X787Y847D01*
X811Y847D02*
X816Y847D01*
X823Y847D02*
X828Y847D01*
X834Y847D02*
X839Y847D01*
X875Y847D02*
X880Y847D01*
X894Y847D02*
X904Y847D01*
X917Y847D02*
X922Y847D01*
X941Y847D02*
X946Y847D01*
X1018Y847D02*
X1045Y847D01*
X1059Y847D02*
X1064Y847D01*
X1082Y847D02*
X1087Y847D01*
X1100Y847D02*
X1105Y847D01*
X1112Y847D02*
X1117Y847D01*
X1123Y847D02*
X1128Y847D01*
X1142Y847D02*
X1147Y847D01*
X1164Y847D02*
X1169Y847D01*
X1224Y847D02*
X1229Y847D01*
X1247Y847D02*
X1252Y847D01*
X1266Y847D02*
X1271Y847D01*
X1288Y847D02*
X1293Y847D01*
X1307Y847D02*
X1315Y847D01*
X1329Y847D02*
X1334Y847D01*
X1360Y847D02*
X1364Y847D01*
X1395Y847D02*
X1400Y847D01*
X1431Y847D02*
X1436Y847D01*
X1453Y847D02*
X1458Y847D01*
X1472Y847D02*
X1482Y847D01*
X1495Y847D02*
X1500Y847D01*
X51Y846D02*
X57Y846D01*
X65Y846D02*
X71Y846D01*
X94Y846D02*
X102Y846D01*
X121Y846D02*
X127Y846D01*
X144Y846D02*
X150Y846D01*
X170Y846D02*
X177Y846D01*
X194Y846D02*
X204Y846D01*
X221Y846D02*
X227Y846D01*
X243Y846D02*
X249Y846D01*
X271Y846D02*
X277Y846D01*
X293Y846D02*
X299Y846D01*
X308Y846D02*
X312Y846D01*
X321Y846D02*
X327Y846D01*
X392Y846D02*
X398Y846D01*
X456Y846D02*
X462Y846D01*
X518Y846D02*
X524Y846D01*
X542Y846D02*
X548Y846D01*
X569Y846D02*
X575Y846D01*
X591Y846D02*
X598Y846D01*
X619Y846D02*
X625Y846D01*
X667Y846D02*
X673Y846D01*
X781Y846D02*
X788Y846D01*
X811Y846D02*
X816Y846D01*
X823Y846D02*
X828Y846D01*
X834Y846D02*
X839Y846D01*
X875Y846D02*
X880Y846D01*
X894Y846D02*
X902Y846D01*
X917Y846D02*
X921Y846D01*
X941Y846D02*
X946Y846D01*
X1018Y846D02*
X1045Y846D01*
X1059Y846D02*
X1064Y846D01*
X1082Y846D02*
X1087Y846D01*
X1100Y846D02*
X1105Y846D01*
X1112Y846D02*
X1117Y846D01*
X1123Y846D02*
X1128Y846D01*
X1142Y846D02*
X1147Y846D01*
X1165Y846D02*
X1169Y846D01*
X1224Y846D02*
X1229Y846D01*
X1247Y846D02*
X1252Y846D01*
X1266Y846D02*
X1271Y846D01*
X1288Y846D02*
X1293Y846D01*
X1307Y846D02*
X1313Y846D01*
X1329Y846D02*
X1334Y846D01*
X1360Y846D02*
X1364Y846D01*
X1395Y846D02*
X1400Y846D01*
X1431Y846D02*
X1436Y846D01*
X1454Y846D02*
X1458Y846D01*
X1472Y846D02*
X1480Y846D01*
X1495Y846D02*
X1499Y846D01*
X51Y845D02*
X57Y845D01*
X65Y845D02*
X71Y845D01*
X94Y845D02*
X101Y845D01*
X121Y845D02*
X127Y845D01*
X144Y845D02*
X150Y845D01*
X171Y845D02*
X177Y845D01*
X194Y845D02*
X203Y845D01*
X221Y845D02*
X226Y845D01*
X243Y845D02*
X249Y845D01*
X271Y845D02*
X277Y845D01*
X293Y845D02*
X299Y845D01*
X307Y845D02*
X312Y845D01*
X321Y845D02*
X327Y845D01*
X392Y845D02*
X398Y845D01*
X456Y845D02*
X462Y845D01*
X518Y845D02*
X524Y845D01*
X542Y845D02*
X548Y845D01*
X569Y845D02*
X575Y845D01*
X591Y845D02*
X598Y845D01*
X619Y845D02*
X625Y845D01*
X668Y845D02*
X673Y845D01*
X782Y845D02*
X789Y845D01*
X811Y845D02*
X816Y845D01*
X823Y845D02*
X828Y845D01*
X834Y845D02*
X839Y845D01*
X875Y845D02*
X880Y845D01*
X894Y845D02*
X901Y845D01*
X918Y845D02*
X921Y845D01*
X941Y845D02*
X946Y845D01*
X1018Y845D02*
X1045Y845D01*
X1059Y845D02*
X1064Y845D01*
X1082Y845D02*
X1087Y845D01*
X1100Y845D02*
X1105Y845D01*
X1112Y845D02*
X1117Y845D01*
X1123Y845D02*
X1128Y845D01*
X1142Y845D02*
X1147Y845D01*
X1165Y845D02*
X1169Y845D01*
X1224Y845D02*
X1229Y845D01*
X1247Y845D02*
X1252Y845D01*
X1266Y845D02*
X1271Y845D01*
X1288Y845D02*
X1293Y845D01*
X1307Y845D02*
X1312Y845D01*
X1329Y845D02*
X1334Y845D01*
X1360Y845D02*
X1364Y845D01*
X1395Y845D02*
X1400Y845D01*
X1431Y845D02*
X1436Y845D01*
X1454Y845D02*
X1458Y845D01*
X1472Y845D02*
X1479Y845D01*
X1496Y845D02*
X1499Y845D01*
X50Y844D02*
X57Y844D01*
X65Y844D02*
X72Y844D01*
X94Y844D02*
X100Y844D01*
X121Y844D02*
X127Y844D01*
X144Y844D02*
X150Y844D01*
X171Y844D02*
X177Y844D01*
X194Y844D02*
X202Y844D01*
X222Y844D02*
X225Y844D01*
X243Y844D02*
X249Y844D01*
X271Y844D02*
X277Y844D01*
X293Y844D02*
X299Y844D01*
X307Y844D02*
X313Y844D01*
X321Y844D02*
X327Y844D01*
X392Y844D02*
X398Y844D01*
X456Y844D02*
X462Y844D01*
X500Y844D02*
X524Y844D01*
X542Y844D02*
X548Y844D01*
X569Y844D02*
X575Y844D01*
X591Y844D02*
X597Y844D01*
X619Y844D02*
X625Y844D01*
X649Y844D02*
X674Y844D01*
X783Y844D02*
X789Y844D01*
X811Y844D02*
X816Y844D01*
X823Y844D02*
X828Y844D01*
X834Y844D02*
X839Y844D01*
X858Y844D02*
X880Y844D01*
X894Y844D02*
X900Y844D01*
X919Y844D02*
X919Y844D01*
X941Y844D02*
X946Y844D01*
X1018Y844D02*
X1045Y844D01*
X1059Y844D02*
X1064Y844D01*
X1082Y844D02*
X1087Y844D01*
X1100Y844D02*
X1105Y844D01*
X1112Y844D02*
X1117Y844D01*
X1123Y844D02*
X1128Y844D01*
X1142Y844D02*
X1147Y844D01*
X1165Y844D02*
X1169Y844D01*
X1224Y844D02*
X1229Y844D01*
X1247Y844D02*
X1252Y844D01*
X1266Y844D02*
X1271Y844D01*
X1288Y844D02*
X1293Y844D01*
X1307Y844D02*
X1312Y844D01*
X1329Y844D02*
X1334Y844D01*
X1360Y844D02*
X1364Y844D01*
X1395Y844D02*
X1400Y844D01*
X1431Y844D02*
X1436Y844D01*
X1454Y844D02*
X1458Y844D01*
X1472Y844D02*
X1478Y844D01*
X1497Y844D02*
X1497Y844D01*
X50Y843D02*
X56Y843D01*
X66Y843D02*
X72Y843D01*
X94Y843D02*
X100Y843D01*
X121Y843D02*
X127Y843D01*
X144Y843D02*
X150Y843D01*
X171Y843D02*
X177Y843D01*
X194Y843D02*
X201Y843D01*
X243Y843D02*
X249Y843D01*
X271Y843D02*
X277Y843D01*
X293Y843D02*
X299Y843D01*
X307Y843D02*
X313Y843D01*
X321Y843D02*
X327Y843D01*
X392Y843D02*
X398Y843D01*
X456Y843D02*
X462Y843D01*
X497Y843D02*
X524Y843D01*
X542Y843D02*
X548Y843D01*
X569Y843D02*
X575Y843D01*
X591Y843D02*
X597Y843D01*
X619Y843D02*
X625Y843D01*
X646Y843D02*
X674Y843D01*
X784Y843D02*
X790Y843D01*
X811Y843D02*
X816Y843D01*
X823Y843D02*
X828Y843D01*
X834Y843D02*
X839Y843D01*
X856Y843D02*
X880Y843D01*
X894Y843D02*
X899Y843D01*
X941Y843D02*
X946Y843D01*
X1018Y843D02*
X1023Y843D01*
X1041Y843D02*
X1045Y843D01*
X1059Y843D02*
X1064Y843D01*
X1082Y843D02*
X1087Y843D01*
X1100Y843D02*
X1105Y843D01*
X1112Y843D02*
X1117Y843D01*
X1123Y843D02*
X1128Y843D01*
X1142Y843D02*
X1147Y843D01*
X1165Y843D02*
X1169Y843D01*
X1224Y843D02*
X1229Y843D01*
X1247Y843D02*
X1252Y843D01*
X1266Y843D02*
X1271Y843D01*
X1288Y843D02*
X1293Y843D01*
X1307Y843D02*
X1312Y843D01*
X1329Y843D02*
X1334Y843D01*
X1360Y843D02*
X1364Y843D01*
X1395Y843D02*
X1400Y843D01*
X1431Y843D02*
X1436Y843D01*
X1454Y843D02*
X1458Y843D01*
X1472Y843D02*
X1477Y843D01*
X50Y842D02*
X56Y842D01*
X66Y842D02*
X72Y842D01*
X94Y842D02*
X100Y842D01*
X121Y842D02*
X127Y842D01*
X144Y842D02*
X150Y842D01*
X171Y842D02*
X177Y842D01*
X194Y842D02*
X200Y842D01*
X243Y842D02*
X249Y842D01*
X271Y842D02*
X277Y842D01*
X293Y842D02*
X299Y842D01*
X307Y842D02*
X313Y842D01*
X321Y842D02*
X326Y842D01*
X392Y842D02*
X398Y842D01*
X456Y842D02*
X462Y842D01*
X496Y842D02*
X524Y842D01*
X542Y842D02*
X548Y842D01*
X569Y842D02*
X575Y842D01*
X591Y842D02*
X597Y842D01*
X619Y842D02*
X625Y842D01*
X645Y842D02*
X674Y842D01*
X784Y842D02*
X791Y842D01*
X811Y842D02*
X816Y842D01*
X823Y842D02*
X828Y842D01*
X834Y842D02*
X839Y842D01*
X855Y842D02*
X880Y842D01*
X894Y842D02*
X899Y842D01*
X941Y842D02*
X946Y842D01*
X1018Y842D02*
X1023Y842D01*
X1041Y842D02*
X1045Y842D01*
X1059Y842D02*
X1064Y842D01*
X1082Y842D02*
X1087Y842D01*
X1100Y842D02*
X1105Y842D01*
X1112Y842D02*
X1117Y842D01*
X1123Y842D02*
X1128Y842D01*
X1142Y842D02*
X1169Y842D01*
X1224Y842D02*
X1229Y842D01*
X1247Y842D02*
X1252Y842D01*
X1266Y842D02*
X1271Y842D01*
X1288Y842D02*
X1293Y842D01*
X1307Y842D02*
X1312Y842D01*
X1329Y842D02*
X1334Y842D01*
X1360Y842D02*
X1364Y842D01*
X1395Y842D02*
X1400Y842D01*
X1431Y842D02*
X1436Y842D01*
X1454Y842D02*
X1458Y842D01*
X1472Y842D02*
X1477Y842D01*
X49Y841D02*
X56Y841D01*
X66Y841D02*
X73Y841D01*
X94Y841D02*
X100Y841D01*
X121Y841D02*
X127Y841D01*
X144Y841D02*
X150Y841D01*
X171Y841D02*
X177Y841D01*
X194Y841D02*
X200Y841D01*
X243Y841D02*
X277Y841D01*
X293Y841D02*
X299Y841D01*
X307Y841D02*
X313Y841D01*
X320Y841D02*
X326Y841D01*
X392Y841D02*
X398Y841D01*
X456Y841D02*
X462Y841D01*
X495Y841D02*
X524Y841D01*
X542Y841D02*
X548Y841D01*
X569Y841D02*
X575Y841D01*
X591Y841D02*
X597Y841D01*
X619Y841D02*
X625Y841D01*
X644Y841D02*
X674Y841D01*
X785Y841D02*
X792Y841D01*
X811Y841D02*
X816Y841D01*
X823Y841D02*
X828Y841D01*
X834Y841D02*
X839Y841D01*
X854Y841D02*
X880Y841D01*
X894Y841D02*
X899Y841D01*
X941Y841D02*
X946Y841D01*
X1018Y841D02*
X1023Y841D01*
X1041Y841D02*
X1045Y841D01*
X1059Y841D02*
X1064Y841D01*
X1082Y841D02*
X1087Y841D01*
X1100Y841D02*
X1105Y841D01*
X1112Y841D02*
X1117Y841D01*
X1123Y841D02*
X1128Y841D01*
X1142Y841D02*
X1169Y841D01*
X1224Y841D02*
X1229Y841D01*
X1247Y841D02*
X1252Y841D01*
X1266Y841D02*
X1271Y841D01*
X1288Y841D02*
X1293Y841D01*
X1307Y841D02*
X1312Y841D01*
X1329Y841D02*
X1334Y841D01*
X1360Y841D02*
X1364Y841D01*
X1395Y841D02*
X1400Y841D01*
X1431Y841D02*
X1436Y841D01*
X1454Y841D02*
X1458Y841D01*
X1472Y841D02*
X1477Y841D01*
X49Y840D02*
X55Y840D01*
X67Y840D02*
X73Y840D01*
X94Y840D02*
X100Y840D01*
X121Y840D02*
X127Y840D01*
X144Y840D02*
X150Y840D01*
X171Y840D02*
X177Y840D01*
X194Y840D02*
X200Y840D01*
X243Y840D02*
X277Y840D01*
X293Y840D02*
X299Y840D01*
X307Y840D02*
X313Y840D01*
X320Y840D02*
X326Y840D01*
X392Y840D02*
X398Y840D01*
X456Y840D02*
X462Y840D01*
X494Y840D02*
X525Y840D01*
X542Y840D02*
X548Y840D01*
X569Y840D02*
X575Y840D01*
X591Y840D02*
X597Y840D01*
X619Y840D02*
X625Y840D01*
X643Y840D02*
X674Y840D01*
X786Y840D02*
X792Y840D01*
X811Y840D02*
X816Y840D01*
X823Y840D02*
X828Y840D01*
X834Y840D02*
X839Y840D01*
X854Y840D02*
X880Y840D01*
X894Y840D02*
X899Y840D01*
X941Y840D02*
X946Y840D01*
X1018Y840D02*
X1023Y840D01*
X1041Y840D02*
X1045Y840D01*
X1059Y840D02*
X1064Y840D01*
X1082Y840D02*
X1087Y840D01*
X1100Y840D02*
X1105Y840D01*
X1112Y840D02*
X1117Y840D01*
X1123Y840D02*
X1128Y840D01*
X1142Y840D02*
X1169Y840D01*
X1224Y840D02*
X1229Y840D01*
X1247Y840D02*
X1252Y840D01*
X1266Y840D02*
X1271Y840D01*
X1288Y840D02*
X1293Y840D01*
X1307Y840D02*
X1312Y840D01*
X1329Y840D02*
X1334Y840D01*
X1360Y840D02*
X1364Y840D01*
X1395Y840D02*
X1400Y840D01*
X1431Y840D02*
X1436Y840D01*
X1454Y840D02*
X1458Y840D01*
X1472Y840D02*
X1477Y840D01*
X49Y839D02*
X55Y839D01*
X67Y839D02*
X73Y839D01*
X94Y839D02*
X100Y839D01*
X121Y839D02*
X127Y839D01*
X144Y839D02*
X150Y839D01*
X171Y839D02*
X177Y839D01*
X194Y839D02*
X200Y839D01*
X243Y839D02*
X277Y839D01*
X293Y839D02*
X299Y839D01*
X307Y839D02*
X313Y839D01*
X320Y839D02*
X326Y839D01*
X392Y839D02*
X398Y839D01*
X456Y839D02*
X462Y839D01*
X493Y839D02*
X525Y839D01*
X542Y839D02*
X548Y839D01*
X569Y839D02*
X575Y839D01*
X591Y839D02*
X597Y839D01*
X619Y839D02*
X625Y839D01*
X642Y839D02*
X674Y839D01*
X787Y839D02*
X793Y839D01*
X811Y839D02*
X816Y839D01*
X823Y839D02*
X828Y839D01*
X834Y839D02*
X839Y839D01*
X853Y839D02*
X860Y839D01*
X873Y839D02*
X880Y839D01*
X894Y839D02*
X899Y839D01*
X941Y839D02*
X946Y839D01*
X1018Y839D02*
X1023Y839D01*
X1041Y839D02*
X1045Y839D01*
X1059Y839D02*
X1064Y839D01*
X1082Y839D02*
X1087Y839D01*
X1100Y839D02*
X1105Y839D01*
X1112Y839D02*
X1117Y839D01*
X1123Y839D02*
X1128Y839D01*
X1142Y839D02*
X1169Y839D01*
X1224Y839D02*
X1229Y839D01*
X1247Y839D02*
X1252Y839D01*
X1266Y839D02*
X1271Y839D01*
X1288Y839D02*
X1293Y839D01*
X1307Y839D02*
X1312Y839D01*
X1329Y839D02*
X1334Y839D01*
X1360Y839D02*
X1364Y839D01*
X1395Y839D02*
X1400Y839D01*
X1431Y839D02*
X1436Y839D01*
X1454Y839D02*
X1458Y839D01*
X1472Y839D02*
X1477Y839D01*
X49Y838D02*
X73Y838D01*
X94Y838D02*
X100Y838D01*
X121Y838D02*
X127Y838D01*
X144Y838D02*
X150Y838D01*
X171Y838D02*
X177Y838D01*
X194Y838D02*
X200Y838D01*
X243Y838D02*
X277Y838D01*
X293Y838D02*
X299Y838D01*
X307Y838D02*
X313Y838D01*
X320Y838D02*
X326Y838D01*
X392Y838D02*
X398Y838D01*
X456Y838D02*
X462Y838D01*
X493Y838D02*
X525Y838D01*
X542Y838D02*
X548Y838D01*
X569Y838D02*
X575Y838D01*
X591Y838D02*
X597Y838D01*
X619Y838D02*
X625Y838D01*
X642Y838D02*
X674Y838D01*
X788Y838D02*
X794Y838D01*
X811Y838D02*
X816Y838D01*
X823Y838D02*
X828Y838D01*
X834Y838D02*
X839Y838D01*
X853Y838D02*
X858Y838D01*
X874Y838D02*
X880Y838D01*
X894Y838D02*
X899Y838D01*
X941Y838D02*
X946Y838D01*
X1018Y838D02*
X1023Y838D01*
X1041Y838D02*
X1045Y838D01*
X1059Y838D02*
X1064Y838D01*
X1082Y838D02*
X1087Y838D01*
X1100Y838D02*
X1105Y838D01*
X1112Y838D02*
X1117Y838D01*
X1123Y838D02*
X1128Y838D01*
X1142Y838D02*
X1169Y838D01*
X1224Y838D02*
X1229Y838D01*
X1247Y838D02*
X1252Y838D01*
X1266Y838D02*
X1271Y838D01*
X1288Y838D02*
X1293Y838D01*
X1307Y838D02*
X1312Y838D01*
X1329Y838D02*
X1334Y838D01*
X1360Y838D02*
X1364Y838D01*
X1395Y838D02*
X1400Y838D01*
X1431Y838D02*
X1436Y838D01*
X1454Y838D02*
X1458Y838D01*
X1472Y838D02*
X1477Y838D01*
X48Y837D02*
X74Y837D01*
X94Y837D02*
X100Y837D01*
X121Y837D02*
X127Y837D01*
X144Y837D02*
X150Y837D01*
X171Y837D02*
X177Y837D01*
X194Y837D02*
X200Y837D01*
X243Y837D02*
X276Y837D01*
X293Y837D02*
X299Y837D01*
X307Y837D02*
X313Y837D01*
X320Y837D02*
X326Y837D01*
X392Y837D02*
X398Y837D01*
X456Y837D02*
X462Y837D01*
X492Y837D02*
X500Y837D01*
X517Y837D02*
X525Y837D01*
X542Y837D02*
X548Y837D01*
X569Y837D02*
X575Y837D01*
X591Y837D02*
X597Y837D01*
X619Y837D02*
X625Y837D01*
X641Y837D02*
X649Y837D01*
X666Y837D02*
X674Y837D01*
X788Y837D02*
X795Y837D01*
X811Y837D02*
X816Y837D01*
X823Y837D02*
X828Y837D01*
X834Y837D02*
X839Y837D01*
X853Y837D02*
X858Y837D01*
X875Y837D02*
X880Y837D01*
X894Y837D02*
X899Y837D01*
X941Y837D02*
X946Y837D01*
X1018Y837D02*
X1023Y837D01*
X1041Y837D02*
X1045Y837D01*
X1059Y837D02*
X1064Y837D01*
X1082Y837D02*
X1087Y837D01*
X1100Y837D02*
X1105Y837D01*
X1112Y837D02*
X1117Y837D01*
X1123Y837D02*
X1128Y837D01*
X1142Y837D02*
X1168Y837D01*
X1224Y837D02*
X1229Y837D01*
X1247Y837D02*
X1252Y837D01*
X1266Y837D02*
X1271Y837D01*
X1288Y837D02*
X1293Y837D01*
X1307Y837D02*
X1312Y837D01*
X1329Y837D02*
X1334Y837D01*
X1360Y837D02*
X1364Y837D01*
X1395Y837D02*
X1400Y837D01*
X1431Y837D02*
X1436Y837D01*
X1454Y837D02*
X1458Y837D01*
X1472Y837D02*
X1477Y837D01*
X48Y836D02*
X74Y836D01*
X94Y836D02*
X100Y836D01*
X121Y836D02*
X127Y836D01*
X144Y836D02*
X150Y836D01*
X171Y836D02*
X177Y836D01*
X194Y836D02*
X200Y836D01*
X243Y836D02*
X276Y836D01*
X293Y836D02*
X299Y836D01*
X307Y836D02*
X313Y836D01*
X320Y836D02*
X326Y836D01*
X392Y836D02*
X398Y836D01*
X456Y836D02*
X462Y836D01*
X492Y836D02*
X499Y836D01*
X518Y836D02*
X525Y836D01*
X542Y836D02*
X548Y836D01*
X569Y836D02*
X575Y836D01*
X591Y836D02*
X597Y836D01*
X619Y836D02*
X625Y836D01*
X641Y836D02*
X648Y836D01*
X667Y836D02*
X674Y836D01*
X789Y836D02*
X796Y836D01*
X811Y836D02*
X816Y836D01*
X823Y836D02*
X828Y836D01*
X834Y836D02*
X839Y836D01*
X853Y836D02*
X858Y836D01*
X875Y836D02*
X880Y836D01*
X894Y836D02*
X899Y836D01*
X941Y836D02*
X946Y836D01*
X1018Y836D02*
X1023Y836D01*
X1041Y836D02*
X1045Y836D01*
X1059Y836D02*
X1064Y836D01*
X1082Y836D02*
X1087Y836D01*
X1100Y836D02*
X1105Y836D01*
X1112Y836D02*
X1117Y836D01*
X1123Y836D02*
X1128Y836D01*
X1142Y836D02*
X1147Y836D01*
X1224Y836D02*
X1229Y836D01*
X1247Y836D02*
X1252Y836D01*
X1266Y836D02*
X1271Y836D01*
X1288Y836D02*
X1293Y836D01*
X1307Y836D02*
X1312Y836D01*
X1329Y836D02*
X1334Y836D01*
X1360Y836D02*
X1364Y836D01*
X1395Y836D02*
X1400Y836D01*
X1431Y836D02*
X1436Y836D01*
X1454Y836D02*
X1458Y836D01*
X1472Y836D02*
X1477Y836D01*
X48Y835D02*
X74Y835D01*
X94Y835D02*
X100Y835D01*
X121Y835D02*
X127Y835D01*
X144Y835D02*
X150Y835D01*
X171Y835D02*
X177Y835D01*
X194Y835D02*
X200Y835D01*
X243Y835D02*
X275Y835D01*
X293Y835D02*
X299Y835D01*
X306Y835D02*
X313Y835D01*
X320Y835D02*
X326Y835D01*
X392Y835D02*
X398Y835D01*
X456Y835D02*
X462Y835D01*
X492Y835D02*
X498Y835D01*
X519Y835D02*
X525Y835D01*
X542Y835D02*
X548Y835D01*
X569Y835D02*
X575Y835D01*
X591Y835D02*
X597Y835D01*
X619Y835D02*
X625Y835D01*
X641Y835D02*
X647Y835D01*
X668Y835D02*
X674Y835D01*
X772Y835D02*
X773Y835D01*
X790Y835D02*
X796Y835D01*
X811Y835D02*
X816Y835D01*
X823Y835D02*
X828Y835D01*
X834Y835D02*
X839Y835D01*
X853Y835D02*
X858Y835D01*
X875Y835D02*
X880Y835D01*
X894Y835D02*
X899Y835D01*
X941Y835D02*
X946Y835D01*
X960Y835D02*
X961Y835D01*
X1018Y835D02*
X1023Y835D01*
X1041Y835D02*
X1045Y835D01*
X1059Y835D02*
X1064Y835D01*
X1082Y835D02*
X1087Y835D01*
X1100Y835D02*
X1105Y835D01*
X1112Y835D02*
X1117Y835D01*
X1123Y835D02*
X1128Y835D01*
X1142Y835D02*
X1147Y835D01*
X1224Y835D02*
X1229Y835D01*
X1247Y835D02*
X1252Y835D01*
X1266Y835D02*
X1271Y835D01*
X1288Y835D02*
X1293Y835D01*
X1307Y835D02*
X1312Y835D01*
X1329Y835D02*
X1334Y835D01*
X1360Y835D02*
X1364Y835D01*
X1395Y835D02*
X1400Y835D01*
X1414Y835D02*
X1415Y835D01*
X1431Y835D02*
X1436Y835D01*
X1454Y835D02*
X1458Y835D01*
X1472Y835D02*
X1477Y835D01*
X47Y834D02*
X75Y834D01*
X94Y834D02*
X100Y834D01*
X121Y834D02*
X127Y834D01*
X144Y834D02*
X150Y834D01*
X171Y834D02*
X177Y834D01*
X194Y834D02*
X200Y834D01*
X243Y834D02*
X249Y834D01*
X293Y834D02*
X299Y834D01*
X306Y834D02*
X314Y834D01*
X320Y834D02*
X326Y834D01*
X392Y834D02*
X398Y834D01*
X456Y834D02*
X462Y834D01*
X492Y834D02*
X498Y834D01*
X519Y834D02*
X525Y834D01*
X542Y834D02*
X548Y834D01*
X569Y834D02*
X575Y834D01*
X591Y834D02*
X598Y834D01*
X619Y834D02*
X625Y834D01*
X641Y834D02*
X647Y834D01*
X668Y834D02*
X674Y834D01*
X771Y834D02*
X774Y834D01*
X791Y834D02*
X797Y834D01*
X811Y834D02*
X816Y834D01*
X823Y834D02*
X828Y834D01*
X834Y834D02*
X839Y834D01*
X853Y834D02*
X858Y834D01*
X875Y834D02*
X880Y834D01*
X894Y834D02*
X899Y834D01*
X941Y834D02*
X946Y834D01*
X959Y834D02*
X962Y834D01*
X1018Y834D02*
X1023Y834D01*
X1041Y834D02*
X1045Y834D01*
X1059Y834D02*
X1064Y834D01*
X1082Y834D02*
X1087Y834D01*
X1100Y834D02*
X1105Y834D01*
X1112Y834D02*
X1117Y834D01*
X1123Y834D02*
X1128Y834D01*
X1142Y834D02*
X1147Y834D01*
X1224Y834D02*
X1229Y834D01*
X1247Y834D02*
X1252Y834D01*
X1266Y834D02*
X1271Y834D01*
X1288Y834D02*
X1293Y834D01*
X1307Y834D02*
X1312Y834D01*
X1329Y834D02*
X1334Y834D01*
X1360Y834D02*
X1364Y834D01*
X1395Y834D02*
X1400Y834D01*
X1413Y834D02*
X1416Y834D01*
X1431Y834D02*
X1436Y834D01*
X1453Y834D02*
X1458Y834D01*
X1472Y834D02*
X1477Y834D01*
X47Y833D02*
X75Y833D01*
X94Y833D02*
X100Y833D01*
X121Y833D02*
X127Y833D01*
X144Y833D02*
X150Y833D01*
X170Y833D02*
X177Y833D01*
X194Y833D02*
X200Y833D01*
X243Y833D02*
X249Y833D01*
X293Y833D02*
X300Y833D01*
X305Y833D02*
X314Y833D01*
X320Y833D02*
X326Y833D01*
X392Y833D02*
X398Y833D01*
X456Y833D02*
X462Y833D01*
X492Y833D02*
X498Y833D01*
X519Y833D02*
X525Y833D01*
X542Y833D02*
X548Y833D01*
X567Y833D02*
X575Y833D01*
X591Y833D02*
X598Y833D01*
X619Y833D02*
X625Y833D01*
X641Y833D02*
X647Y833D01*
X668Y833D02*
X674Y833D01*
X770Y833D02*
X775Y833D01*
X791Y833D02*
X797Y833D01*
X811Y833D02*
X816Y833D01*
X823Y833D02*
X828Y833D01*
X834Y833D02*
X839Y833D01*
X853Y833D02*
X858Y833D01*
X874Y833D02*
X880Y833D01*
X894Y833D02*
X899Y833D01*
X941Y833D02*
X946Y833D01*
X958Y833D02*
X963Y833D01*
X1018Y833D02*
X1023Y833D01*
X1041Y833D02*
X1045Y833D01*
X1060Y833D02*
X1065Y833D01*
X1081Y833D02*
X1087Y833D01*
X1100Y833D02*
X1105Y833D01*
X1112Y833D02*
X1117Y833D01*
X1123Y833D02*
X1128Y833D01*
X1142Y833D02*
X1147Y833D01*
X1224Y833D02*
X1229Y833D01*
X1247Y833D02*
X1252Y833D01*
X1266Y833D02*
X1271Y833D01*
X1288Y833D02*
X1293Y833D01*
X1307Y833D02*
X1312Y833D01*
X1329Y833D02*
X1334Y833D01*
X1360Y833D02*
X1364Y833D01*
X1395Y833D02*
X1400Y833D01*
X1412Y833D02*
X1417Y833D01*
X1431Y833D02*
X1436Y833D01*
X1453Y833D02*
X1458Y833D01*
X1472Y833D02*
X1477Y833D01*
X47Y832D02*
X75Y832D01*
X94Y832D02*
X100Y832D01*
X121Y832D02*
X127Y832D01*
X144Y832D02*
X150Y832D01*
X169Y832D02*
X177Y832D01*
X194Y832D02*
X200Y832D01*
X243Y832D02*
X249Y832D01*
X294Y832D02*
X300Y832D01*
X304Y832D02*
X315Y832D01*
X319Y832D02*
X326Y832D01*
X392Y832D02*
X398Y832D01*
X456Y832D02*
X462Y832D01*
X492Y832D02*
X498Y832D01*
X519Y832D02*
X525Y832D01*
X542Y832D02*
X548Y832D01*
X566Y832D02*
X575Y832D01*
X591Y832D02*
X599Y832D01*
X619Y832D02*
X625Y832D01*
X641Y832D02*
X647Y832D01*
X668Y832D02*
X674Y832D01*
X770Y832D02*
X775Y832D01*
X792Y832D02*
X798Y832D01*
X811Y832D02*
X816Y832D01*
X823Y832D02*
X828Y832D01*
X834Y832D02*
X839Y832D01*
X853Y832D02*
X858Y832D01*
X872Y832D02*
X880Y832D01*
X894Y832D02*
X899Y832D01*
X941Y832D02*
X946Y832D01*
X958Y832D02*
X963Y832D01*
X1018Y832D02*
X1023Y832D01*
X1041Y832D02*
X1045Y832D01*
X1060Y832D02*
X1066Y832D01*
X1080Y832D02*
X1086Y832D01*
X1100Y832D02*
X1105Y832D01*
X1112Y832D02*
X1117Y832D01*
X1124Y832D02*
X1128Y832D01*
X1142Y832D02*
X1148Y832D01*
X1224Y832D02*
X1229Y832D01*
X1247Y832D02*
X1252Y832D01*
X1266Y832D02*
X1272Y832D01*
X1287Y832D02*
X1293Y832D01*
X1307Y832D02*
X1312Y832D01*
X1330Y832D02*
X1334Y832D01*
X1360Y832D02*
X1364Y832D01*
X1395Y832D02*
X1400Y832D01*
X1412Y832D02*
X1417Y832D01*
X1431Y832D02*
X1437Y832D01*
X1452Y832D02*
X1458Y832D01*
X1472Y832D02*
X1477Y832D01*
X46Y831D02*
X53Y831D01*
X69Y831D02*
X76Y831D01*
X94Y831D02*
X100Y831D01*
X121Y831D02*
X127Y831D01*
X144Y831D02*
X150Y831D01*
X168Y831D02*
X177Y831D01*
X194Y831D02*
X200Y831D01*
X243Y831D02*
X250Y831D01*
X294Y831D02*
X300Y831D01*
X304Y831D02*
X315Y831D01*
X319Y831D02*
X325Y831D01*
X392Y831D02*
X398Y831D01*
X456Y831D02*
X462Y831D01*
X492Y831D02*
X498Y831D01*
X518Y831D02*
X525Y831D01*
X542Y831D02*
X548Y831D01*
X564Y831D02*
X575Y831D01*
X591Y831D02*
X600Y831D01*
X618Y831D02*
X624Y831D01*
X641Y831D02*
X647Y831D01*
X668Y831D02*
X674Y831D01*
X770Y831D02*
X776Y831D01*
X793Y831D02*
X798Y831D01*
X811Y831D02*
X816Y831D01*
X823Y831D02*
X828Y831D01*
X835Y831D02*
X839Y831D01*
X853Y831D02*
X859Y831D01*
X870Y831D02*
X880Y831D01*
X894Y831D02*
X899Y831D01*
X941Y831D02*
X947Y831D01*
X957Y831D02*
X963Y831D01*
X1018Y831D02*
X1023Y831D01*
X1041Y831D02*
X1045Y831D01*
X1060Y831D02*
X1067Y831D01*
X1079Y831D02*
X1086Y831D01*
X1100Y831D02*
X1105Y831D01*
X1112Y831D02*
X1117Y831D01*
X1124Y831D02*
X1128Y831D01*
X1143Y831D02*
X1150Y831D01*
X1224Y831D02*
X1229Y831D01*
X1247Y831D02*
X1252Y831D01*
X1267Y831D02*
X1274Y831D01*
X1285Y831D02*
X1292Y831D01*
X1307Y831D02*
X1312Y831D01*
X1330Y831D02*
X1334Y831D01*
X1360Y831D02*
X1364Y831D01*
X1396Y831D02*
X1401Y831D01*
X1411Y831D02*
X1417Y831D01*
X1432Y831D02*
X1439Y831D01*
X1451Y831D02*
X1457Y831D01*
X1472Y831D02*
X1477Y831D01*
X46Y830D02*
X52Y830D01*
X70Y830D02*
X76Y830D01*
X94Y830D02*
X100Y830D01*
X121Y830D02*
X127Y830D01*
X144Y830D02*
X151Y830D01*
X167Y830D02*
X177Y830D01*
X194Y830D02*
X200Y830D01*
X244Y830D02*
X250Y830D01*
X294Y830D02*
X301Y830D01*
X303Y830D02*
X316Y830D01*
X319Y830D02*
X325Y830D01*
X392Y830D02*
X398Y830D01*
X456Y830D02*
X462Y830D01*
X492Y830D02*
X498Y830D01*
X517Y830D02*
X525Y830D01*
X542Y830D02*
X548Y830D01*
X563Y830D02*
X575Y830D01*
X591Y830D02*
X602Y830D01*
X618Y830D02*
X624Y830D01*
X641Y830D02*
X647Y830D01*
X666Y830D02*
X674Y830D01*
X771Y830D02*
X798Y830D01*
X811Y830D02*
X816Y830D01*
X823Y830D02*
X828Y830D01*
X835Y830D02*
X839Y830D01*
X853Y830D02*
X880Y830D01*
X894Y830D02*
X899Y830D01*
X942Y830D02*
X962Y830D01*
X1018Y830D02*
X1023Y830D01*
X1041Y830D02*
X1045Y830D01*
X1061Y830D02*
X1085Y830D01*
X1100Y830D02*
X1105Y830D01*
X1112Y830D02*
X1117Y830D01*
X1124Y830D02*
X1128Y830D01*
X1143Y830D02*
X1168Y830D01*
X1224Y830D02*
X1229Y830D01*
X1247Y830D02*
X1252Y830D01*
X1267Y830D02*
X1292Y830D01*
X1307Y830D02*
X1312Y830D01*
X1330Y830D02*
X1334Y830D01*
X1353Y830D02*
X1371Y830D01*
X1396Y830D02*
X1416Y830D01*
X1432Y830D02*
X1457Y830D01*
X1472Y830D02*
X1477Y830D01*
X46Y829D02*
X52Y829D01*
X70Y829D02*
X76Y829D01*
X94Y829D02*
X100Y829D01*
X121Y829D02*
X127Y829D01*
X144Y829D02*
X152Y829D01*
X166Y829D02*
X177Y829D01*
X194Y829D02*
X200Y829D01*
X244Y829D02*
X251Y829D01*
X295Y829D02*
X301Y829D01*
X303Y829D02*
X325Y829D01*
X392Y829D02*
X398Y829D01*
X456Y829D02*
X462Y829D01*
X492Y829D02*
X498Y829D01*
X515Y829D02*
X525Y829D01*
X542Y829D02*
X549Y829D01*
X561Y829D02*
X575Y829D01*
X591Y829D02*
X603Y829D01*
X617Y829D02*
X624Y829D01*
X641Y829D02*
X647Y829D01*
X664Y829D02*
X674Y829D01*
X771Y829D02*
X797Y829D01*
X811Y829D02*
X816Y829D01*
X823Y829D02*
X828Y829D01*
X835Y829D02*
X839Y829D01*
X854Y829D02*
X880Y829D01*
X894Y829D02*
X899Y829D01*
X942Y829D02*
X962Y829D01*
X1018Y829D02*
X1023Y829D01*
X1041Y829D02*
X1045Y829D01*
X1062Y829D02*
X1084Y829D01*
X1100Y829D02*
X1105Y829D01*
X1112Y829D02*
X1117Y829D01*
X1124Y829D02*
X1128Y829D01*
X1144Y829D02*
X1169Y829D01*
X1224Y829D02*
X1229Y829D01*
X1247Y829D02*
X1252Y829D01*
X1268Y829D02*
X1291Y829D01*
X1307Y829D02*
X1312Y829D01*
X1330Y829D02*
X1334Y829D01*
X1352Y829D02*
X1372Y829D01*
X1396Y829D02*
X1416Y829D01*
X1433Y829D02*
X1456Y829D01*
X1472Y829D02*
X1477Y829D01*
X46Y828D02*
X52Y828D01*
X70Y828D02*
X76Y828D01*
X94Y828D02*
X100Y828D01*
X121Y828D02*
X127Y828D01*
X145Y828D02*
X153Y828D01*
X164Y828D02*
X177Y828D01*
X194Y828D02*
X200Y828D01*
X244Y828D02*
X252Y828D01*
X295Y828D02*
X324Y828D01*
X392Y828D02*
X398Y828D01*
X456Y828D02*
X462Y828D01*
X492Y828D02*
X499Y828D01*
X514Y828D02*
X525Y828D01*
X543Y828D02*
X549Y828D01*
X560Y828D02*
X575Y828D01*
X591Y828D02*
X604Y828D01*
X615Y828D02*
X624Y828D01*
X641Y828D02*
X648Y828D01*
X663Y828D02*
X674Y828D01*
X772Y828D02*
X797Y828D01*
X811Y828D02*
X816Y828D01*
X823Y828D02*
X828Y828D01*
X835Y828D02*
X839Y828D01*
X855Y828D02*
X880Y828D01*
X894Y828D02*
X899Y828D01*
X943Y828D02*
X961Y828D01*
X1018Y828D02*
X1023Y828D01*
X1041Y828D02*
X1045Y828D01*
X1063Y828D02*
X1083Y828D01*
X1100Y828D02*
X1105Y828D01*
X1112Y828D02*
X1117Y828D01*
X1124Y828D02*
X1128Y828D01*
X1145Y828D02*
X1169Y828D01*
X1224Y828D02*
X1229Y828D01*
X1247Y828D02*
X1252Y828D01*
X1269Y828D02*
X1290Y828D01*
X1307Y828D02*
X1312Y828D01*
X1330Y828D02*
X1334Y828D01*
X1351Y828D02*
X1373Y828D01*
X1397Y828D02*
X1415Y828D01*
X1434Y828D02*
X1455Y828D01*
X1472Y828D02*
X1477Y828D01*
X45Y827D02*
X52Y827D01*
X70Y827D02*
X77Y827D01*
X94Y827D02*
X100Y827D01*
X121Y827D02*
X127Y827D01*
X145Y827D02*
X155Y827D01*
X163Y827D02*
X177Y827D01*
X194Y827D02*
X200Y827D01*
X245Y827D02*
X254Y827D01*
X295Y827D02*
X309Y827D01*
X311Y827D02*
X324Y827D01*
X392Y827D02*
X399Y827D01*
X456Y827D02*
X462Y827D01*
X492Y827D02*
X500Y827D01*
X512Y827D02*
X525Y827D01*
X543Y827D02*
X551Y827D01*
X558Y827D02*
X575Y827D01*
X591Y827D02*
X605Y827D01*
X614Y827D02*
X623Y827D01*
X642Y827D02*
X649Y827D01*
X661Y827D02*
X674Y827D01*
X772Y827D02*
X796Y827D01*
X811Y827D02*
X816Y827D01*
X823Y827D02*
X828Y827D01*
X835Y827D02*
X839Y827D01*
X855Y827D02*
X880Y827D01*
X894Y827D02*
X899Y827D01*
X944Y827D02*
X960Y827D01*
X1018Y827D02*
X1023Y827D01*
X1041Y827D02*
X1045Y827D01*
X1064Y827D02*
X1082Y827D01*
X1100Y827D02*
X1105Y827D01*
X1112Y827D02*
X1117Y827D01*
X1124Y827D02*
X1128Y827D01*
X1146Y827D02*
X1169Y827D01*
X1225Y827D02*
X1229Y827D01*
X1247Y827D02*
X1252Y827D01*
X1270Y827D02*
X1289Y827D01*
X1307Y827D02*
X1312Y827D01*
X1330Y827D02*
X1334Y827D01*
X1351Y827D02*
X1373Y827D01*
X1398Y827D02*
X1414Y827D01*
X1435Y827D02*
X1454Y827D01*
X1472Y827D02*
X1477Y827D01*
X45Y826D02*
X51Y826D01*
X71Y826D02*
X77Y826D01*
X94Y826D02*
X100Y826D01*
X121Y826D02*
X127Y826D01*
X146Y826D02*
X177Y826D01*
X194Y826D02*
X200Y826D01*
X245Y826D02*
X275Y826D01*
X295Y826D02*
X308Y826D01*
X311Y826D02*
X324Y826D01*
X392Y826D02*
X424Y826D01*
X447Y826D02*
X471Y826D01*
X493Y826D02*
X525Y826D01*
X543Y826D02*
X575Y826D01*
X591Y826D02*
X622Y826D01*
X642Y826D02*
X674Y826D01*
X774Y826D02*
X795Y826D01*
X812Y826D02*
X815Y826D01*
X823Y826D02*
X827Y826D01*
X835Y826D02*
X839Y826D01*
X857Y826D02*
X872Y826D01*
X876Y826D02*
X880Y826D01*
X895Y826D02*
X898Y826D01*
X945Y826D02*
X959Y826D01*
X1018Y826D02*
X1022Y826D01*
X1041Y826D02*
X1045Y826D01*
X1065Y826D02*
X1081Y826D01*
X1101Y826D02*
X1104Y826D01*
X1112Y826D02*
X1116Y826D01*
X1124Y826D02*
X1128Y826D01*
X1148Y826D02*
X1169Y826D01*
X1225Y826D02*
X1229Y826D01*
X1248Y826D02*
X1251Y826D01*
X1272Y826D02*
X1287Y826D01*
X1307Y826D02*
X1311Y826D01*
X1330Y826D02*
X1334Y826D01*
X1352Y826D02*
X1372Y826D01*
X1399Y826D02*
X1413Y826D01*
X1437Y826D02*
X1452Y826D01*
X1473Y826D02*
X1477Y826D01*
X45Y825D02*
X51Y825D01*
X71Y825D02*
X77Y825D01*
X94Y825D02*
X100Y825D01*
X121Y825D02*
X127Y825D01*
X147Y825D02*
X177Y825D01*
X194Y825D02*
X200Y825D01*
X246Y825D02*
X276Y825D01*
X296Y825D02*
X307Y825D01*
X312Y825D02*
X323Y825D01*
X392Y825D02*
X425Y825D01*
X446Y825D02*
X471Y825D01*
X493Y825D02*
X525Y825D01*
X544Y825D02*
X567Y825D01*
X569Y825D02*
X575Y825D01*
X591Y825D02*
X621Y825D01*
X642Y825D02*
X674Y825D01*
X775Y825D02*
X794Y825D01*
X813Y825D02*
X814Y825D01*
X824Y825D02*
X826Y825D01*
X836Y825D02*
X838Y825D01*
X859Y825D02*
X870Y825D01*
X877Y825D02*
X879Y825D01*
X896Y825D02*
X898Y825D01*
X947Y825D02*
X957Y825D01*
X1019Y825D02*
X1021Y825D01*
X1042Y825D02*
X1044Y825D01*
X1067Y825D02*
X1079Y825D01*
X1102Y825D02*
X1103Y825D01*
X1113Y825D02*
X1115Y825D01*
X1125Y825D02*
X1127Y825D01*
X1150Y825D02*
X1168Y825D01*
X1226Y825D02*
X1228Y825D01*
X1248Y825D02*
X1250Y825D01*
X1274Y825D02*
X1285Y825D01*
X1308Y825D02*
X1310Y825D01*
X1331Y825D02*
X1333Y825D01*
X1353Y825D02*
X1371Y825D01*
X1401Y825D02*
X1411Y825D01*
X1439Y825D02*
X1450Y825D01*
X1474Y825D02*
X1476Y825D01*
X44Y824D02*
X51Y824D01*
X71Y824D02*
X78Y824D01*
X94Y824D02*
X100Y824D01*
X121Y824D02*
X127Y824D01*
X148Y824D02*
X177Y824D01*
X194Y824D02*
X200Y824D01*
X247Y824D02*
X276Y824D01*
X296Y824D02*
X307Y824D01*
X312Y824D02*
X323Y824D01*
X392Y824D02*
X426Y824D01*
X446Y824D02*
X472Y824D01*
X494Y824D02*
X525Y824D01*
X544Y824D02*
X565Y824D01*
X569Y824D02*
X575Y824D01*
X591Y824D02*
X620Y824D01*
X643Y824D02*
X674Y824D01*
X44Y823D02*
X50Y823D01*
X72Y823D02*
X78Y823D01*
X94Y823D02*
X100Y823D01*
X121Y823D02*
X127Y823D01*
X149Y823D02*
X169Y823D01*
X171Y823D02*
X177Y823D01*
X194Y823D02*
X199Y823D01*
X248Y823D02*
X276Y823D01*
X296Y823D02*
X306Y823D01*
X313Y823D02*
X323Y823D01*
X392Y823D02*
X426Y823D01*
X446Y823D02*
X472Y823D01*
X495Y823D02*
X525Y823D01*
X545Y823D02*
X564Y823D01*
X569Y823D02*
X575Y823D01*
X591Y823D02*
X597Y823D01*
X600Y823D02*
X619Y823D01*
X644Y823D02*
X674Y823D01*
X45Y822D02*
X50Y822D01*
X72Y822D02*
X77Y822D01*
X94Y822D02*
X100Y822D01*
X122Y822D02*
X127Y822D01*
X150Y822D02*
X167Y822D01*
X171Y822D02*
X177Y822D01*
X194Y822D02*
X199Y822D01*
X250Y822D02*
X276Y822D01*
X297Y822D02*
X306Y822D01*
X314Y822D02*
X323Y822D01*
X392Y822D02*
X425Y822D01*
X446Y822D02*
X472Y822D01*
X496Y822D02*
X516Y822D01*
X519Y822D02*
X525Y822D01*
X546Y822D02*
X562Y822D01*
X569Y822D02*
X575Y822D01*
X592Y822D02*
X597Y822D01*
X601Y822D02*
X618Y822D01*
X645Y822D02*
X665Y822D01*
X669Y822D02*
X674Y822D01*
X45Y821D02*
X49Y821D01*
X73Y821D02*
X77Y821D01*
X95Y821D02*
X99Y821D01*
X122Y821D02*
X126Y821D01*
X152Y821D02*
X166Y821D01*
X172Y821D02*
X176Y821D01*
X195Y821D02*
X199Y821D01*
X251Y821D02*
X276Y821D01*
X297Y821D02*
X305Y821D01*
X314Y821D02*
X322Y821D01*
X392Y821D02*
X425Y821D01*
X446Y821D02*
X471Y821D01*
X497Y821D02*
X514Y821D01*
X520Y821D02*
X524Y821D01*
X548Y821D02*
X560Y821D01*
X570Y821D02*
X574Y821D01*
X592Y821D02*
X596Y821D01*
X603Y821D02*
X616Y821D01*
X647Y821D02*
X663Y821D01*
X669Y821D02*
X673Y821D01*
X47Y820D02*
X48Y820D01*
X74Y820D02*
X75Y820D01*
X97Y820D02*
X98Y820D01*
X124Y820D02*
X125Y820D01*
X155Y820D02*
X163Y820D01*
X174Y820D02*
X175Y820D01*
X196Y820D02*
X197Y820D01*
X254Y820D02*
X274Y820D01*
X299Y820D02*
X303Y820D01*
X316Y820D02*
X320Y820D01*
X393Y820D02*
X423Y820D01*
X448Y820D02*
X469Y820D01*
X500Y820D02*
X512Y820D01*
X522Y820D02*
X523Y820D01*
X551Y820D02*
X557Y820D01*
X571Y820D02*
X572Y820D01*
X594Y820D02*
X595Y820D01*
X606Y820D02*
X614Y820D01*
X649Y820D02*
X662Y820D01*
X671Y820D02*
X672Y820D01*
X194Y644D02*
X267Y644D01*
X194Y643D02*
X267Y643D01*
X194Y642D02*
X267Y642D01*
X194Y641D02*
X267Y641D01*
X194Y640D02*
X267Y640D01*
X194Y639D02*
X267Y639D01*
X194Y638D02*
X267Y638D01*
X194Y637D02*
X267Y637D01*
X194Y636D02*
X267Y636D01*
X194Y635D02*
X267Y635D01*
X194Y634D02*
X267Y634D01*
X194Y633D02*
X267Y633D01*
X194Y632D02*
X267Y632D01*
X194Y631D02*
X267Y631D01*
X194Y630D02*
X267Y630D01*
X194Y629D02*
X267Y629D01*
X194Y628D02*
X267Y628D01*
X194Y627D02*
X225Y627D01*
X236Y627D02*
X267Y627D01*
X194Y626D02*
X222Y626D01*
X239Y626D02*
X267Y626D01*
X194Y625D02*
X220Y625D01*
X241Y625D02*
X267Y625D01*
X194Y624D02*
X218Y624D01*
X242Y624D02*
X267Y624D01*
X194Y623D02*
X217Y623D01*
X244Y623D02*
X267Y623D01*
X194Y622D02*
X216Y622D01*
X245Y622D02*
X267Y622D01*
X194Y621D02*
X215Y621D01*
X246Y621D02*
X267Y621D01*
X194Y620D02*
X214Y620D01*
X247Y620D02*
X267Y620D01*
X194Y619D02*
X213Y619D01*
X247Y619D02*
X267Y619D01*
X194Y618D02*
X213Y618D01*
X248Y618D02*
X267Y618D01*
X194Y617D02*
X212Y617D01*
X248Y617D02*
X267Y617D01*
X194Y616D02*
X212Y616D01*
X249Y616D02*
X267Y616D01*
X194Y615D02*
X211Y615D01*
X249Y615D02*
X267Y615D01*
X194Y614D02*
X211Y614D01*
X250Y614D02*
X267Y614D01*
X194Y613D02*
X211Y613D01*
X250Y613D02*
X267Y613D01*
X194Y612D02*
X210Y612D01*
X250Y612D02*
X267Y612D01*
X194Y611D02*
X210Y611D01*
X250Y611D02*
X267Y611D01*
X194Y610D02*
X210Y610D01*
X251Y610D02*
X267Y610D01*
X194Y609D02*
X210Y609D01*
X251Y609D02*
X267Y609D01*
X194Y608D02*
X210Y608D01*
X251Y608D02*
X267Y608D01*
X194Y607D02*
X210Y607D01*
X251Y607D02*
X267Y607D01*
X194Y606D02*
X210Y606D01*
X251Y606D02*
X267Y606D01*
X194Y605D02*
X210Y605D01*
X251Y605D02*
X267Y605D01*
X194Y604D02*
X210Y604D01*
X250Y604D02*
X267Y604D01*
X194Y603D02*
X210Y603D01*
X250Y603D02*
X267Y603D01*
X194Y602D02*
X211Y602D01*
X250Y602D02*
X267Y602D01*
X194Y601D02*
X211Y601D01*
X250Y601D02*
X267Y601D01*
X194Y600D02*
X211Y600D01*
X249Y600D02*
X267Y600D01*
X194Y599D02*
X212Y599D01*
X249Y599D02*
X267Y599D01*
X194Y598D02*
X212Y598D01*
X248Y598D02*
X267Y598D01*
X194Y597D02*
X213Y597D01*
X248Y597D02*
X267Y597D01*
X194Y596D02*
X214Y596D01*
X247Y596D02*
X267Y596D01*
X194Y595D02*
X215Y595D01*
X246Y595D02*
X267Y595D01*
X194Y594D02*
X215Y594D01*
X245Y594D02*
X267Y594D01*
X194Y593D02*
X216Y593D01*
X244Y593D02*
X267Y593D01*
X194Y592D02*
X218Y592D01*
X243Y592D02*
X267Y592D01*
X194Y591D02*
X219Y591D01*
X242Y591D02*
X267Y591D01*
X194Y590D02*
X221Y590D01*
X240Y590D02*
X267Y590D01*
X194Y589D02*
X223Y589D01*
X238Y589D02*
X267Y589D01*
X194Y588D02*
X227Y588D01*
X233Y588D02*
X267Y588D01*
X194Y587D02*
X267Y587D01*
X194Y586D02*
X267Y586D01*
X194Y585D02*
X267Y585D01*
X194Y584D02*
X267Y584D01*
X194Y583D02*
X267Y583D01*
X194Y582D02*
X267Y582D01*
X194Y581D02*
X267Y581D01*
X194Y580D02*
X267Y580D01*
X194Y579D02*
X267Y579D01*
X194Y578D02*
X267Y578D01*
X194Y577D02*
X267Y577D01*
X194Y576D02*
X267Y576D01*
X194Y575D02*
X267Y575D01*
X194Y574D02*
X267Y574D01*
X194Y573D02*
X267Y573D01*
X194Y572D02*
X267Y572D01*
X194Y571D02*
X267Y571D01*
D02*
G04 End of Copper1*
M02*